<mxfile host="65bd71144e">
    <diagram id="KwvtM_ioJ-xc_FUsTVH3" name="ページ1">
        <mxGraphModel dx="500" dy="286" grid="1" gridSize="10" guides="1" tooltips="1" connect="1" arrows="1" fold="1" page="1" pageScale="1" pageWidth="827" pageHeight="1169" background="#FFFFFF" math="0" shadow="0">
            <root>
                <mxCell id="0"/>
                <mxCell id="1" parent="0"/>
                <mxCell id="31" value="" style="shape=image;verticalLabelPosition=bottom;labelBackgroundColor=default;verticalAlign=top;aspect=fixed;imageAspect=0;image=data:image/png,iVBORw0KGgoAAAANSUhEUgAAAP4AAAD+CAYAAAAalrhRAAAAAXNSR0IArs4c6QAAAARnQU1BAACxjwv8YQUAAAAJcEhZcwAACxIAAAsSAdLdfvwAAP+lSURBVHhe7P1nsGVJftiJ/TKPv/65cl1d7XumxxsMxgBcAJyFIUDQG8VKq/2gCEVI2qV2lwToFlJH6CMjZL4oYqmI1S6XXHK1hCFBApjBuB7Xbtr76vKvqp6//h6fmfqQ59x7332vqnsALI1C/1f/usdk5knzd/lPJ97ciw0VCOHUl/cAYf839dUCZJWKkctvtP0R809g9GpMCwYwwmCMjWMMYORKqONx66SkOJmmMItv/kmDEALsP3t9AmwZ9EoWjFHVxQfVcwXiZPpmJVFxrL7vBcfjrEaRVb2eqO2qnU1V3vtD1dYrUNOFcCra0QAaKcWJfNVlXSIXWMqXWMqEcQwC0NIgjKjiCPtnBBiBkRowmJXv2JDHwTEGR4NAoQUUvsANPN64+jZXb7zGd77zfdbX1mlEPbrtB9na2mIyHlMWmkceP8ezr/y/uHlzm5/6wv+CL335J/naH/5T+oeKwfQm23e2ORofcWarjesI9neHJLOMc2fXGc/20cbHddbo9dokyYzpeEqRFkzHEzbW1vn4k08xPZqi8x4/+YWf4x//k/8GJzI89pHHeOGlF/mJL3wBZMbVG2+xcabB3sEtzp9/nMnI5dHHH2M4uc5kusdmZxPH9Lh25c6Jtv53BoQQH4iywn9bYABjzClYCa4T8G8vrzX8W8vBqfXx7yYYQClFYTQvv/JdslTzyMOX2NvbRRUhWmk81+OJJ55klkwAxZOP/ixnNp7g1Te+xW/9i3/I2XNn6Y9usbs7xJENpJAMBkPSPGVjo0uSxgyGIwK/jdGaUk85PDpgf3eI73Xo9TY4c+YM+/t9rlx/j6k+JDYTHv3YAzz52UvMspy9nSG69Ll65Taj0YAzZ7bY3x1w5sxZcnXA+qam12vyq3/2VwmiFGVSBkcpG2sPIJY1/j3BSCtNa013D40vhEALEKKWJ5WGEwaMjWFO5wjABllmpg/S+PeHe3+HD8gHS9rnA+HUYAYbvX5ZlX2urSvNJu4V34I4JR96Jd8fLPjMvC5qTbqaZg0navvH0Pi1pbYKli7stXDEKRq/qgsESIOk1t4LWL2H4xpfannMGvjjaHxQKAmJKXjryru88Po3uLt7g0cf+hQXzjxOkbv88Nln+ZVf+WXOnj3Lrdu3CAIHx9XsHdzgvSvP8/rb3+HRhz/GLOkzGCiGwwlJPsB1FUHgEMcJZaHpH05YXztDEpe4nofSGd1ug9AP2Nk5oBW10ErTPxogKPn0Fy9hdEAreJxmtMbOzl2m4xk7u3e49MgaO3v7dDrrJOoO5y+BEC5FLijLDGGa6MxH5z6eaOH873/t7z+9UgengKXQOeOfUnHGUqkNPSesmtLm/90flsxnKSRSSqQUJxBhP1XjPdTrHwvuxRwfCoQluIUArNKaZ7Oup9OrZbk0q/lYLenxuj4Nq3Dzq5Np1nDiqeWfe4Q//TurYNuzupY1U5ulNKu6qBrfGuvHYfUerJSqn9uuylIowenSYglOpCkFxhi01CghePu9y1y5cZWgYzga7tI/yHns4U9xdvMs3VaL81tnuXXzJllc4PsRN269jx+4OI7D9Vvv8cbbb6BMTNiA0WSMkArXhb39fYwytFodHOGxvzth68wZ1ja6RFHEcDAhTzWNqM3mxjqeF7B1do0HHmsTF0Om8RSlBOvrTfJ8hNcwXHxwg/7ogM3N8yjl0GxL/ChnPErJZz3yJCTwBUZrHnnwE+zvHeH8H379//S0ELIi0qqyjKzkf41L1WTu1eS1xDfV9ZIGWGqD2kw/FetmrzSNwKygJQqJsJqhikdFnHNhgLbMV6ssYeZYay9NZWHcA+t0V/EEwZwKtt4scR+vOwv1s6XKPFGfC1iuazmvL2tVHMeVrtC8Rqu/+rkjLBNWWMvN09pVVG12MjfH4WReLEphqu/UaVVlWPmrwVT/LfJhMCh7J8WCJOdNslSXS3kTVdwaVptS6rkRihECIwQlBiM0Qvgcjca8e+UdUhVjdINHH/w0naDFufV1tm/cRGUF3U6Hg/1DHrx0AeGWXLnxBtduvozwB7hOyGiQEzUjooZmOh3iOj6+GxFPE4yStNstitTlzvYRQSRJkxQHn+kkZr23htGas5vnOH/+Enf376DKJnHsc/7co6Ad3DKiu3GBn/zCTyIkvH/tKkVR4Doh3W6LVquBJ3tcv3aDzY0WjnDQqiQvdk5YdxV8OPKuwYB1zP140e4JqwS8QIMQZkmwWJTCVFjl/BgjWKG2QJvJDzaR/w3DMvPVBHmMlD8AloTbCVwOduzu/lDX9KnfF5UdL09+4wQsffTH+f4yGE7pX94TTjfv7wXGGEqjEa5gMOtz+ca7JHnOk089wd7BHoNhjOc1aDQaNNtN1tbX+ejHnuKhhx7msSceIy9yPvbRj9PrrrG7e8h4UrK+cZYwCjHG4Diajc1eRX8OYdCk29mg1znDpUuPcOHBBzg66uM4LkrndHsh3V6TshTc2r7Fm++8hCuadFobfPSRLzLqF4zHE86c8dk7fJeXXv4hs3RGb7PJ3uE2jZbE6AhfniEKevyZX/jLXL08ZTb22L1zRJaA85/9rd94upaCi8payANrwn8wGlGJaSFP6GlLvPYaYb9yLwQqrrXp3q+tT8lGhQLEiqUyj1NJBU4RMFLPNWkdehVOPrlfHdWhrZqyxLvQUbXosmVf1L6Z/7cEJyyt2gaqAq5WZBV+/m6pVcW9wt0DxFKej8HCPLJafbU+K7Vv293WyaLzs5KiEAhpbTlrzS21j2PfrUKdgrUZTr5fhjqsqa5N5U8SyKoIhlIVfOu7v8/R6C5Rs8s4OWTn8AZPffQzPHThCRqBz/MvPM/rb73J+tkzXHjgDN31DkpOeeGVP+SZ5/4F4/gu6+ubGCNpNc/jsInRUzzfII2PKgSuKxFGsrX5CI88/ASDwS6+76AyTa/bwXMD0BF54mBwERJ2d/t0Oxf5wme/yCc/8ZM8/9y3ibySy7feZ3g0ZHd3l2kywfUMYeDi+y5rnYs89MAX6La3GPSPOLN5kf7RhNDdwPlPf+035n380xh/tX3uCTWx69pDt4Ro+7Kq9dXXx4Iufc8muXggqpytEupJYqufn8Tll6vxlontXubLqU9PfWjTslDXp835MhGeCgs+madRZ32R5gJMVdZ7Qf1q/rsSuM5HLSpP4P0Sr2A1jHXOLhq2dncs0l1JUwirERHWZ7Ms9O/x+UW5Tk3xGKy+W45bC6bRuE9/uMM7V15F64BJesBb779MM9jg4x/5JGvdHnd2bvPKm69yOOoTtRrM8j5/8K3/jlff+BHr6xc4e+Yi03iPIFJMJoekaUoQFsxmY3QpEDg0WxGeF6DyJoHv4QUFnU6LmzduIISh3e4yHA4wIqXTieh1N2k0OuS54C/8+f+Ig8MheTbkjRffRoZrdJtd7u7uY4SPMB5R2MF1XFQJaVJy8+Z1trfv0ow2SKYZ29fHOP/pr//9p62H22CqpjdGWA2OAKEtYdyTSiswspL+c2oBYVNdZmxLIB+AcvkeMFamUzcS2Os5Nx/HRVbtmO7yH/XVEkPVqR4LtyQElnH+vVo21Nmpid1md8kjMX+7uKyTqNKzaVPV2VL+qusq8PxjNn1br4v3x/jMMtv8c1Xp7mWaVNbR/L2ovSgW6xacp1/Xw7FkjosNA1X+qyRPaSfrrRG1x8amaTjuH6osSVG39zz0Ip3j9fzjgLXEBAbpCDSacZIwSnLu7u7R21D0hze5/N5lRoMJRglu79zm+p038BpjRrNt3nrvZfaOrqN0yfkzj7Cx/gDbt9+hLCRGxJRFRm+9gRAuaTbh7LktOt2IyO+itWQyu0ucDkiSkkazwbWbN6xg8AXIhLABk9kEpRRZpkmmiiAU9AdXGR9M2O3v0Wms4fsdPvLUp7n83nV8r8Nf/ov/CVo1caTH4cE+R/09pNCs9S5yd/cOzn/26//V01SEVpM/LDVW1X9bMNy9oH5vybG+1mZBMMvEe08QC8adO+uFOKaATzL8veA4gdj7Koaw6VqmO+koWw574ks1fa7APN9VQOttPgl6yaBYpLv4uKiZ/x7xl+ui7l4bdIXV31yY2zTnbVAzb4W1k7N+WbeTWap/PU+3DmYdgsvpnNT49cUCjQFl7MQmgx2aNMZgtEGLKvfGdrdsVNvudZ4QtlVWW+b0WvowIOY2pDaKUqe8fv1FMB06m5vc2XmfYlZwbutB7mzfYW//gFa7RZyMuXhxg2YrIAgClFYcDfc52B8Seps8eulTjAZTppMYISRZNsP3oddd47C/z3Q8BOOyuX4J8JhNU1wRIfBptbrc3r5NEEqiKKDMBaXOMcrn4x/5CmvdCwwGhxwe3KGMSzIxw5OScxcusL51lls3dwnDgCvXrvLkkx/l7bdfIcuO2D+4je8GaKPI0xTnb/zabzxda1Rhu6ArFbPcvHZyyulgIx7v01dasOpUHqOFVZPfVHGMwaDRhorc7EtjasKwTsTjuTqJNUHcmyw+SJTd/+0yzPNT02L9/ES/vMrbIpPLl/Pfkzd13S4zXwV1H92IyuqqEGktuEqgmxMu0QXasAJdt1nlh6nLsviefbBg8rrASwEr1HpBK/aRQRttmRxT+TYMqlIOVghUQqFu46V21mZh6Qh9fMJUTR/2c5VgWBFENRwzehDWfhAC19G8/c5rfOvZfwmBx2c+8WUuXXwUT/Ro+Od46KFLpPmETqeL0CEba5d49JEn6Q+OeOvdV+n22iTTAs9Z46knv8ilB59gf38fx9M4rgIZc3v7gCxPKIsC6Rak+ZB2dI7p2GV9fZ0HHniQsjDkec6gP8D3W2R5gSMCet0OQnk89bFPonTKwd6U7SvXmBUFOs84GByQFDP8UPHgQw+Qpik3b11BOCmeV9BZ8zh/oUdv3SEpbuP857/2G09TW23VL2jququ1fm3G1mRgG3+ZBG0n7hhR1vd21oYFUT9dRdsqNZEs/mxjLTvC7pXCUkqYuZlZF25OnvP4y78n4XTCOQ1WGb4GVTHSvZzec3fISqFOFxhirp11naap0jg1vEW1FEedwvQGUAJUVds1U2pRMWR1v5Q9DLa882uqB0uw6L4swlINMSJsd85UOL+vw9btvVw/QoBRc0G+Wk5Rdy/qsEvfnudh9ZmRaCPIs5RpPGGvf8AsjXn3yhvk+YxWcw1P9giDJrM44WMf+zjPPvcc77xzmSef/Bjrm11wYg6O7rCze5duewvfa/HSy89hiDl//kHGkyOUmQKSokjtd1VIHGegNb3eJp7n0FuLuHP3Oo2Gz+c/91mEdOgfThkPZpSFxncdPvPpL/HQpcd58eXnOX/mLJ4pePjxz/MX/9xfIy1G3Nm/RRhKdnZu43iaLO8znt6hvSYwYkShJgjpkhcTnP/i7/zG09bUtX5RKWx3TYhq7LVm/gpsvQpryB5va/t2PoQkKgFiSaMmkMUsMJvGckvMtfMyp1RjrHOiqNOZ/3cK1BmrmL8mDlhcmGN5r/OwBPfxds/zsNyNqe6XYW5TLIoIywJozhCnoQ1Vp38Ml4ZOj31/Ba2gWJjL90OWBUitbZfqW7MQUMfawlT5NUt0IioHwzH+q/7m3ZjFsLylsWV+XYQ5lkZticwVxElkuatYdxVOaUtR5V+h2B/e5tlXf4jfbpNkJTrLeP31F3n5pVdphG3u7t6h1W6T5QWf/swniZoBX/nCV8jLgm9857cJQ5/tm3eIIo8nHv8IUQSZvkNRjPnEJ59iNDpEK4mQkvEoxiifZFailI/jOMySPndu32bQH2Lckjyb2LqUJVmR0gh9RkcxQrUYjGd8+nNPce7cBZ7/9g+R7YjmWZ/DwRG6aDDoJ3i+4OGHHuZn/oNfYDS+DWKEKzuEzjnyIkXrDHFzkFvyNQZTtbSZE42taG0EaCv5FZXNNTfla31QV35dxZYaamaoQ80XlawsVBEVvVgKWqRpW76Ks3hyOtiWnxMRS/1sYyoPxhJDnYBFh3mRYVaFRPVsblou3q9OW9WcvhinTu7UPFRgKspcFSb23eLZKVk7BidjL6BOZnVOg1g0hr2v63TuMKz8IlWwukmFqGbmzYdErbvYlqOyAKr7D15cVBGiMIt8yqp+9dKo0zLYBq4ERjVxiIomjQZhBwthbqAyzYZcuXWZ20e77O33Obexzrg/ZDKZcvvuLfZ3j/iZ/+CrCOkwGA3Yvvseo9GAiw88wQMPbJGVB7z2+nMYVVKUJevrm2hyhDskTgbMpiWPPPQku7uHCCHZ29vlcP8Q13GR0kEIwZmts7RaHbQSSOExm8V2Xv3wECkkvmgw2I95/JFP89hHn+JgfJvN3kVe/+arPPWzP8HQ2efGu1cxWYbng+tqemtNWs0tpBDcvXsFzwlRpk9W7OG5IO4Mc1P3r4ygEgAVE1fPdCUQFqZX1Rc3oGsOMdb7W40BzKFmjzlLzBv/3oy/nIYlltWGtu9PEnVNljbeCYKef+ODYS4DVujTYBOqy78cZpVJP8iLcD8wonKgzdO0JGwvl76zmsEfA+paXVh0Nt1Vxq/rtWZi+94+laYWrpWD1Nh39cBM9TPPpxUelilXq2du8VEz63Ie7AQte3lameuRqPntQtAIU5VtbkcghA1/e+8Kb7z3IoNkRpIKGm4LXzgUecH62hqmLBkMhhweHvJzX/053nr/Of7b//6/5uOf+iSNpqTV2MDzSt54/UdkmYs2MztVt5XQ6rgIEyJ0j7KAoixIk4x4FhMGIaPRCK0UvdYZRskMP1B89KGPIsM2V6+9jRSWxi6efZDRwYz33rtKd3MDAhffbVHeVWx89HGC8x75dAfHjAgjwdtvXmFtfQPPbdKM1ilUn7Ic0OkWJHFBMjWIu8Pc1ItHbH9xiaCXGb+qOisUxNwZY9Dounkrh9w8rFhowROrce/B+IZFGvN3KwxcM8PxUAsQVZw5IS49X35/P7gv488J017XZTtFOf+R4STjy4X4/DfN+MtMW3ULWWoza75XMyeraKKq/MUiHdtvtMt09Xxcv4Zlpq9hyaYCuIf9xLxlzbE4y6+OE8Fyl+Ty9Vf52jP/nGEa02g8wCef+El6zTaz8YhW1GGj16bXa7B3eMj7V9/nvWs/5K0rz+A3JOcvPMRkZHClpBmF7O7uMZvNuL17i8eeWKfREmjl0mqcAVx8z+Pq1ctMJzGqhDNnzjKZjBkNYuI4p9kKECjCKGRtbY1SlYRBiFQuvvAZDHeJi4Lbd0dsnX0AbyjouwlPfukhVHpAOc3wvAZXr9wkCBqUJub8hRatXkyZKoRqUqYtAreN87f+7m/Mh/OoGkxU4tIyzwKXa29uqtXvluLPRe08yvHhOAuLljfz/xbXNrx9eKz5xVLjVWplkXZ1j6gSqYlhgYtwJ9+ZuotThaqvT8NjcKJsFk6E+zHgvtbC0qu5gPsjIoIVpqv756u1tehzz9u3fj83r48/qx/Zd5ZO6j591YiVDrahhLD94Hoiz2nDrMe9Kh8MJ+kOLI3YtC5ffZPDwRH98RDXddm/02c6zHn44mNIR/DEEw9Tas2Zc+fYOnOGwgw56L/LeHLIeJzTbLSZThLOnz/Lre0rPHTpKcrSJU1T4jghz2EwGJJlMZ1uA60zjIbAazGdpkgpCSJDtxsxGeaUwqHV8PEjQZKPMCYHrbl08XG2b9/ACE2jFXFwcMRGs8VY90ndA6ajA6R2UaVLqQq66w5BlONHM6QsMDqgzCJU2sIogzTYPpSoTLZqKkXVOIvBueXKto1QO2oW/vz580oL1BMtjguN42D7yvU4rh220UbMh/M0S8N3S959hUHrygLR1aSjyjqsw642ulmKey/tXH9DUaW1lGb9fjkfeincKtiy/NHQWl7LiS5d15kwJ4Xzj4M1V1pnYT2EVtX60nDZsbJXgnXuOBO2nawVaIcEbZ1UFmHdGNUzbQxGgzECVc2RtxRQD+ktvmlwjn1PaSiVRmk7s0ALa20dawsWeay7phqBFhZtPm2+tBFI0WRz8wJnzp5nMBrQ6LX55E98it3xLgkZ+9MJz7z4Al/7ztf5x//8v+XFV58jVw6Os8HRwYwyhyeefIzrt94laka8e/k9up0eqnBohOvkuSJNc9Is5q23XyLOBvTW2jSbTbKsZH93RJZoHM+h0XbZ2mghXIUhJ4oClMlJ8jGuLzEERI0OSRbzkY8+Rq/b5dKDjxEFa+QZIDRPfuwsXmPINO4DPkXeYDpxcF2PUpVkeUqS9XH+5t/9jaftjK2FxDbV9ZxIauauxK6VCfdiZhtnTiz2ka3pY1Eqqpu/txdz8hYs2du2OQ2WKLRSaK3tZBCqFXdLDV5lcC6uarRP7UiCqYetVrDmtTnzz+OeZrXcG5a/+T8niPsI1T8pWGjl6r7W5nVVLzdVdVOrjPqZHRqsrivhqzAoYxlZaYPSmtJotFrc218oNZQGNBKFsL9GVGgnBh3HhRDRxth5BUvj/6p6ftjf4+333kDJklIb3MilvdUhVQWf+OSneffKdV557VWu3XiT7z33rxkMdylz8L0WnVaPa9eusr+3h1IF02lCEPpEDY/BoM/O3QOiMMJzIzbXH2J97TwHh/vs7R4RhS6tdkSRBezemaBUyYUHNzEyxfV89u5O0WWTeAJ5puh0WgzGd4miFq3oEs12QMtxef/uVVpnPAJXYYqSwHc5ODoiTxzyXNKMOkjhMugPQbvoUiPcAc7f+tt25p5tSDuFw8yNrxVere/N/L+K3awEt+HtrzE2cPUzD6fn6rOyEyqNbznFMlctzeeMjNXoNnc2h9YkkRaXNXPFuXW8Ze24YPqajJdLeRwXfos6bl3aZc1yf/w3AX/yjL9UrxXOFcMqLBV2ucwGMMJqfl1bPtWvMqCquYBlPSnrmPC1DGkZumZuB21ENQ/BauxjTA4oY93MNQVr9HGLzVgatRaVgWoqsuPD4WAX4Rp29u4ymR1w5fI7zEYTXn/1TRqRj+PlxMkBiJKzmxfY2T7igXMPc/bMBnt7N7m9fQejfaIwIggMmIxuu03gN/Bkg7NbD/Glz/0y/f2Mo6MdssQwGs7wfA/PE7TbLUaTAdKNmSUp/X1FHCvCQJIXJfFUs7t7l2arie+HrPXWmSWH9PyA3cldJmpAI1S0gpB0lqFKSbt3Bi00STYhCMHzJDoXxFNFEGqcv/V3Foxv/W2L9dk1zG9rpl0aR62tAnu9EucUehHz9BZ9fBtMLjT3KfGW01pcrniIKhA1/1ZpzbHudlQCieO0ewwXiS3i/7sIf/KMfxrUwrqG1YY+3vYI0FKgrUxemOS16S2qrl3VfPN3wgoMEBjhWAcn1W/lha/DLCNghVNtjcKxPRfrZwaJRlQ6Q5CrnEYz4o23X0GpjF5zk43GRS6sX8RDobIB27ff5MqVN2g0AzrNJmVmSBN46iMfx5AzSwb4vs94nDIajiiKMWtrHeJZQad5jijY4sr7N/nUx7/EeJgzi6d86hNfphle4Pq1m4RRTrunWOuucedGzl/+C/9rrl25TJ4XDI5m+E5A4Pt85YtfRauIq1cuI5wBk9mU25dvEayHNM84uK7BMyHkAeNJTqYyMjVk82xEo6kQskTlHqiQSw8/grg7yOejIKoybqvR1znUfaIazJIGrLWfOkYY8023MEZZLV618mL4z1mMIlQtI6p09Upaq1Br9ZMjBXVCLChyhWPtlk9W68Bx5/X9oO7yLLzWqyFOwqoAXYUPk8a/UbhHZYhaZdb3y5L12DObRMWDmHqnzXskbYRGVPMrLNPanZdsmwlrbWAqJj4lgZVc2O5olR6LruWcVjUorXBdByeQ3L5zm9ffeJ6dg+sMhwNc2eALn/lpPv2JTwMOrufw5rvf54fPf5skibl+/V1Gw5iiEHzly59nZ/cKg9EeRa7JUkV/cEQYGc6d22A6gci7wOc++6coiglPfezjPPOd53j7rcusb2zx2GOXaLQljSY02iFpmuO7DRwk01lCGLQBwWwywXE9fD9iNN3jX//ePyFqpbhOh4vhBtcmtwkesO0Tlh0eWHuE517+EVuPNAmb0GgYej2fQX8ASYOd7YT182uI2/3sRI1a42sB92N8U/GWnlsBlqFUxXAflvENCyb9IIb5ILDCyFiyWErLWif2+v/P+KfAPSrjx2H8xf2901vAgvGtJSZwqq7FsZhVOguXj55va3ZiCHGes0qhzC0NS51379wmS1KM6+J4kn/5tf8n/cOUtd4FGlFEJ9pCGhfHdSmKnCAqGE23efzxJ+g1L/G9HzzL1772PyL9MZubPbY2zrG7e5dSa4ajPkHk0Om0iGcl672LeE6E4yh+5k/9Iq+98j7f/s43EG7O+mYLIRXNVpOPPPUUL/zoRR64cJ7ZbIznBkyGCWlsRw1m0xllVhCsuYwmd2l3JZEf8iuf/0X+37/zL1h7ooUyUyZ7Cee7DxCrBHctxfNzwijA932EzugfjnH9NjdfnuH853/7N562VWIrp6riJcT2q6tZUFUV3/OqTqGWu/VVfT93FInaM1RJeoRtxCpaRQen4geCsERgwy97shdB5iMYJ8Icd07WMGf8+f1KgA8LYrEt2PEUl8Msprye+v5/Nqg/ehxFXf4KqXYyOvbsWJyqfj4w63NPzDwduy3XSptXnh1Z+ZEkdnKW1fCL+DWI+X/2tzb6jFG88eYrfO+H3+Dg6BqT2V063R6h16MZrfH4I08ShS0++alPc+bsWQ4ODnnn8mtcufYWL7zwAjdv3qXbahMnQ1xPc7C/hzCSxx59hMGgj9aGohCUuYekQZ5q+oM+uTrg4099lsFRzPadd8AZ0OsFGK146MEH6R9cx6hdKGL2d24jdI7va5Kkz3B0SJEPePThM+xuX2c6GNNpeIRhi8fPP8Lto12CjkTpKd2Wz9H+ALyCcw81MCbHcwIc6WEKBwF4bkAz6CK1th7PejWVMXZl1fKzD2pAQbUD0+qLJbjfux8XVgXBCVyN8EeA1TRW7/9/HWxfeoHH+unzvvYCV8HSUjUkuWL6iGr4eFm+CcAxS7sAzLdPt90zKezaECkFjuvgug5SLgkgafcStPsJWjqoN+0RlWDQWvORjzxGs6158ZXf5aU3/zl3Dl5AkfDZz3yR/b0BFx98iIsXL+I4Hnmu+egTn+Pv/hf/gD/3Z/43GFPyzWd+i7s720gaPPTQY0xnI25ev4nrOvTW27Q6DfzIYxzvc/ZiyOMf3SBqKDzXJU0LfN/geZLxcIbvreHIHjdu7YLroL2Mj3zqIvhj3DAlakNn3cF4JbmMeeRjj3L2oS2U6zCeFiRJBibH81KMmBFGDucu9IiaDkonJOmU2XTK4CghSRXtxjomhnBDIa23dXkMtr6uhl2qoRAqr+iymb8Mtj9n5qba/CAF4YCUCKntXOuaUISpFo5qhFALc67yt66iYEEtcwFV5XEVzTHisn3EY4jdu08I6804HQXOEtp8LYRLnYf74TFhJI1FIRb7/53YQdgS65zoq20wPiwu19Eq2rKejo5gjlJWi7SW0Eo9tYR66fc41Jq4rns7pRccAw4Cd16n4Fb3nhD4QuIKiQNIWe+haBCy1vCWecXy9l0SnIrhhbDSRuhF90EvZU8Yg+dIwsDn7JnznD/3KEK3uPzuW7z86ve4s3ODovBJY8Pl97YZDXM+9YkvsrN7xD//nX/Gjdtv47em4B2hRUxvvQ2i5MzWBdZ6Z5FujhuN0P6AuDjgoScbyMYuqbpNqQ1+0EaXmjzLcBwoS3j43FO89tK7hGGPKNwE2SQrIWg2kb6D13Q5d3GTsw+c4dadfW7evk1vs0t3vYGSM7zQEM8SAt+nETVQRhNnM0Zje2BHEEQoZXCFg++5GBEj3JzR0SHO3/i1v//0MZE9F9B1BwCMsRM6qI2uFWk/N6Uq460WDPNkbauA7dVVD5dA1P+d8q4CsZxefXGP4HWf775w/yROgPiwAZfgWJxT4tvuwykv/jhQJWdqE7hiRlGPaKxA/awWUPPnS1gz3rJAqjcudQBpqpWdCFwhcKTAEQbXkbiOwJcSVwo8KfEcgV9fS4knJJ4QOMLBFc588Q9L+VkIz2pKmDndymC5miv3ztzXU1kGWpe0Wk3KUtHrnuPBCx9HlT7bt28ymhyQJEM0Ma2O5O7eZYaju+wP3+DFV3+bVjfF9Qva7TXSbEyphpjSpcg1vbM5IpyRFgkXLkX0NmAyHXL39gBJm89/+ufYubNDnG9T6oRPfPyLjGYjBsM9ZrMpZZ5jjEKrlDwvGI1jHNclSac4nuSBCxfwXJ8kyRgMRzSaAU+ef4yX33yLYTwEqVGlQBgfTUFhFJ4nUQWowmC0YDqaIUxIPBFIjZzPaiqNHVu146L1OGqt+TUFhrIafz0NNQat61lf6hjW3QbbiMf7hxIr6Z1ayq+8n4er+4AVIZzU0gsinWuwZa27jJUyvBeshp8/X/rGapga599ezlO1Ia00eul62SJZslBQFoVeqqPjFshpWIeZ/9Z1Z47LndoEt2mfUj4DjgbXgFel5Rq5QCSeEXhG4CLxpWXmwBH40uAJQ+Da+8AReBW6EjzAFwv0pMARsrJYFMLU/o8aF24RqW2+pFk8ux8IUTekvTfawXfbdJpnaQTrZEnJtWvXaTQDNjbanDnbYWf/Opk64tW3/pBvP/vf8+7N32V39H0eeaJFlicMhhOu37xCmk9Js5hcTXH9hP6gjx94nL3UhGBCKWKSOMN12uzvDzBa43o5UStHCIHrCa7fepm1LZfzF3pMZ33SJMF1fFxX0ukECAy+00GlIZ6zjus0MZRsbnVI0pyXX3mTdnODTmMTlUt0GZAXHqp02Ox18KWDK1yMUgyP+jSiFkHo0+m0Ee8fLLz69TDZMtgpnJXmr+w+rRfLaObuwOpBncTyCtXaey+qcdfaIwtUEziWvytOOUHHQi3lV0+TWYVlQjdL8e6lJe4Hq8KhTttUGuU0WHRzTvmgUPOTiaiJcxXmH636yEtprsJyXS6XdQGWuaEKYB8du5cYm04teERlh1SSumbAOqpgkXF7b+xOuPV1pWvBIKuYdb5qB139wC5GEtViLqscdD2iV6UiTozbLpV5mVQqIQo2Y3W3zwhtl/hoB2EgzcbsHWxz8+5NkB5Ku0jHZ63X487OdYaT23znu7/J3sG7KIZsbEXowsNojSMa3LlZ0ogiWi3B/p0BD15ap31uRtCDwXhGMlWc2dqgTFzGhx5Hu1P+o7/0v2P79rvsj39IMmsTZymFHtJstAgbLoP+PkeHGdOpxHUdHnp4HUNJEEaUuSAMOiRxRpz2Oezvo3XAZy98jlfffgd3PWHjgQ5xXJInBuEk+I2E3ppLGgvGA02vs04a56Sp4ic++2Wcv/Hrf+/p5YpcgO0x1w09b+ZKi1APw9R/1fN6AoaY9+VrGqkaT4g5UZhqlxez1DeHBVGsMs48LxXz1bjoD9dm6ArWmVh9/mGw1pwraS+ntfztY2GOZX5JRdVrxZcLgZgXTFSMXn/z1DKtfENU1tRyXbi1k6y+F1brutL+2n62qa4NrjA2jABXgBR2try1cKz57giNI2urpuqLO8LSygkLq2rnJUGw7Cey7b7YWchQLbU3iz7k8qzBhby3E4BMJRjt3P+lqqSuV3uKh0EhjVOtxddEDQ/HD7h9Z4cb27fZPzokLzMKlaJNwWH/Ou1uBu4Rnusymxpc2aDISo4OY5LExfUkRia0u22UN8ZpZgjpYoounmnS8CMoPXa2xwReyM/+3K/w9W98w04gcsHIKcJJ6ay5IAsazR6u69FuR4TeOts3DxGiwHEypFcQeBLpQlHmjCZTplPNRvgwk2lCZ8vFSIUjHSbjKY2m4OwDDqUuaTW6zCaKeFYwHk7YXO/hSo3zN3797z9dN8qSjJxX9jGombpmtiXTu44hcKpWt4y7TKA2+uJgC8uQNlydVp2KDW+dhMv8IWyzH8ursDazHfKh2gSiIj7bN62ul03vD4vLcQWVRlvemmzxbj4ceYz4azzJsMefLd1XjG7TXD4w5CQiTOX1rvrXlYPOXtt7242y+Vw48gzu8v3SdV2WRZlsHUv04pmsHaR1uOOCqG4tSxfVbFADRth97GvUFUMbYZm+qpmldBaghapGFOTKm0WsBQkJ65SWxjosHYOmIFcpSZohXMn+4A67RzeZZX2SYsSNW2/zwsv/gjv7r5GXR2TZBN9rkiYa3/MxGtbXt/B9F23GRI2MwWhAu92m0WgzPsqJhyW6MORJhikhmWWMhjM+95mfZHSUcWP7GlqmKJ2R5THrW10QLj/1xV9BK5c7u+/T7rgkU81sCnnqEoUNhCzJi5S9vT06az0aURuPBv3BIQQpRpY4UhB6Pn5QErYL2p02aaxpRh2iyOXBS2u02g5hQM34dV2d1CjHiLUaJ5nf1/GWNdJ8K+zaIlhCYc14WXFDTeROvdnnXADUxLXKPHXDWnNUHuvT2oMYnMrMkBUxi8qrLLFCxHqZbb+3jiuFPuHplroOL+bPrJVTlWuuSWvtvFhJsPCWLzHpavoYnOU0VoSNrOvMHLe6lnHu78BqbPvMPpeVJ92mYZDGWOam/hU487pZ4Oo3FmmaOXPbskvbZlX+67C1yT5XBdWI0NxKM9JeLz+r6ai2Iuf1fNxaqGyf6u9kPmGZ8WsUGAlaZtw9vM4PXniG3cMRftPntXd/yF7/KspM2T+4SW/dI2ykHBxtkyQp/f4UYVyEkERRo1oFaihLTavt02xoTCkInQ3KWcDhnQlloui2uxgl8T2HLB+iC5cvfPZL7O+OuLH9DlDiOD6tdhvP84iTjOs3rrGzt42UgskIptMxUgoGhymH+wl+WNDpNcmLgrzUuAIC19Dv7+OGrvXB5SXNZhNtElxfY5RLlhYIAUbE+EGJoWQ0nCHeP/gQp+VWYKpTck6DuX+gnna7YjXUjj1dLSWdWwhL/fWFVXf8G6u+B1WdM193heezuOaJWm4QVDRTEYDUC2+CJdb6Oye9RPXmI6KeI77kjbD5qce6qjIseZpOq6Eli3UONt+LF/P8zu9tTd4LBNiulVgItDo9KzzqeqhZprJW5vVkf+oqOl7LC7BzuhdvayG92i7AYmZmDatBVvw3tl5sRo6nV9X1Ur2Ze225VcG89NV8A6Sg0AolSib5Ht/93u8zHE2JwgdpdZvcuPsDDgZXyZKYIstot5vkmfW0K50zHQ/JUxejPCajgrVeE4wHuoErczY2JdNxyWBf49LFmIySPsYpWOtu0mgavHBGMmnzH/+VX+MbX/8W7999leGsT9jwcEONH1hryvNDRsMRmJTRsMT3fBzhEwYdPM8jaKXkKmM8GtNZ6zIbJ1zcOM+NK/sox2PzfJe8HLO3N2ZtTXDx4QZSBHieTxLHuB5MxyOEabJ3O0NcPkxXm2bhW1q5t4smToe6gerGWw03b9QlM01YZbAkBKqwS9bEajoAuloJMGf8qslrDUL9iSVqromi7gvem4QMzE3UKk6VHetjsoxT2zM2dB1vqVCnwXKXaMlqEpwsqKyTqb69EHKLMGJpWEssvazLKquhsZrt7buqQ4ydhLMQfqdBXbKFA7ZORZzIsr077qi17V4LCfu78r0qzzZWJTRMpe+X1nEsBVp5Vpe28glgj9wqtEY7JYf9A/ZHN7i9/y7bt+8iXcXd3W3CpuJocI2yyEnimEbUsOfU5znGaNI0xnMdhoOUIhd4jj3M0jEuaQpS5HTamtBfIxkHmFKCzPAaJblOaUdbhB74nkM8VXzxc7/IG2+8Sj/dJqdAeBnj6Yg8L/DcANfx6W34yHBEWZSkccRsqmi2WrQ7EUU2A2kQQjOdjvFkwLm1NQ52p+zsawqdc/Zsi9KU4ORsnRN4riQMIybjGYBd7py7oDqI9w5PztVf9SDXDGXu48muHa+naQGWn8+15OKdrgmqfrYkYE5Nrcrgafm0FwuCApvIKnmfzvjLCR6PUWv++iOmWmpmVglRLDaHXM4CZk6b8/q0720guaLb66hVtPm9oNLiK2U39uW8rLYGa8ZfKcsiBmC7Bqe3m62l+kCN5Tws58/+nhZ/UQAb/rQ9DerSmfk2bdbIr/r+y+lWl8cU/zzBJZqRAuEJrt+6wuvvf5uj6XVu39lhff0M42mfg/5btDqKyXhmveBITLV2uMg1Erfam9PBkR6TSUISz9CloswNSRwTBZL19SaO8DD5GlJqlE7RriZXOc2gjUoFvtNkFk/5X/6V/4R/9k//Cf5GgQgVQdPg+4LxOGNvd4jWCuGW9NY7KJNRlopSueSFIop8Ws02rjQMBgf4gR2Tv3R+i8kwYzzzUOSsb7TI8oysyBEyw5iUS5fO47oO+/tH+G6PeFLy8MWPn07/pzWhJaN7w6L6T8e5I/CURGQVse7Di+qZtNbaSaz66suw0P7V9TKuwAnaOzXwasSaHC3cb9af7UPX5rctU91vd3Q1i636dbFYx6vLPq+3lWvrXV9sbb7sM1juGy/X/fHyVfp7ycFmbIFOQfu8tk7mf3OfT21rMR85OIG1H0NY38790DojpfV9iIWvx0oAi8ZohLKItvfaKLTQKKEohGK3v8PeYJ/96Q3evP6vuLL9DGnR5+XXvsVouEccj5mOY/JUkswKhPGZjlOODkckcUaeFUynM4q85GD/kDRJ8aSPVoY0y9jYWKPdaSKFR7MVUKoZRZmjCkPDa9NrdghDhZYFk2KXhx67xFe+9BU2ez2Myjg42ubqtevcuXOIUjnrGyFbZzo0o3WmfZ903GR4WFDEDk23R8NbwyifZnOzsjZ8XEfgeh5R0+XsA5LORoYbFLS7Hq12SDw1qNLDGM101scPDEk8QZUGI2OkWd7uaGlu9fK9pn4+p/sTIOYTUu6PddhVOP6sItITHGxxNc15useSWBDLcnnEKeVboFrUwXI+5rjEhMYynYP1bNdTco858qprG8b+zrEOZwzu0nO3jldh/dx6V0w1Vdbmx5ry90LrbLRhj4+CwGrd6PnszONon1NNMFoFW+7qpNwPwLrilgWSxUVel6cti7lTFFwHnGoqsxUMFSJwpcT1HKbxlJfe+AHPvvY1fudr/4TvPv97fO+F3yUudtg/ukl/uIvjGPYObtBshKgchPbw3DZHh2PSuCSJC8q8ZDaLOToaMJulrHU3aDfbgMFzHbRSTKdTsiwnDF07ZOnkOK6gyDVlbChnOb12h/YGOK2U8xfOcGZ9E2EEvh+wvrnGuTPncERIkhR4nmQyHVAWU9bWfTa6LVruJtnAYfvKkGLmMzrK6HXPIQgpUgeTB5xd/yhb6w+TZzFGScAnTjRGO5w51+HSpR5ZluB7Ea7nIJyY7npJYe4ildF2+6N542v0ChqzfHraHxOWOfVeMCeSFS84BmfJJBVLYZH1vnEWqeanr+JJZl5GoGJkG3+hrY9p7Yroa0nnGIOjLUqzHM9qMRc7Y80RloCd+Zz8Ku0ljS/robXaEliaCegCUmmEKuw3zSLvYkl4LFsmC8ZfLesizKJ+TlP6x60HIao0qzqq8bg1UMc/Wf/3w+WyyEqoOI7AkQ6u4+B5Es9b/Pqeg+sIdu/e5fqN93nj8rf55rP/DTf2vs33f/SPGM3eJwgDjNHkxYBWx0U6dmqs5wWUZQlG4TjClkNqpGMARRAEjEZjDo+GgMTzPJqtBp1uRJEpfK/BdDYmyyGMmvQHfYQLQSBZ73Y5OhwTtlycyOX24R6D4QjhhJTaY9CfkqYlea6IoiaO5xC1PKKWxBCzf3ib4fQA14UnHn8Qx8kZDA/5vX/1h8jSwRcRyUyyv52w/f6Y2dAjmbQZHMLh3ox4ltBqOfghJEnCbCII5FnarQ0EEfu3pdX4teSfr8qr9ylbQlP1wU7XDAv8YKgaeFVlLxPREpMdM6HN8amo9rcixlWCrZlvJY3V98cJVFgtWjvsZUWAFQNaBjXVeHbFKJITY+1C6GrcfFULLxM3cyaxQs6iMx9yXCp3PS1XVhquXsyyLPdWyznHZTN7IWwsVnUoq91tVxfoiBWNXte3rJie2snB3AFo9Pzq2N+PC7Kqc2Rd58bOehRF1VYao0sKlfP+zXe5cfddlJhh1IzDvZuoYsJ0ekgaG8rC0F2fgTPA9QxpmuF5HlpnzGZDfE/SW+uwvt5BSnAcSTNsII3DeDjh+vVbpFnCLB7hy4izm48ynRrSzOP2rRGzmcb1HYKGxsiELMsocoVjmhSZS5oLBv0Jmdbc3T0gCns40qfIC7IsZTCMyTOfWaoZTKfEZULUdPAaksH0iL3BXTprTR599Dy+5zIejnnqiY/RkCFnOxeYHhm0FhweHZJmCZPZkP39AaqIMEWbbBpy4/0+29envPPalGLaRVppbYmk7vMxJ5oFsc4b74SbdRXvD4s1gMvEeRIxZslErfGUNEyVT7MIJ7Anrq4y3b3x+J8dl7dMI0S1qo5Fn96GWoq/LESqP5vPSusfC2t/qYVEpfnnq/eksavTKuZz5OKd1UrHcTkfyxqzRmut1JOmVrHOc4Xz2ZgVHhOKNdbvV3wKp70/JW+reL8w9TqG+t4KRAHCkJc502xKf3rEtZ3XOZhe48q1t9nd2aHZiJhNxwyOhuztjFlfe4A0AVcECKDMi/mUcqUUcZJWY/SSRrOJH4RkWU6r2abZaLG5vo7nOMwmEwZHE65f2yHLSprNNmfPnGEy7SMdQalgb3/ArVu7FEXJ4eERURRxdvO8XbHq5ayflTRamkLNQBa4nkQ6DkYaWu0Onhfi+03cIKS17tJoeySJIkvtqj7fc7lw/gK3t7f58he/BNpOVOqPjtjYahFGIaHfJQo2uH1jyu2bBbdvHYEsiCLB2bMt0nSMtOZlrRUsOkLa/qWsVlrJakZYRdJWMeuT+GEY31TDbh+EqxGPQcXcxlS/K4LkFMfRh8V6iK2eWGOJcjE5pwax5MBa/ZvXEyeHQUR1L6VEUPUWRK39l7QqNROu/B0Lt1jSu9qnnj+fp3U/XNSbYJXRl98vp1XV87y81fO5wF3N+1L7LCFLvzWIZWtnyfpxsBPEjNYc9Q954bXnee6V53n/9svc3H+D0qQIIdm5u4MAtDKM+jGHeyN8t0OWasqiJM8KDvb30SUEfo/JsKR/mBAFXdJEEc9SgqCB74d2u67CDuH6rktzo+CxpzzObniUxZhMTGj3PNY31phNM4y2E36aUROjNY0oZHf3fbLiEEfm1uLIYsJIsXXeJc8nTCZjsjxjFs/QGKKmT5zMONwfU+Sa8+e3aLYiJpMJRmuGwyGjCh0BQeiwvh7hSINQmsBpMh04OKbNxkaTzXOGBy5FbGxEuNLwyCNrSKuRrKPEelVrM/rkLiui9rKybNpbSrbTRpc03z1wAacLCRvm5DsbtZIKc6i1RkVItYPxFGL6sLBIy6Z7OizKfS+o81sLi3mehGUCa9GcBsvC5YPhZBt9eFwwbcVsdiZyJWCW2225nk9n4g8Lq/EcIRDazia06wTEvBsjK8Eobfe7GscTZHnKcy9+n1fefBHlpDz6xENMJwPGkxFKa4IwJGoGaK1ptkLyoqDI7Rr4Ii9ptlo0oghXGB7fPMdnP3KJrW6LdJJTpFBmCkc4TCdTzp3fQgSaxprH2tk2zbZD6Y7ZeqyN33bwXHC9kv7okFanieN4ZGnJ4GiILiGZJiTTA8ajXVRZksSCotCEYRPPbRK1PC4+eIazW+dwXZfRaMDaeotz5zdJs4z9w10cP8b1Mtpdj6gVkmQprY7Pu++8Q79/gGMcdCIITBtHtdndPiKNpygmuF5CGAUc7I6ZzqYoM0U6DtIOtWik0DhoXDSOsHOy53O9hfVCO45AOOA4WKeLI+2OKI4lDiGw/d/7oCUkUYXXJ3DZXF/tsyLsRhD1M0QVRsgqv7UnvPqe0Ah5HGWFq/cnnld9dMscNXtQabN6iu/J8skq7xy7rhhLSKS0VpW1agSIhcCyaS6X2X5rGZednX9cdI3F+fdkZekY++15F0tUff25z8RaQ7Y9K5xbG8t+geXnlSUyt5QqJ6m23/ekM1+jb30YlV9jboEKtMkp8gmXr71Go+cSNiXvXX6NtdYZtrrnGPVHgGSWzChLRaMZIN2SdjvCc0PyvCAMI4qiYBbPGPVH/MQjH+Wv/8Kf4qc/9UmY5eTjDKd0KZIcgFyVbF5s0zknyf2UTGhSZdjeuYMIxxAd0txwMF4CXk7YCvj5n/9V2s0zBLpFeligYgdV+ggVkMSGyRT6g4TxdEoQ+RwNBuzs7pPnMy5e7OIHOV444yOfbPGpz63TWzcgJiiVMZkOcQMXJVLOXNggajYpS0Ey8djfVgz2SjqtLo6rGfUzdrbh8LYm9DoETpN2q8l0MkbaMWGLdr774t5y6XERLYRASonjOBZdF+k4i0Y/0Y88jguiuT/+OFoEjncTKpY6FavQi64Ni3LX1w7WDF9FKep0Pzh39wpxzGD5E4Dj5vTpfx8Ekmr0oP6V1gp0hVPVB0hju1bLILBz/5fbay7EDHadw4pbYhHX0pYWIFyHtCyYJjHD6YRZkZGjKQUYV6AckL7EDzU4Y37w/B+wttmmt95GkPC9Z76BLnM21tcJwwBjDFEjxPMFzaYPaHZ2dinLkjzL8FzPngPhNIjdn2D34PNk8cMI5RE6IXlaoEuN5zg4yqHpBAz3xsjMYS1qk/QNMg3xtSCQHoFv6PUEUcvFaSpu7eyQl4JANQmTCJFKfNllrXOOMNSsbUpaHYlWisFghCblwUfaXHiwS3fNxwsy1jYdgrAkSRMG/RR0E126tFpdpOchgyZHkz6FbrI/mBF0c0S4z8Y5uPBQg2bbxXEde1hnAXu7I8ZDjSo8XOnj/B9//e8uluXWCyyMgarPbh0s2L753OyrmWHRT5w/q/uF8wM2VvGP87dk1i+hrKRFrVXs4pdayJyO87jLRFlTL7VWE8c05PL3rU/g3pNSlk3quWARtdCr0l4NOy9T7VNgntvVP3dJc34wniy/ZNnkt+FsFSz3062FYZn55LfqHAssE8uVPvniW6v5qapa2G2zdg4OGE1HbO/s8IfPfItvPfMMr7z9JofjAYejIbfubJOXGb7rs3845s333uTO0ZukZcKlhy/w3vuvsru3TVEUeJ7HZDKm1Clh6BP4PnleEngerUYLiYMqNa6QZLOcTz/5s0TyDAdHd7l7eJPS5GgBShsc6eI6IUY7hK6hzEomw5gihng644EHu3ieYDAaEoQ9Wl2POC6YTI7otkMco5lNYqZTyV//8/8xz/7o28TubZprHlmakWWa0bDA8yJcz2cyzJmNoMxD4olDmTaZDCTb12ckE0Mz7JEXOUHTQ/qK8WjM7uGAWCYUwiBEizTPcf0pG+c8umstynKGF6QYDXkc0Wlu0QybiBsH07kr7VRlJOqJO5apECy5/usYK1xzHzCrG/CvQmVW3h/qNGw4iVy6Y2ncWlRkdhJqE9zqMwu6imHTqdOowovFmx8XZOVCFlIeS8IyziqYYyMYFk6WY5HrGj6gXu8DzlJ9a+xEmjq948O096uDOs82n8sbsZwKVVIa6A8O+Qf/1/8bcV6Q5RkfeepJvvDlLxM2I65ev0Lgh+TTnPVWl7fffZXWlkcpS67efJNWV/L8i99BSA1C4nouk8mAdq+JEFSn1fjMZlOiICKexYwnY1ReoHKXv/rV3+CnPv2z/PY//QeIckCpCrQQeK6HVoZWY4PxZA/Hm+G7PmgwykUrjdfIMF7MJM3IC0GrdQFtXLwoxAkadDcuMJjMONo94qkHHuTuwQ4TP4XAp9fapN3YxJVNwpZDpkeEQQ+HJkUOoe9hTE5ZJmTJlFdefZ7hcI/BdIfSizn/oMPgTk5ZeDhNlxKYDnOSJOXC+ZDOmiBPwJcd4pl1Akrts97r0GxIxO2D2Zxi6r3mbeMtt5xtJUv89wc9t+c+OOwfHew3ZJXFxbqfWpcsrJDjIBZCohJa0gj0qfa3Ocn4H6L8nGDRBawy+mqS9xvvrsu6Couy3wMqA+5eMO/Xz58YkLVYXDyr53uslGCptHbh1MlsHs+gRNiVm4ZqN6ZqyXBpuHbtOlGnweZDFzmajfjuS1/ne8//Lo8+8nEeufAT/MSnP8+zz3+T3/rDpxGyReg/wBOPfwKtFd9+5muM4xtsnW+SxiW+1wKhiZoRSRzTbDTBGCaTGY6QeL5HOir5lZ/5L3nzR+/x4o/+NY4/JQh80qzk8GhEI/RZ751jNJ6QlwmttqTUJaXS+F7AdDIhaEqMkkRRxGRgkNqh0VCUskS2HdyGx3Tf4auf+QKvvfsmAzUmbAqMMhinoNFoMRplFIUiCJpIEeDIEG0Ms8mUVisCk5PMhrSaLTa7mzQaLY7Sa3giYDIb0950GccxQeAxGs4IfJez532Ek+E5AeksZa3bIokTHBExGSY4/+Xf/rtP151jx26IayW+XDC77Z9/OKJnIcz/yFgbFh+EVRaXDGDu2R2Yx6mYqy6PYHXhyHFNX8P9GH/1GydD2Wm2Vhgt0Ka5GnYZauee7WqdBossHU97jqtDcysIBmc1E6eswrRdgtM6HnWZq7tqos/CSlgpcz0nZMkpIwz4jsPGepf2Wof94RHbuztcu30NLSe8+toLbGxukpYp33n2n4E7QYuMIoMfPPsMR0cH/PRXfomHL32cK5d3GPYLfD8kK2KkEPiuz3g0Jk9z2u0OnuMym0xYa2/w6ANfoH80Qjg5Xisl6Li0eiGf+MyTeJEkKaesn23jtRUbFxuE3ZyNC20mSUFns8HHP7+GGwranS3WtjzOX1ijKBVa5Gye7+CGhrOXevxv//rf4L0b77J5qWTjoZyHP+6zfs7H9UNUIdHKcOHCGaTUuP4M4e1z7mJAa02xfs6hexa8VsHu0W3GyZhO9BhnzzxB/2DK/t0RodtkNkkxJubxJ9YIg5CjvQyVCxpRg72dKdNRQTwBV2zg/M2/8/eermm6OufBNkbdv2fRX19s/3w/vP+OMR+MzDfVuDcudLuk7m8v97srR9U90BLqwj9xDIUVHLX3/Vg//BhzL/JjPdD62Lx6i3U5TPUr7ehBVVdiPnKw0LqrOP+eqH0sVDMDq/qqhmIXafz4eAJOKaugsvg+AOs/6xM4icvCwfo8KkEB4ApyND985UW+++K3eOXN7xJPp7QbZ5BE7Pevc+XWt0nSHFBkqcRxWowmQ3YP32EyG/CzP/XXiaeCvYOraKNYa7c52D/k4oUH8D2f6WhI4HuEXsBkkvDQhc9z6YFHmMWHDOM7OJ4giWOOjo5wPYet9TXKckrvbAPHy1CF3QDVdQ0GRZJOaDfb9PsjhDsAkTEba5CCtExRIsdxFX/q47/Ciy+9jN8ZkE+HqKkiPsw53E6J+xJdgDYx7XVFlg8xWjCLY2ZpinE16+dhnPbpbraIWtA7k0O+xhd/4hdBDJnMjhgNZzRaEiOmuE6Lw4MpWarJEgejBIImZe4xHZY4f/Nv/z27A48BpzqgwBKDqLRFPX3zg7RTDau64seFijhOgdWnsvrawhqpybRilOUDF5YITYol4lsiRBunKvOcTO/1VzHuvFqOs8oCl/JVdfGX01h+f39Yfr8wueuuy58ozOvzjwH3IYPTjBfhCDJd8ubV97i8fQ0ZStrtBgd7+2xvb3PYv0la7HP+YovBYJ9G1AYjUCZFOvao7ULNePPNV/jiF/40jUaX/cOrDPp9orBBWRhUoaxwMg7DoxHt1joPnvs0Tb+NdFJ+9Pr3yDLDZKToNM8QBC1G/TFhFFFKzWBwRJYqBE2KLGQ2K8EIZmNBuwvtThtHekzHBY1mE4RmME6Ip/Azn/o53nr3Jn5LUxjNwWCAcCSu72KchHMPRhR6bFcH5gWtZoc8z0jTHMdRBFFJ4PkIIynyAseZopmQpYavfOkvUaqCoDlFCIUxDo5ryJKSM2c2yPMprWYD33Pptruc3Txnh/McY4ewFiaZZar58B6VtjmFrE/iqoz/cFgPpUnE3CRcHXeW9RZSSxONrAffgmRhNQgpljzTSxpS1AdbWJT1HIXqvh4/Xh2bP4mrU0prCq7G2yuraWGJ1FbFUl0tCaWTylMshkDn49r1Ap4l0bFI7E8O/yRgNc0lXBKdc1RGo0TGS298h/euv8C7l1/m3LkzfPnLX6TZUSixTxhpxv0MoSIGg5gkn9Fda6FUietZiSKcnO8889t84qM/SS/6KI2oi+91iSeWotGCMof9/SnXr/VRCgQCTzq40iWJc5IYDg5jhqOEs5sXub29S/8oQakGjvQZj2OkNPR6DQQefujhBj6tdoDr53zqsw/SXfPZWN9ia6NLGAocT3Gwf51339ohmRVgXMrSI81Kcl1i3IRzD7bobng02y2OhhPCRpPAD5iOCm5enpGMJJ4IiELJ2mYTt33EzvBHfOd73+AnP/eX2eg9RqcraTY1vldw/oEA10tptCRB4OIahYknzHZGSIG0Cz+knYwjpcCtJ5r8W0DnlGcLrFe2OUjp4Fa/UjrVbKSKwWriqoeqlkzXOa/UNF7f18+O/S2T5jJaRq3N9dPRTnledIGqvCyJuzqPJ+Muo7048f06hycz98fHPwlYTXMJT/tUliW8/e4btDoR0slpNF1eeulFfvjs95GOot3xUWVOnhvSVJNnivFoxmwa02hBWeSMh4Y8dZnGff7V7/0PfPWr/wHNZkTU0DRa0OkEuI4gTVM6nTWisE0SJ2A0Ukj8wMdxDb21DsYYhFRMp0PanSZxFlPqgsPBCN93EI7C90McRyJkSZYWJInCmCbb2xNKlRFFAWu9Lk8++QCbGy02z6zRP4gZHXoEcp0yN2RJTrPRwXWa3L5zwHA8RRuIoojpNAE8RkeGcd/h+pUp46GgSH2GhzGuWcOUgpvbL/LyKz/kS5//a9y54eHKJoHfQJceyQyGfY3CI3NzCkcggq61elcJnaVxa7m8hnwFLZP9yaF19tijlazWPY51/mx/up7JZtE19aw2q/nt7D2DELY8c6wdSse+aVFWzq6FBj+FaqsaEkuva0YXov6+nRewGssyujle38ezcE88Bh90ksS/B1DXiazW1Dcil1k8Zn3tElpLpvEheZHhSCiyjMDz2NnZYTqZ0G63GQ6GSBkg3MKOJEgPcMgSRbvdRThH+EGOIzzCqCCMMo76d3B8RZqPaDR92l0fJDhCkmUp6+trbJ7t0en6+IHC9UrOn+sRBIqts23aPY9uLyLPSopCkecziqKk3z8iizWTocFhE1N20Tpgb3+fu7f2uXV1iNANhM5Z35AcHky58X7BzfdLpiOXNC7RZcDm+nniKYyGCUmS2m9kJVtne4RhRK/VxhUOjaCBSgUtb522tw6Fw7M/+AY6a/C5j/9Vhkcue7tj+oc5w36BKiLu3Boz7kt02SDwu8jlwzHmhEY1dFMvgrkXHtvx5Y+HNcOdWPhT4fGB4aXwx7AmqPp97aFf+k5VyNV7y13L+TkFhJmXfVlAWCZeLsfx/4/BEhevMvf98BicePDvIVQC02CYzqaM44RZnPLdH3ydRx99iMFgzGQ0IvBdtjY3wRjW19dtXz7P6a11mc763L27R5GB50vcIKHZtEwsnJK93T5n1j9Clilktc+RdAq6vQadbgNkiZh3xRz6R326vQbrW22e+OjD9DYixtN9NjabFCZmGo9YX2vRW1uj1+uRpAlaQyNqIYzH0UHC3u6YqOWTxW0Ct8d0JNnZnpIn9lyFadynuyZxfEW312M6KegfZaSJIUs07WYbrSFJM3toRzsijmfkOQxHGRfOPkQyMcxGELKJW0aoeEYaH/CNb/0Ov/DVX2JwkDKeJihdYIRhFk8pKSm9gkkxZJAcIp0oxJQafz47y6nmhS0x0CoVViiNg6N8XO3iKIPUCkGJECVSqmr+vz1+ydECRzu42sPVru3Lz4+MXsaT32GuoS2xLDPdMiEt9EgdZvFqbjovhToVl8zsmjiXNfpxtM9tHo8FrjN6Mq/3OCXoGIg6zjIuwWnesX+PQGBlsjEGheG7L3yPf/yb/4hBcsCd/Xd5/kc/4MLZizz11KMUZUIcT8nygiSJSZMEgDAMOX/hLBif27cP6R+O0GVJGPkMB0M82WBwmFCkPrdvjDjcz8gSKIsS1/HIs4LhYIwfwlCXCM9HeBFHg4I0E+SqIGwKWmdcWpsevg+O9FBCIMMcnJw0zSnLkl5vk6LQuE7AuXNrhA27q07gNTB5gJpItNGMxwmujGh3Qx5+ssW5Sy6f/NzjrG10ePvt68ymkOWSZrNBI3KI0zFaF3S6baJGRBCFfPcHLzAYZ7S6FzFFC7dssXO7j5SKt959hqwY8sRDP8H6+nmanR6u6+C4gv5oSKZnmECROyPkD9+9imn44NQOPQ1GHRtyqolvwVbLTGWPPxKOAakQ2JVW1glnRwRM5ZUycnHM8tzphsE14BqBa6wD61RmW3LILRh1WUPXDFgx7AlmXnjx74d1OOZ9b+s3sENni3SO8fcxiVGvcRALwbUM92Ta6vkpQm8hCCr4MMLj32GwfpeqxFLw+McfZZDf5uvf/y0Kcu7u3OTq9Td4+51XuLV9HS9wiaIGQWB3zRkOhkxnE7SCs1tbPHjhIskEVB7SiNpcvHCeu3eOQDg0my4PXniM2USBjsjTJrs7Y3bu7pFOc8ajGTJqIj2Xo6OYyUgymsQMxjvc2bvDmzfeZaYn1fl+PsJRzPI9pukh3fWAZitiNo4J/CaYkv39OwyHfWbpXZJsjHRL8KxF6LkBSVLi+gFJloMUSE+xdbbDl778aSajmO2bR7hOiOd2WO9dQAiHOJ0gnBntjsulh8+xc3TEO1evs7O7zeZai2bYwJEB5y6t88KLz/OFz/0C40HAbFaSFQo/lJzfatHz1ohMg4tnz+BMz3z06Wd+9DK3Dg/5yCMP4vmVBAA0GsdxMLo6vLHql8pKmzlgj772JLgSJV2kdgi8AIGP47r11DAKpXA8iStAl3butBQuRpv5Kj9jVDVdFLRRltQrzVrzBZVptsx4oiKieoXbAmzEmoF/HLDixQq2hem/lLaoBFMdaiFzloLU4X+Mb4uK+U8+XHlWwY9ZLpZSu0+qf2T4MOlJ7KhLYRTSc3nv+nvsDa9z9/Aaw9Ehvu8QRh5FnhGFIXEyResMbQRFYeyUW6UIwoBBf0hZwub6GaKwweHRIVopmo0GD1/6KIf7+9zdvU6n3aMsFYEXMZmM+PO/+tf4pa/+ddrCY63Yp03BT33pP+TiYw9wdfsl3DBhMBjy+OMfwXUN/QNFuxty7mKDqNEk9FtMJikOHs2wS7vdIZ7FtJotPD/i7s4epSpodwN6WxF/5k/9aX7/G99kt7/DcDZBSJ8004zH1k8wnc1AQKsdsX8wZDRMGI8S0C5Cu7jKRaeG2WCGSnO8KODSmYsM9vrcurOD23TpdNbJU4cvf+UrPP/y1/DCjGbb1p8fugS+i0CjigLn4a/81afHecmt3X3efPNNCCJmyvDGles8+MAFfGk3Pqg942DH+x0pEY7DrFC8fvU2z7z2Hpd3j7i5c8Qrl2/yzIuvMVHw9R88x3u3brN29hzPvfIWxCVrvTV+8Op7HJWKcZlzMJuxPRjRT3NKY+g07E4pjuMipFMxUMXdghN7BcwngixcZhXL2WtrKXwYklzA6Yy/BHOBY22O05x5y1fH4V7Plx7PD9a8V9jq+WmvPgCclZRPKd0fGZwPkZ4ESqURjoN0HYaTI37z9/4R+8NbtNtNlM6recaCbrdHVmQIB+Ikpd3uUBQl7W6bvMxJ04LxaEaWKbQCV0qmkzGu67LZe4BGs8nh0bY9TguX6TSh2fK4/N4dvvKFv8RkcIMn128Q+A8Q64Cv//B/xA1SXM/BGOj2ukjhMx0b4vQueRkzOBBcefeQ2cjw0IOPMxnNyPKUKGwwGs549LEnyfKcVjsgKQc010p++ad/iR++8Dp7o7s89sQD4EAQeLiuQ1kWpGlKEscUeYLrGlotnzByMWXJ+HDK6DDGlBqTQ+RHuKHLpbPn8fC5cn0b4zk4SjIeJfzyn/9VXnv1Owh/ymQ6pdUJkFKRFXZa7/r6Bs5HfvYvPO0FLjg+2g14/f1b/PD193jt8g1u3rpNXip6Z7bQXsAkBR34vPL+LX7w+tu8vz/kN7/5Q7718ptcPRrzxo1d3r65x7t3DrhxOOHZN69w42DC9lHMN557g7ev7zCcJfRLzf/0ne/z7Tcu88wb7/CHL7zMD958nx+9f5PnX3uT/YM+TqvNIC/odpr4usQYe3Q30scIByOYm/nWQKmm3s6xNtkraqsYdRVEZSm4800oqr3vMYuTXat4tTCwlsiC8U+e5vphYDXOsjVR5+R+YN8vF/GDYF419YPqk3W9LL8/EfYesBq2Dn+/eIKqCyg0d3bv8Na1l7i6/Qo4Jdvbt1nfWGcyntDptBiNh4xHI1zPwfMCdnf2CKMGYSNEAJ4XkMUlybSg0ejgOi47Owf02hs88tCTFGXB7bvvM5ultFpdep0NGs2A8XjA3Z1DLj7yReKkD92H+Zc/+F1m6jrj0YzppKDRCHGkJM8UQqY0Ww5lGnD75pTQW0OYgPFoShi6RJHPdDwmbDTo9tZAGIJQ0F2XRO2Sn/ncL/CtZ76PbEzsIZdOghtolJ6BLFEqIYhcHAeCQOD7kvPntji7tU4cT1FlSVmUeJ5L1Gjgt1oENCiSgv7kkDMPdRiPxmgNf+Ev/RV+8P1v4jYSpAO+J/GDkChq0GiFaFPgPPXLf+7pQmVkuUZ4AZM8JzeQIhnngteu3eUbL7zBS5fv8tybVzjMNL/9nWd5fXuPd+4cME41xvEwut4wwSHPC9IsQykIghbgk2aKOFUMipjXr19F+D6OI8nSAtcNkY5HWUKmHK7s9Xn+nWv84QuvcHt3l/Vmk0a7g3E9jBB2g43Ksz4nNgGImvmP7yewWO1n570vw2pveW43LC0rZj4V1woFLWp/CNUc+tVU/wggqEz8WtOvwunfcZYssfuBOC3lJcavUz8N7wU2zWWfy+K5mCdfP10INoNBOpo4n/CtH/wBL77xDY5Gt8kLQ+BHxNOEMGrgBw5lESPwKYqc0XSK4/qAoCxLjDE4wsV1fFRhyPMcx3FohC3SNOOJxz7Bzu4d/EDTaraZTgf4folWBVub6+zv30KUbdbPfZYX33yRy9d/QLsnKbKIZriFK1sUiU9ZzpBOzGySM5kkuFLQaqyTpDOabUMQGCbTI5Qo8ENQOrHldVOCZop0HH7m03+Wb//gGwzzO8RFCkKhKVnfXAOR0+p5bJ5pEIaas+fXaIQ++/t9XMejKA299QZRKwTpgOcxiSe03Q7SaAbpLl5k2Dq3Rq/X5Ke+8iv85m//f5D+FCGkHdWQIWmsmYwS8lzjXPzin31aK0Ga5niei+97KK2Jooi0VGQ6ZO8o52g6Rniwu7+PMZIgsFsbGW0o8pI0zUjTFBB2A8M4ptNu4XoShMLzBNIBIyRaC4KggeN4JEmG1hpHuoRhE60FvheRpAVS+vSHKS++eZV3rtyszLc2Lbda6mqsf2BOwKZecGNJT8y3vDNzpl9lE6FBS0Hm2KOXHSGR1Z7yCMARGDSetsyvqrN6RbWtthUTcr56bZHw/VimhuXw9fVp8U57ZqH2t3yQeb3MmHO43yeX4F5pn5rmEpiqvo+HqVpEFNy6fYPf/84/Z6d/FTeM2N07wHFc0iRlNp1iTIHjSIrc4AUuWZZjtLXklCrpdNtMJzPGo5hOe40w8Llze4+inLKx2aTVOMNw2McwYxanKF0wnY5AG8bTKXE85dqNt1hbb/Hya88hnRwhXLI4QNLE9wOKomQ2TcmLmEZL0u4K1tY7TCc5QmjyYkSepyhV4vkeQgiyNGE8HBHnYy5cXCee+fzsp/4SX/vO73P2IZ+wY9g82yOMJErHeIEhCARBKAkCj8PDIe2Wy9p6l82NNRoNlySbokpNEDQZTWaEYUBgPBxRkDKhs9EmyxTTUcFXf+7P8fVv/CuyYoDnNVAFTMcx2bQgm0Rs9R5BWm9oAEbgey7JLEYiKPOCPE1B5XhOyVqnhXBc0rIkyzPKOCOfxuRpRppmOK5HkqYoZZdnNhstXM8nSTLSpCCOc4pck6WK2TQniQviaYYjfTbWzxBFbbQCtEOalBS5YDhIGc4MUxXy1q0h//VvfpP/x//wB/zg8j79UmIcu7sK2qI2xs5t0XYZqcDuFoSp15Xb32UoVYl0BQqB8XxGZc5QFcx0ydSUTFVB4bjMPJeJ61I4PgYPrRyUEtXeJXYqsT2GqVrCqj/EJBth7HpbWa+OOvbyVNaSK/hHAr2yfvb0BYl/NFhJp87nohT2w1JKdg+uMxjfolAz0iwh9CNC12e9t8b6Wo9Ot9ptxnUplKJUxiqkNAfhUGQ5aFClIk0zpFQ89tgWF86vEUaS9Y02m5ubGGMYj0YYU7KxvkGhFJ7nsr7Z4cJDLq++9X2yrORgN0Nna4Reg/HkiGY3obues7bpEDUU6+ttfLfB0cGA2WRCt90hix0O91NmM0H/KKfIfQb9AnSD6SAnmWkmo5w8MwjRYDazdDKdDgBDI2rhOQ2kaLF7N2b3Tkq71UJIQ1EoLr+7zfvv3aUoFHES4zguYdhgOirw3A5Z6tBsdel0Xe7e6hP3PUqV2R2aRROHiOmkwBQCRytUlqIScDY++QtPKw3r6x3KIkeVGsexAqCYJfgi4eK5NqF0ifOcQhcIBfFoYj3+UqI0YCRZlhG1QqKGlZZZpigygVK2n+Q4LmWpMVgvflkqGlED17PjqkVR2MkLScpoPKXVbON7DoHngReSigb7M3ju9fd4+/J1uq0GvVaTIAoxrguOC66DciR4LqWAt96/QX80ptluEwS+ZdKKEA0Cx/M5mua8dXfIj67c5esvvM733nqfF96/xXPvXOflK7d5e/uAV7f3eOXqNvv9Ga1Gh7ByzEjXRVfn6mkERgh0hUY6i+4GVkDUloDAnvFmX1pvhQKMPUbGWkbVfe1etN0XqvdVPGnD2oW/ElGZ3xYW7HaM+Uz1oAo2N07mAWxqtQfFDtDaXCynvSyWrLg/aegsJ20AhEFJRaYz/uCZf8Zrl5+tTF8XjMtwOCAMfTCaJI3RuqDfH9GImjjCZzIZE08L0iym3WqQxCm+10SVkqLIaHU8Wu0On/jY5/HcFqPRmKP+Dt1em0bLB2E47PeJsylh5KNMiuu0yRKJ74cMZ9tE7QJFjhcVhGFo21kW6KLN0UGKpMF4ZMhSRRDA+kaDqOFTlDnNVkC3G9GJAs6d7ZAUQ/Jc8Ytf/FW+8cx3ef/WVYzwKMuIg92CZCbJEsn+Xs7h/pRxXzMaaYb9mGRm8JwGcZxVx127xHFGmil8T7HR7XD2gS6zchfhFjRbDR565GP89E/9Ej966ftk+ZAi05SlJgxcIlfRabkEfoTzxM/82afbrciOuSMoc4Uw1ly385U9vKBBXmq0Ukgk/aO+nTvvOhjhEEUN0lyTpiXdXkSappSlIc81SgvrhW2HrK030SKl0XBotiKiKKRUJXGckCQxeZGjypIwDKsto8FxHEqtKUoNqsST1oQfTRN++NI7PP/ebcZOxPPv3OCVqzu8tX3Ed9+8zpu3+3z/rRs88/pl3rpxyEtvXWVja52NXhe/WtwTC59vvnaF33n2Ld66dcTN/SEZPoUIGKcQF5JZ4TCalQwnJYfDlO39MS++c4PX37/FnaMhuSM4SmbkjmBvltBPM27s7vPmjTvcGcSErTZRI0C40m5nJh1cz8X1XWItGecl1+/ucedwyMtvX0H7EXeHQ/rTGW9evckoTsmN5o3L10iUAj+AIKB0HQ7jlHGWc3N3n1fevcrd/ogo8Ok2ApQyuFJaB2il0YX1Wq5wo10P70oraGzABCNKSi3QuAhpt4z2hMGhqEZQlucrLEZYFoa9qDZPXeh85RqEa7hxeJ0re9d4+dr3OZrcIo5TytQhDCIcBzxP4no+g8GAdjcgLzLy1EqVIHQJvCaNMGQ0nnJ0OKbMJe1WjwcfeAjPbZHOPL7w2V9g++aAPC9otkO80DAcH9FoRPR6PTzfw/c9NIKo4aCcITlHrG2FNFo+hZoSx2Na7SZxlpBnxnYzkIxHY1ptH9crkV7J2lqHwI8oC4EqJfE4YaPdI5nmHBxOaYQhP/+FX+a5l5/j7GMhbqQIQhfPUwhZMB73mUymXHxwk07HJ88LLpw7RzwrGY9ytHIYjlLSCbTaTS6c38CYhGQW4waCWA1Z25QokRIFF/jK5/8Mv/Ov/jvWt2A4mNBtN8mSKb7ns7HRo0gLxFf/9j80vmcP18vylDRNWF9b56h/RCMK8dxqgEYIjFYorZBC4LgueZ7j+wGeGzGZlkymE8490CJJc8ocskyjco3nOWyst4iTEcK1/XLP9RHCzsrPc2VPC5XGnuedpJRlies45EVOGIQIITEKS8jVIiLfkTgSEIper4vvebiuSwEUGJpOgK8FsQHp+Zh4yJMPnuH81hqJKnj36h36o5you8lgMiAIA5JqZpgQAtd1caREK40jBHmW40pJmRcEno9BU5gC4S1pZCNIkpQojBBG40tJpxHiuuA37IYGeZbj+QFxnDIeTnA9n+l0RqvVI8msYxQhCByJV9q5DZ7voVGIhofr2+mn/f4AR0qyxDqQwkYDUxi2Ok3+4s9+hsfOrREaDcIBY+wGkzVz15wv7K8xupoHYbtGSgqMKxnFKbNkRjsKaPsBfiU5NNXoxymm/SJ9hRZiaWhS83vPfo1+vM83nvst1s+1uXbtCmk6xpcRaWxIszGIgigKCIKI0hSMRmOiqIUuBWXp4Topk1GOlC6ubJLGgs3eGQ6PBoRhSJoV/MxP/2l8J2L3YJtxus0ovsvR4T5R2AJc0izH8zyKsqTRCAkbPmkaU5YlQhoazQZB4OG7DnmekmVTlMpJZwXJVNHtrBPHKf3REZtbdsquyj0cEWBKw1arQbcbcvPwBkEY8X//W/+Qv/l/+XX2uQyOw1E/4+yZDkJIisJwsDul0+mytRXSXfMZHtkJSq7wybIM1xNsbm4yGSe4bpP9nR0++sRHSPIxt/ev8eTHzhPHBRe3for/1V/5r/j1//Nf5sJDCXdujJmOM0LfA+3z6MMP8tCFp3Ae+tIvPV2UOUqVYAounD+DIw2e59BoRNaB5rqURYF0XFSp8Xwfx3HI84wwbBDPMvLCmnFeYF06aVZQqpJOu0GrFZCmY6AgCAKisIHWGqU0RaHJswLHsQcSDoZ9u8urI/Fch1YrIghcpNS0WgHa2J1S7S6/kkIrwkbALI05GBxxOBhAXqLSHG2glJJMGnKlKKXgYBazPZhw43BIrARZaZCuQ5rlCCHQWuG6LkII4jjGdRzr6ENTFjlhGOD5DgU5eIoo8Gl7DRztkGqQnofn+7jSRShBWUiSwuVwXLA/HhNnimlmGI4z0hSKwiHPJV7QQmlJUSqk7+F4Ho7v4zUiSsch1QYZNFDGoVTS+heEizEOnh8ShE2E65EVmmla8PJbV3n7xi4HcUFuDHcGI7xOCy/0oVRgDFpbB6kUAuM6lK7EeA5JkfP2zdv85nde5GuvXOZ771zjudffASm4cHYdxxFIx/rz0yyzE7Vcac9XFHYLN+scrbtVtlyDwRGvvfc6g/Eh20dv8Oobr+A7bVzPQ5eaLNV2OCtyMUbYheF+gjaaUb+k0WgyGc/odRtMpqk9670M+PIX/zRRuMGlC08iTci5rQusr63z6COP8sabL3Pt5ls4fkmjHeH5EQZrnbiux/lzZyslI4miEMd1aXe6CGMYDPaBhF7X9uuHhzGqCAn9NTA+d+8e0WjanX4mk5jIb9IIeoROi81WGyFTZuURlx48y899/lf4+ve+Du2MVrtJFIW0Wi2iKGA2m9JdC3Hdgp07U8aDgk7PYWOzwdqaR9g0+CHcuXuX6URxsJeQJhkbWw3coCDLc+5sj2kEG3jmLJ/85Ff45nd+izTdZ617llbLxw8FzVaAMRkqL3DO/8R/+LRWdjti11NIR5NnGVLao3kc6VIqZYmk2tdmOo2ZTCb4nkeeK8pSU5SKIApwPatZlFI0ohDHAdfVtFshrVYTpKj6+VY/GC1RSpFmKUrl+L6H7wcYrdjYXAM0RWklHkbZWV1BG2MkqlQkeYoWxp4J7kqkI5kmGa70yLKMJJ0RSYnrChxPEoQRWimLxoCr0EJRKo3rOLiOS1EUZGlmfQKA7/voqjxJklAWJb4niSIXR3rMUk1SCgrpMJjESNenKBUmz8lVSSYks1KBLGlEEYVSICWO6xEnCcJzyFRJrg3S8ymUwXECprMp0rUCR7rVsmODFUKlIisySlVSoijRFLqkKBySGbgyYpZqrtze5fm3r/DenUN++MY19gdTWhI21rv2BFXp4QtJpg3XB4d8/dUf8dvPv8aL1+5wEOekhUEID7wGl3cOeOaty9y6u4vUCicICdsN+nHCuzdvcjgdo30fGXj4xm4HKhC2OyEkL7zxEmtbLV5/9yWm6gDpKYpCMRgMyVPDWneLUiWsrTfJ8hStwPN9itxQlmCMxHEL4olBCMVkGJMmEAUd1rpbdNubJEnBs88/y8eeegI0vP3O66RFHzdUSN8wGBwShpIgFPiBpihjmi2PJBuR5SOMKBhPR0ShR6tlx76z1J6ko0xmT9qZlozGMRiHvCz57BeeJPQC0mnGZJSQTUGaggsP9siZEkUNvvyJr/LdF7+PiWIyNabV9mh1AnprbTwPiiLB8yVbZ0IcF25emXG4m2KUw2SS2uXDOuRovyQK1phNZ1y42OLc+XV2do4YDAxGh1w49xE+9Ykv8Y1v/D7xLGM6yfE9w8ZGD134pLGiFZ7B2fjMzz69sblGGLkIWeJIyWgyZRrnuK5HlhfM4hjpuMxmgtlU4bgujVaAlCFFIXFdByEVQtohwTzNicKIdquFlAohIQh94jQljhN7sKKByTSmLBSq0qjdTgvXdXAdSavdsiZWnoPRuJ5HqRRxXDAczVDKEMcxGI1THV+sCoUuDap0kCKkKAtKnTNLU+K05OCoj9EC17dOPkf6GJ0TxyUOgjQt0KUiz3KMUoRhiDAGz5EYrdG6BCCIIrwgJNOGTAlKbR11sprB5wqJ1oasVEjfByHQqqDVaNgDIqSLUYZSKXDtXmbSEUSNEFXmeI5EoDBaWeuq6haVylBqUBqUtosgytI6T41xKXOBUsbu5isFhV0yBU6AEi65gr2DMW9fucs720e8cWuHqaN5884ef/jCqzz72tvsHk5Jygazwq6kkI5HrnLyokAJUEJyMI15684eP7q6zY+u3uaZ197hpcu3ePXKbZ598wpvX9mh3ezQXWsjHdDaOqTevPo6u8O3uH74I8ZJn6N+nyBykVKSzBTjYYLnGfxQI11DnJZ4bgulJL4XkacZWZLSbHUYDPu4nk+eac6fPUt/dIW7B29w5+5lBClrvRZR0OLwcA8ZZrTXAoSUOE6A0YIsyylyhStd+gcpZSLI8wRlCqTw6B+OKFWBIzzK0tBseGhV4rkhjuOTpQWt1hqanN6GJE9LpHaI/JCt9XWaYUij6XI0GKG1w8//1M/ztWe+ibum8ENtt7vODAd7Q/K8IAglZ870kDIjL2N6az5hFHGwnzMeaoR0mcQxjz25Ru+cprVuePLRS2ytn+flN67jeWvs3x7x5OOf4iOPf5rv/uBf0OpqXMdj/3Cf0TTGES46F1w69xjOx3/xLz7daPgUKiXPMsDBaA/XCYmiFkWRURTW7eN5HkWRE0V+NZaqSdIEpCIIwaAQ2L5xlmd4nlOtWbFTZvO8BASu5yKFXXEvRTU1sttCSggC243QSjGejInC0M7OSnPyXDEez3AdlyAMwWjyosT3XER1EIQqNQJBnuc0GhGu76OBOE7xA6uxkyQmjmfs7/dROsOVAWVp8FzP9kyrIUm/GgVwasbH4HjWqamMtkuMjEAZ280R2liuRNjdc6S1fDzPqxY8GZRSFEVGnucEQUBeFPPpxMYY8ixFm3pfPmm/o+wpxsbYIR5VGpSyR0KVyuC6AVJ4KGWddQiFEHZmnHSqCUz1tGUhybVgEMeMk5g3rlzl5u4B4zRDOR6ZhlJ5TCcZQRhQGnvenBD2FFkhwPF8nCBCIRlMpqSFwgsaCC9AI5mmJW9e2eW9WwdsXlwjNSl39m5xY+dtvv/q1+knd4mzlDhJiWcxgR/SanYZDkfV1lEZQegRhiFxPCHPE7QucITL1sYDuL4iTRSO46G1IUkm+L5dmhtGgulkxqc/8RMYZTg43MOJMjI9ww8bCCM4PDxkrdvD8zySOOb29hFGC6KGX2324pOmBUoVbJ3pgcgoyjFBKO1aFuEwHEysr8kD40yI/CazUUKn2cGXPt3OOo4fs384JIja/Okv/jx/8O1vUQYx7W7IdBIzm6Y4MkCV0Gi2yLIYpRTtVoOi0MSzHIFPFLYZ9hN78Kb06XS22Ls9wlc+0uQ0uob1Mw0aDcm5M5f4xEe/xLe+9z/hhodIBzpdH8dVeJ7Gdzwm/QHOIz/1558ulfX+CRy0khQ5ZKmdlGPHBK0J7LrgepLA99HaoSzspBjpGKKGj5DgeX5l5jdwHInvOUhHEMdJ5SMUlEpTFoo8z4H6lB1DnqcYNEYrkiy1owjSDhMqBcZooqhJGIRopUniBNdz547BKAgJfA/Xc8nyBEe6aAVH/SGOY3fqEYBSJVkSk6cljchlPI6x84Hs7K8wCPA9jzDwKYoCozWu56K0IoxClFYkaUpZKpB2LF9ghU5ZFKRZThhFJGmK67p4nktRlkRRQJHbpZye56Ex9ox27J77qlTM4hlBEBAGAdULhBBVn1dQlAW6WjRltJ1OpI3C9yVCagwFQeDj+Q5SGlxXoHSJEAqE7WIp7VSLqjRu4NruBXZK9CzJmCUKhIdSgjxXtFshRhf4vo9f1YnWCq3sSI9S1uGrdXWP5DAu2B0c8cblN7h29wXev/4j7uxf5f2772J8g+M5eE6AK3200kynExqNkPMXzpHlObNpjitbpIkhmZXzwyzX11scHU7ZWF/HEQGONBTFrNpCS1LkCWfWL7C5dgHPDdjZvcPR+BbNTkipIQyi+Yk6QRiQZxnNqFeNYhUYA2Hg4fsSz/V44NwD3Lp5g83NLtooHMeeIoUQlHmJE8ADl9ZQOYgC0lmBLg2T8ZAgdOgPBuS55Od/6pf55g9+SO7FZMUYgRXeo2HMaFQyG2n8QNLp+cymM6ZDQ55qup0OWZYSBQGqFOxvTykSD5V4tE2Ph848xY9euspw3Mf3BU8+8hkunvsYP3j+d3G8AboEhKbV8YmnMefWLxAYD1nqlDyPCSMfYyDLS/KiJMtSVFlQZFbjpVkK1aq5g8MR42FKkQuytCDwQ4wWhEFUrbZz8APXOt9KxWQ6I8sziqIkzQpUWaK1JgxCgsCn0YiQwu5NDoYsywBotVoUZYnrefiBTxCEgGA2s10AbbAzDU2BFIK8LEjylLJMCUKHvMgYjaekSc50OiFNE7RWTCcTlNJ4rkteWEYqi5LRaMzhYZ/hcMRkPGYynpBnhWXKatJHnhfkmSUQrSHLiqq+MozWFZOZaqUhJFlCnMRIabd80rpadYgdqvQ8z45GVFuHNZtNHOmglT0gIs2sdaC1YTaLKcrSTmgpFdL1cF1vLhDieEpRZGhTUJYZQlghhyjtnEOhKFHguuRKgeOSG8iUZppkTNKMtNAY6drdbLIS32tgNJRlieM4xLMErRRGaYQG6boYKSiNtsN6UiJcCEKNHzoMJ3d47d1neOmd77Afb5OaGXGWECcpaWqPpy4Lhed7NFpBdSR5QBA0mc6GSKkII5cw8mk2G2gtyfKU/mDAZByjdEGn2+DwsE9W5BwdTjjYPyTPpgRehHQEH3nycRzpEE9i0iRlvbtOI2oym9oJMWVZAJogCHFEZL3ojiGJC86sXcKhyXSiCcI2wrH05gUG4yUETc1oPEKVOa1mgyJNkEYwnsbs7e+TZyVxonAcq9mnk5RZkqGEwQusReV6GiFy0qRgZ3vGqA9FZg/1iJMJSs+QboqUGZ21iDxNGe4OaPktkpHh8HbKeD/g+jtDythFGIMqBNMJZInLbCIYHpZkUxehGmx1LyF912rlPI3xfZcsi9E6p9kOaDRDXC/AaE1RFHbcvdCo0tjNNtyM7lpEEASkSY5SGuFkNFseWW5NuSwt0KXEc5qUhUDioo0GI7GT6CyzSEeSphmD/hQpAgLfq4b7PASQZwlJahu6LCHPFVlegoBWu2VXO4UuYeghJIShR6cbsLER0u06BEFBtyOQYgYmJctKSq2gtCe0uiKkSAVFCulM0e+P2N8fcOf2IYf7fY6O+qjCMBsnmEKSJZo4LymRSNfDcT2UKTF2TAyNIog8glASRR7NZkhZFihjkMJB5QoXh8gLcDToNMfzDMJ3SFNDnpQkSiCFixAOWpUgsV0LDaVWGGEoVYHr2mOhMLarZIdF3Yph7XyMekaxFIBT4gaWYZWWxGmB60fkpcHzIwSQZjGNhk9RJBgDjUaLPC+I45hIgpunODgI4eL6DqUpKaVC+YIkn/D/5elPmy3JzutM8HHfPruf+dwx5pwzkYk5SRAQBQ00kaJkUlV1W1e1VZl1/xT8n+42q+5Si0JJACmwCAoASSCRQCKnmG/c8Yw+u++pPvglvoZFZN7h+Pb9vmutZ4l+Rexc0rdPKKtLnLBlW10QJT6+59E2HVXV0vf6NisfIpWkaWs8EVDXBVEsCCOP2XROFCYEfoDjCKbjMRjBZrNjvdmhlGR5NOJydYkfxkTRiA+/+R0CL0Gbllbu2ax2mEYxF2NOxq+zuiiRrbitttbD0jq3lLkkTVPiNMAYhbU+nhixzUsIOtxQYT0Yz30OTgWn91O0kjRlyXa9HaTe0MdaSxxPSeIJ83k8jFyOxQssvh8RpiFaSKKRz/JgwjgLMKrlaDmjrjRBGBDHyeCXAOLYYzRyOT4OODzwOLmT8uT5E3blFhdYTI6ZxKfIStP3DZt1jWojZOuxWbWcPS3IN5bVVU2xbhBvfP/PfqBUD1YwGsUkaUgQugjxj3t3H+EPOq8fhNRVR1NLspGP60sC36UoC3rZMZ2MCCOBUgMMcRgX1IA2VhalBieJtQath7HAWI3jOEgpadsOYxzSJMPYYbdgjcCYod3UWksSJYN0EoeMxxMcMVBVwKLk8BU7jiGOo9urGczmIyaTjCDwiEOf2XzKdDojjgJWN2uk1LRtS5qGpGk4vB2tGBZlgOsOOrvSPQ4a4Vta2dN2cmi4sXaIjvYSRxmyJMYqTbnL8R0PjMVIg/AMWktcwPNcPMei+g7PdUnjkLrviGTBYr9HuiHad2/192EkCMJBbqrbln90yHm+QOkeYw1h6BNGw5yqtcUMVrmhwMK6tyRDB98fbHuy728dlxIjLUoaXNcb+AsYlO7JsgTXHZZheV6AhchzCMOAXmo0HYiKJBZIs6GV5+x2v8ORT1DqCUpdss/PGY1CtFbMplM2N2s8x6PvFKGfUOSSm5s1ZbUbfO/KYTqNkaoHPLR20QqssWy3G1wcirzGdfxb74TG811cz6PIO9548Caz7IAkHvPZk18i0oa6loTW5yuvfZVJfIef/epn4DoYGTJOl3Td0MRsUYSxJpsExJGHQ0AvS4y3I5u7g0dFgvANhg6DpasNsnEJbIzvhnh+QNcNL72yarHA//Cv/3v+8m9/QmlW7Osc2UkcApIoQsuOfFfT1AbX1SQJpFmG7AxGDdQ5pQxV2YI1jNKEsijpWs1vf/MFreqRSjFOR9y784AHj97ghz/+j7T9FqyDkobQC/AI+OYH3+TB0Z1Bx8/3BVka0bUKzw2o6ob2FvbXtj2OO7wxPM/DwcMoCCNB0+QorRhlKbPpFGOHB171lqbWKH1ro9fm9q2jSbOUIIjwfR/LMB+maYbRBle4jEcT2rYljD3auqPrNEHoIDzBeDQZ4CAuuEIgPJB9j7XusAhxndsGlY44DmjbFt8LMGb4oPSdpGmGzEBd1rcprQlpGtJWkny//z1cw3UtYWSI0+Fr53bpp5RDWytk2+OLoSJctS3H8wWB6xD6AveWRRgFPnHo34qgGqs6rOyJXUEa+gSOBFWRBQJhJdZ0LD3D7sVj7NEhnazR+h/zBkM7TdP3CNclSRLiOMZYc5tUMwR+MMyvvRzm7luXowUCf1iawnALkP1w0FozfH/GWDzPuz1ohod+Ms5wXOiahq5rmUwmpGmCVIZWarA9YZgjuxdgt7x48XN2649wnQuMuaaqV0hZkSbJkDmvG/quxxhD4EcIN6CpFONsQRIntze0BdtNwW5/Q9+3jEZToiCl63qEMyg+u82WyI9IkzFRGA4WX0czGo9Q0nL+7IJvf/VDqqrjfP2EIO2o65620kRixvHRfX712d8SZC6ByKhKg3U0jl+RJD7ZyKWoV/iBYH2z4/g0wUsrejP8/vu+I/ADpISqUPjuBKETduuGIh8McMJxqKua9XaHH0z4v/75/4W/+PEPuSluWMwGaKbpYlwDoe8iO4uUiuurFqud22fDst81VGVPWyscK2gqSxKn9I3ka+9/A3Ao6w6jNOvrFd/5wz/i3sM3+Ltf/zccpyQIBlkbYxCOy92DO9ha4cZhwvHR8fBwGkPTNGipSJOU6WRyu6QTCFdQldXtL22go0zGI46PDonjiK5rsRbyvKZrNVI6aOXcSneGIPDpe4mUPWXe0nWDRddxBieb1kPSryyLIQSkFE3XksQRnu8PyzBj0VqiTEXbloCklxLPH9JNnjfEI5Vs2ec5vh/Qtt3tm0oge4eykChpiCIYjyOUbmjqHVHscHA4QQiDMS2eLwnC4S0ZJQ6LxYjJeIy1hl72BJ5D6CgCJLMsYLu5YF1uqHXLvquodYcNXHrHYHyXUvbkraJo4aZoqKRDpQRKxGwbxbbuaaRDuSv53ne+TWV7pBcOfnkDQRjRdsMbOo5Hg3/7dq8wLC2H5V9Td2BdfH94INI0Jo4SYIhAt40cDmdpCYMEIQI8b/Cwt22N60KaxcznE3AMSrVUdYnve0RRgDYGbQNwE4zpuT7/DS+e/DUvvvxr+uIZ9Ft0tcfRmtATCMfS9w1Wa1xX0LY9xkBdN/S9JI4TetWjzO3IoiVR7LNYzDk9vYPv+dysbljfXKN6SVN1JHFG2/bsthvqqqKqKoq8GlJ0TU+apJRVhewHhafrWwwGP4oYjQ+Io5QHD+8xXfgc3Vec3kuJM4+79xccHc+Ik4D79085PFrw9rsPyesrJrMQzxkiwdP5YEBbr2penTVcXe7ZbRv6zkWIaLiZJgl3Tk/w/RDHBFg9WJfrXFNtHPp9z+l8iW4E2xtJ6EckUcYomlIVcHNTslrtscYSRzFJnFFVis2mYbutUdqhzCuODo/wfI8ojRBW4HtDotBoRRAEHBwc4uAQBiGu49J2PfPZAlerDqMGqcQai+8FeMKnqTuqqqGu+2Gmx6UuDLI1eL4lzTym0wwlJX3fDQ9E3w/pNANJFBCH/rAh9X0cBMId3uKO0xMFMabXKNmhlcJzPWQvh7ira7HKIY1TlOxQnUb1mqZusNplnE2GOc9aMOr2axb0XUua+AhvGGitGdxjfWewxsVYyWQyIooyhDtYjouiZjY7IBvDdO5weByxPAyIYp8ir9msa8qdZb+vKcs9fqAYjSEbOXhWErmWJy8fU8sKaXvKtkJZhfB91O3irJEK43h48QgnisgOFtRW0eBQKo/K+HQiRQVj8EP+6sc/xIkiOnysHRZrdV0P5CHrUVUNVkOWDd9D20miMCQMPfzgllrkuNRVx2azJ88LqrJF60EOtNbBEz447u2trsFxNONJQppGuI5D13VUVYXRloODI4zVFOXulrsgCLwazDX17gpVdGzW5xjVkIYBcRjimB7f6/CFQ1s2+F5IVTX0fT/cSJRHUfTs8w19v6XtNni+i1KKNI3AOkipkX2H50ISRwSBz3w6JQh87t29w3wxIR3HGKsYTya/l/gW8zmCIZffyyH7cXrnhHQasDyKsEb9nkaz22/R9AiX4euyhvNXNecve/pOcXH1HLDsdxV1qUAb2mbwooR+xL07x7SVi9QaL7GMFj6HJ1M2qwvybT4crm6ANQ510dC3EHoH3FxryvqGbNSSJBZjLa4IiNOY8SRlMZ8iRIA0FkeAFwim8zGz+Zj1tmCzKzHWsl1vcJwe1xn2Zo4b0PUVRbHGNC75tcX0KahgoArhsDw4HMJWZVnRdxLX9QfaiOMhO0tZNoO5oumo64aulYBDmnmMRiFd16D1oEP7vo/RmigISeIQIcBaReD5CMdFS8UoHSFcQZqGeK6PcAVxFKLVsDQyWiNwqIqOvhuuP1ob2qbHZWg62W52WC2Gh6GqSZOYYt9SFMPm3HVchDPACvf7IdwhpaQsC7abGq1Amw6lLFqC54Z0XYvwHKTuULolCF2SFEYTyCaGINYoU2KcCtfv8SODcBSHhzO0ozg+PaTRLWWxw+oe1Xfsd2vWN5egJZ5j8YQl8AyjNMQxBtUrtBpsy4PM6dI2LbqT/On3/wW213TNcPNxXQclJaEfDtt+q3Acg9FDfVTsOSijaTuFY4dsgew1xrho5aB6i5IKcxtrdRx+n7kII4/ROGY6meD7PnVTUZY5su8Jg4gwiqjKanAvWgW2x3EuafuP2Ocfo2SBUR5JkpKNMqTq6GVNUe1oupz9fofsHM7OrhmPpkRhitGgpE/gTcD6yFsvw831jpubPePRBM8LCf2Yqho88svFlCT1iROP45MFvaqQqiaKPdI0HfYdno9wHbbbq1v2A9RVjfAF692KRlZoOoyxJJlPPPIJwoii3NLJnPE4AlGQjR1W1znPn5QcLt6gb33Kjcv6qkV3MVevOqyB+Tyhrhums4TpUnBwVxDPOtbbM7Q2lEWLH0QkSQhmeHl6QqBtx8HxCOtKjDOMuNpIwtjBjyTaNtRVRZIE3LmzJBl5uKIniED4MJnN8Dyf6XjKeDRCmo6+71DaIU4mdLJhkgmSxGE2yTgYLZjMExxhBvaFF+D+I0zzH6EaXdcR+gFhGJLGKWEo8L0A3wtIM0E2AuFq2qZG9h3aaPquparK4TSXPWVVUlaDfKa0QhuDsQYhnGEsaPWwePPEoP0ag9GDxi+1JMsiPM/iOIYgELdJkGHGPVguMbc+AKPMEKBxXeIoIY5StDYIEVLsG9argqbWCNcHF6JgGFscx9K2HUVZorXGGEvbaJpKoaRLXUl2ux29bBhPfNKRZjzxWCxGRJE3ZA58wW63oW5r6HvSUcJ4PLqVDWuUHsaa/W7H9c01TVPSdyVG93Rtj+wsXauwt1ZhrMVIhWcd/uKHP6SpSmwvb7MCQ37dcezt/1sThS5aGQLfIYz8AYZSq8HUo/StYuIMLkFr8XwfV7jUdYmxiiAUaNNhbEcQiCFb0Q/GH89ziaJ4CGJ1Ej/wcHHxhIsIKlrzO9b5z6mbM4ypmE5j5tMZqpf43iDjBmFA23SEoUAIQZqOBkVCacIwomtqNjcbmsrSNT59E+C7I9oKnj29QDgRGJfF9ADfjSjLmrps2G12vDq7pC7/cbTc0zQNnZSEoUc28hhPh+QbRjMeTWjqmqqt2BUF63VJ10p61dwmRV3iRBAnLnW7ZTaPGc88Hrw2R+qO+fyQPFfUNbS1w3Zd8drDOzg2YruWuI6grHKC0KPXNXVXcXL3iMPFKcv5MdoooigcgCm3/ZTzxRgvEPhhSFn0uEIwnoRYaqJ4uE37AZRNibY1aeaSTVyixDCaBJyezrGOJs0ywjDC826r1lxBlEQ0fc/sIOH0ToRUNxzdDWjrFUHoE0YRm+0Ot+1apNZIpenbFt9zKfIcKfuBQe4NoIOuk0xnIZaKMATfE7iOi1ESpXrCwCcOg4EMEgREYUiSxEjZUVUlRVFS180wJ+qBuRbHEZ7n4zhi+HB6A7vM88QgyzkWqeTvHXVlWVJVFY518F2fwB+MLmHoDxqs8HCFg1Q1nSzB6cFVCE8wSjNGk2Gh2DQSaw1SS6RWNG3PbldRFj1da+k7h651cQiHtZzpqeuW9apgu6sQbkQQDvFjB2iNQnVDzmC5XBBGEVqp4QPZt7e5B9hvK1Y328GK64Njh7e50YaqLImER+qH/PPvfx/dK3wsYG+Jw4PsGUcuUWzxPE3fG1wbklcNDhbhGRxhbkNODloNh64Qw+w8fPYGo4jvO2SjGE8I6roF9O3B4tBLTdO0g4TI4ONwcFBa0ukbqu4MpUuapkK4mig2KD2YepSUcJtvEF5IlARYB4qivPUCeEjZszhIeO2NQ7LMv30pBFxf7FAd9L1ltyuGkbPqiOOYUTrG9wLGozmeE93uknqEKxC+B0AUDQ9QFLtEiXu7gB5yJVmWcXA0IxsHeMLBaIe6MhR5P/Tw1Ya60rw62+AI6O0GP264WD3mzr0lQTjsCsaTjLrpefUqZ7eVbNYl0/kEN4RGdjiBw2iakqRTgmDgSQSuwMgBwLE8mGBMT1m1jEdzikKzL0qM25OOPSbziGTkko59jo4T4tRlMg2JYof49kComh1hIDg/O8fegkisNbc4e4HWg6nr/OKGsixZrW8Yj8YEQUAYRezyArdTiihKSNMJ01lCFAmms5TxOCAbRaRZguc5KNmijQLHpes1bavo+1sffhjgOoauq5Hy1iRT1uy2+SBfuZbZNCMbRfSyRakeYyTGKtqmQytLEAiM7QHwfW/owrvdmnv+MDb43nD7SJJhuaOVQUpN01S4QqJNe0sAhtEoYLEYEUYOFknTVSjdDWEgI3F9d5DCrKTta4LQYz6fDRyBztwuxyL6XqKUxiiHvnMxMqTdK9q2p+okddMh0Wg53ELapsO9PdSm0xF+4KLU8GfWesNis21RshnkI6MARRBoklSwfnXFX/6vP+JgNmcxTciyiDAURJFHloUkqY/rurdXd5ey7PGcAOs6Q5DpdkvftjV1U9E0NX44uBuVlrgueN7wd2XfIqUciMkYpBxuI0Yx7EkchXUGc4u1EquvqPYfY7sdqgLZDFKsxbJdFzjWxQ80RkscHFw3RBsI40G2Pb+4xPcD4ijB0iD8wXwzm03xhODRaw+5d/chnhPSdy2r9RWWgfAsVYtFsSvWOGJwOk5nc+7dP8GxoDrFgzuv82//9H9kOX+dMFwyXSyxQLnv2a321Ptm+F49wWZn2FxZhJOSJiOm0znYAKWGgz7JAvzQ56OPPqMoc9Kx4e135/iBpmkUrjA8fHPEo3cS3nxvgR9JTu+PuXNvwTrfIj2D9FocT5AEKZEIBwt4YKn1jpN7Uzoaxgc+XuxgPY0VPdLWIHqCGKTu6GSN4/Y4jsJ3XWTXD/4EHdBqTTxOicIJsRuRxj4ojaNgfV1g8BhNxqRhCq5PU0vmRxkmNLiTLMFzh1MjiMDzHZq2QngdYSRRsiQMDdNZiOt6GB2w33fUjcZ1fdI4GzbKxuC5Ln4Q0PXdIEE5LjgDKDCMLdoMnuts5NN2g8tseHD7YX5k8Ef3qqUsd0jZ4AhDGDuE0WAbrsqa/T4ftO1eo5Umjl2MGRKFSiscV/xennKcASmmZI/jDPbiMPbxfBfhDak9Pxy8/3XXsM939LLFcQZbrHBDjPLR2gXHo6kM+Sqn3NesK0mjBKpxaJthXg+jgF42Q+DJ03hCk6Quvi9JEgFoVjdrqqKlrSVtU9G0G6yt6Js96cEJ6Vvvk8ua3gyGJVc4+IGgrivatqMsJFJZuq7FmB7huTh2sFkrzZCUjIZxLcsyjJYo3aNUT+AP1/f1ek3XDGOd6tXvDy5P+AOHwXcBhdGaMq+QekVVfkyb/xa5W+G2DpHv4/sBu90w5uEM86nnCbR1ieIRjhvjhy4npwckSUSR7+i7frCHG83pyZK333zEwwd3+eCDt/ln3/9nzGeHvPHmPU7vHBElw+HRdopODg5Mz/eJwgxXCC6vr/C8lIPlAXE44sHpB6xfwflZy92H99FGonuBLCWbVwXV3oLrc31dIRjR1g1R7ND1OVIrrDNwJZIkGQ7QzvLZpysuznrCKACvQrFlegDvfv2Qo3uaXfUK4VuSVHB5vaKxDSopOH0nYbxM2W5ztDQ4zuD36CqHy+cFxabF2o7ZLMZleNkZx2E6z4ZRO4mJgpi61CgpWF1t6due9c0Wz/PpheH5zRW9FLR5y3jqM0oEQkKxVzQVaKMo25rr1R4ROnTiFWpyjeuy42BpcdlQFQ1VWd/6sB3KqmS33xCELnEaoIyhbju6rh+0YDmYdKQ0GOOhjcAohzCIGE9GTKcZSTKEaf5RV5ZykKE84WOMRuvhClvXNeJWcxdOhJIuSTzD4VZbxtDd4rl6WRMEgjB0kWows2htqKuK/b6gKge/exAM+wulJePxlChM8PyBotLLjrZvGI1H+H7Ifmtoa8vR4YyDwwhHKNq2payqQeJUelAvYLB/lhIlPfJ9T10GaDlIJtYoppMRSnXgaJLUR3gKpUui2HJ8PGM+G+E4FqU7omg4tPJ9TbFruMDh8miOMpqiHfR4rSVVVaKkgdsAle8JXNcgXIvRavhZGoPFuTU0aYQrkLLHYm770QXCEzRNixA+whNIKVHK4LoBQgQIV4Az7DraZljCGW1oumfs8qfIzqCly3q9wRhNUea4AtLUJU5uD0sx+PbrukFrQy8lbd8OmQWpiMKQplaEQcTF5XM+//IjVtuX/PwXf03T7tjtL1mtz6mqfLjOCx9z60KczuZYBL3S9HJYOu/3JVIpmqpklGbcuX+Pg+NDHFeQJBMWswOyeMzbr71LFCTgGI5OZ0SxIkkGQGaeN+T7IX8RJh67Yo0XOiyOAibTCauXUFcGXM3x3QnL44Qnz54jtUvVNniRy/Joxhvv3kd5W6KDhovyMa234fDBFIkc8MyNg7cLaT53+dryjyk/C1k91uxWPW1lqfKO/a5js7LsNoLzl5IvP83pqoj59OQWglODn6NNT1l14GmCpYM7dfCykKIoaRuN5425vCipSkte9tx5fcZN8wkb9SvcVv6K9fqXYFeUu5a+k4ReQF1a6twinAStPHablt06B2OIo4jxaIyDR1l2NI0mL3uqStM3FtUr+r7GFQqtB9JJlqW4wsVzBVmSoKXEFx6hFxKHHlmW4YuQXg5lf8OHPSdNYoQQNI0kzQKstaSxB7YlzUKEa+hle+u1DknThGyUYIymrg1lVREEgropB7OPMvRti9WGwAso9jmy7dByQCtJ1aN0gxADwllrhSc84mjICex2O1zHHeZ04TAeJfgejLIEazR927PbbNlv96AZxpFOUeYlVg03ozR1mS8E05nG6JYqt6jORVrBddlyttqz3rbYXFLs99RlheqHa3rblKi+BWNxLWip0H2P6iRGa9qmGcxNYph9tbYEnk8UhPieh+c4pHGCa/m9mSaKIjzhEXje7eE22HylHHR8L9rSyQu6tkIrj7o2tG2HVIowDtFG47shmB6j97hehXCHhKS2Fi8Ygls4DuPxiK7r6FuHcueT7wTC9Ykj6LqcslwzGfnEoUtVFLcUKI8oDJlNZ1hrKYqCrpfI3gVX8q0/eI8//uPvc3TwGn/zk18yHZ2QJYc0hc+dow94ePfbfO29f8Hp0TtMJ3OM7ZnOA+K0YXEI1t0zmYbIrme/lRgZU5cOsvMJU8Xy7o5v/6uE195Neevdu0yXPif3Ek7uHAAZ260iG6e0umJT3PD41YZ9X1KoluwgQcc9XubiuwGpnRDpkNSNcIuYVB7SrULKvUU2Pom3wMqMZu+D9DicTTg+muA6HXm+I8tGHB6eono4OFzgxy022HP4ToQcd8SzEG2HmX+xnOIIw5vvvIYfCmyoqZ2Gq2qLmL15+IPIOwI1QeqI0ThCCB+lXHA1SRrQy3ZIpWn1e5OF0RIpNUpZjB1SelpbkjhGeC5JFuG4BuE5w3JJGdpa4vsR+a6m7RR9p+k7jR9AlgX4gUcUDlFepTvSNKLtW4QY8Ed9Z4nCkDhxiJOY7W5N4AcDREQIeqkYjybkeUUY+jRtwXQ6xWiIkwDhOTiOIElDwOKJcND3jTNkrQPnFjXm07U9bdcTeNHQ6Jp3tK3GGodZGuP5mlJ2jMYZSerQdx1d11CVg+14PltgrUvfKap6wHm5rotSPV0/YKKVUhirGI0ylHQpK0PXFmRCEPljbFdTNdWw4DN2+D0khr4vaLvmNsIcDNY8B7SSWOMgXBDe0AAbiBCcIfsfBiFaazx/SAwGt90GOA7G9ENmwvVwHRdPgKXD9dbsy18iuy1nz54SBwFN3eF5Hmka03Yt2+01o5FLEHdgI3AEbTeAfoqixBM+1jo0TcNmXRIEAW0zJAqF3xJGFqM9Xj2vOZi/wSe/+pK6LUiy8PZGMvyMur5hoB4EyF7R9TWL5ZKutVxeveDkeMl+u+Ps2WN+/dHfMZ6M+PFP/oKnZ79msRzx4vkzpuMlaZrx0eOfko4VQdjjB4KyqDk4muKFkoevz1geJjiu5uAo5M69MVLXGDqub/bkeYlUPet1w2ZdMZnB4mBMWdVcXgxKURAKQn9O3XaEZHzv/e/yn/73/0JvOrTsqbuOdz54n7/71a9p2p7pdIQxml5KokAwinwSL6QtJWjNfJriCo8Xz7acHj3EDRTTA8nsZM+DN0OypYcNU/7om3/O2dNLnl39krsPY5yoZVWd896Hd7j3dsz0GHqtEd/+V//zDwRL8nwA/ynb4bo+fjhcC40ZmPtGW6IgwBcuQTCgsDzPH6APKMaTCD+0t0shKMqSIPCwVtFWHfttQ1/f+vOlg+oh8GNc1yVKHLywxXUGDHGedxg9HCR11YId9GZcB9fxCUKoKglG0/cDCHLws2t62YMDbd+RpAlSqyFDbRW9bG4XbQ5KWsqyR/Y+TW2IIoWDRUpoqmGkkXK4Ald1Td9IPH9ICKa+wHEc9oXEsR6yM9T1cItoa0UUxrR1Q9sOm3TPc5gvxhT7BtVrul7iOO6QaxchvRp+ZnHsMJ9HeD6EnhrGEjEcrFEc43kB+3VFXfZIacjzkjAKcYXF8yxxGOC5AtcxjBIBasB9Gy0Jo0FBcYV7m283t+NTg3Atge/hOg5K9ThGoeSWNNqj5BfI9pIgsMSBh+fc3iLCED8SNG3DfJmA0+L7CZ6XsN4MMVltIPIi+k7S9xbh+lg7cBhAURb7wcHXSlw7HMBfefcrbIsrFocR0OIFIWEQolSPCzS1RHbQtoYwHrHbFVT1jjgV3KzPubq8Igk9To9mfO2DP+Bnf/8TpLlhW1zhOj1vPnoP34v4+8//Dk8IumpQOrAxrm9JM8HBcYxlj9IlFo3qA3AFedlhbcz1Vcv1ZYdRg0p0/2HG9UXNJJvw7NOGSXSAZzxuXt3QFy2H6R3++Gt/zI9+8hMudhe4jqGvFEdHhzx7+oQwcIclnifwwqGpOg5jvvsH38eogJfPVyRpys11w/1HC5Tt2e3XhKnCjyuavkT4hqvrnj/46r/l1ctXPL36BctTwb7OObo/J5zAprhmeeLTqT0ienj4A0dIkjQijqb0rc94EqGNpaw6HNfBFd6gwUcCVxgcBFWlwAjCOCQInN+/RZumRfXydg9g6GqoS4FsxeCpRuKIioNDD9dpwR1mdrC30E0HP0iIbiWxKExxGFgAluFEtLYf5lkNwgtxXUHX9XSyZTwegB5S9qRJQtcNY4AQDt6tb6DrFFqJgYhaN7f0n9t0WC1pGwW4JKnHaOxTlz2OFYTJMO86shmUCScYZmpl6FtJUVQslsnAFugAY+n6mlEWodWAbfLEkIXoO01VdbSdQqmeLPOxtsN17DBG3NLCg8AligWeZ3HdYUE4m2W30AmPIHDRalhGKtlSVDlR5ODaZkjv0ZKNXbRqwCqqaksYalzRY3TNOItwjKCremTXYNSOINih9TM229+y27zi4uULuB15lFJoOSwWm6ag7yXzRYIQDOYQ4VFWDZ1UWOPwj3XYy+WUpukZjTzqpiIKY1zHIUtTQj+grmq0cnj3ra/y208+wvU6PF/hiZS2cqkri1Hu7YHXoZVAiBApe8aTEedX1+yrHW3bkiSD5fitt7/BT/72LzGiJM9zPGG4c/QQz435+Sc/x2oJToPjCJrSw1hF3ZRDXdbIRdseKTOUcijKjs1KoxRMJiNGWUpRNEwnMb/5+xzPZly/3NDtIbEzNmct/cbB60Lef/sbfOerf8iP//qvKFXJ4WzO9mbH8fExNzfXOK4im/hox3JxviMcD5v+y9U5va2IJrA8yXA8h22xJxm7LA4WBGGC9So0ir7rKUuPf/nd/4nnj5/yd5/8CD/0qBuX68uKZy+2LA5jyrJiOo9wMR2eV6Hdx+Bdk44lVb0fyKZRRJwkA0r7NijiWAfZdXgOw9JOSVzXpW1b6rqmbTt6OQRvoigh8GMCb8QoHTMaw3TkEQRbdsWv0DzDdVckkYsgIvCyYZFjDUkcg+MMJNp9i9aQphFeMBh9gsC5hU4qcDuEpwn8oYYY45ElKU1VcjCf4bkuUiqauqYuS0IvRLUOstMI1xCFliAIbj3RMePxiCgMSOME2SkcHIQwOHSEESwWKdb0BL4PWg/FDhZee/iAKAixt1ReB4j8YAhW6tviUcchiQcOQRj4GCUpdnusHviGUkqCwMd1gdsqcddqHNuDHbL2naxvAzIOvrDEoUfkOziOJA4CsC65lORFRbXPqesNxuxQ5hV+sKGuX3Fz/QWeU2DklrbIaZszhPuKQNyAeUax+4xi84rdao3qDWiLwKEsS9QtZSiOB7ya7wuE6w43BikJghD0oFsPi0YwtsPSEIQMyU5hyEYZQnjgCIIg5OjgmHffeZe7p6ccLQ9BRzgmousdlIZo5OEHEuNWOH6DcUu8SJFNXSZLn8WdCcuHc9LDmM9f/g7lSoJocCqOZxlhnOF7E0I/YTZNmC4CHBExHp3QSclsCfcejfGjIaocBFO63tJLy8uXFeNZRJRYmqZhMneYHQzehunURfUtSTjhzt0J1nZEoQBXss13AwdCD4RqrRSr1Qoph4V2kiSEfkaZu/h+zNtfPSCOIw5nD8miKUEQUPUr3v5Q8+B98EKP97/5OsGsxBvVLE9n3H/tDg9ef8DxyQmT0QisZTJZcH6+4/p6T9VoHHxurivi1KcoSlxtVnz6xd/w249/ysvzn9L0X1JXBcJziCONMTu02oDR1EWP6iWjzGE06cDdolR1a+AJ8UUMVtySfBy6tsMREle04OY4Yo+hQHgtvbyiky/w/RyHGqM0XWdoO0XgB2y2e5Q0WDoOjgb9uio1sg2oSkkSJ4PFuJcYPbxV4thnPI4JgkGWlKqlaWuqukQrTZKknJyc4rre4PBzhzfqbJbd3goEFovWPUdHM1wnQPc+QeBxeDgijFyS2CeOA/zbxZnSA3gkGyXUdcFu21OVkiBwCEOfyXhKXdUUZY7nOXR9M9xO+hZXaBxXMZ1OKfKO3aZit8vZbnK225KyHG4Gfafp2wGu8I+4MoCqamibmq6r6foOazVBbLA2JwsUYdghwoKqeoExO+pyxW5zjtUVsW/Y71+S717guNc4rOnaF2jzmN32U7qqoC1cQmfBdDQniWO22w0OAmtckiTGcQ2uMGgzoMqMVbRdw363x3UHx2HT9mAd9vs901l0C27taJoc2Q/efWshCBJcN0QpaBrJ6rrjtXsfopVDmDgQNvTeDTracvIo5uhhjHRXHN3zEeGewxOfw5OUqsu53F3xxYun7IsdrgvGUYSph/Y6rFejdUPX9DSNyyibkE0l8bjl/Lzg7KXm1ZnDeuVwcdFyc91R1ZKykHzxuzX7raQqLL/+uw2f/rLlyW8kpoO3Xr/Pbq24vtA0LXTKovGRrodyXHAtWrbIthvArpHLzfqKtqtwQs11ccP9t07QuBglOMwO+dqb7/Po6IRxHNJJBYHHd/7ZH9K5FY++mpIct8xPM4gEYRrSyopedoR+xNXFHseL0dYymnscnIT4wme7Mly/Erirqxe0VcliPmOUCSbplDQKmIxauu4jyu2PEPbXePoaj4pslLOrP2Jff4Tjv0T4G4xpkJ2iKlysDrBGUOY1we3GPs0alocGX4DjlswnEwJvQhi41PUVefkMnB3GKIwR9K1C9QIlh9CJNgPhpqpLhNdjjaBtxODvtxqLJgwDsiSkawuatqBtK9xbB5vveyThCNcOvnOjFXFmiTPLaBShjaJpW7quQ2ARrqGuK3bbiiDw8BhY+l2t6G8hGbJz6Ts77CKUQsthjh0AGBKsoet6HCxpEpGmEWEIQlgCLyD0MrQawjK97On7hjD00L3D6qol3wyzrJQWrS1dPczIDgPhx+geAbcMwX64flc9qi3AlhhZ0lfXOKZAOIq22SC7Al8YnFsqRxR1KLOn1xf06gKpVjTtjs16h9YuvojJd5qnX17d5jUKoiBhOlriCQ/H6UliyHclrhBoo/B9QRhEeG5IEsUcLA/w/IBRvMB3R6AhDARRHOBHAVJJyrKmqnqurldcXl3QdAUHizucLN9H2ZrpUcfkyAUvwJ9kKLdlNA24+3CK6w8w1vMXG1SrkF1P33Usjg7ww6FiTbs9o6UgnQUgGhynH5gQOGgzJDxnR4a3vh7yje9NefdrU47vzgmSkMXBCCV7jg9HRIHHwWxMsa5Zv5T0lYdvxkzDezz+aMvJ9A75TctqvaGoSupS4duQpu4RvkPgwdiLiALBwb0J42PBt//5Gxy/PWb+ZoIzveQ7f3LMwX3B4r5PYZ8RH5Q8eDfl4rpju9ds2gv+4198zKe/a+nUjC+er2mtYrXf4IoBv9bVHUoZnEhz/Cjla99+RJjA5fUe2URUOx+hx/IHfd1yeHgAQFP1RHGPH1xzc/2Yqn5J265RXc3JA0vdn7Hf1UxHrxN4h3QtJPGErhtgmOAMtFupWcwXdF2H73gEnoNWO7TNqetXuK6CfoSVEYG7IAxnuAKiOCavK9qmQyrN6Z0pRquBRCMGRJZWBlcIHGfAW43H6YC26hq6vhkWXrdkX3U7inTNgAgf1Ad9Wx88gBzKsiIIo4GtJwRS9Ug15PvTZACM6s7HEAwtQL7DftdTtBacmvnCp5MN1ngkqWA2D/F8jTI9o7FLEFisEWzWLWUuCbx4sJo6wwzsCf82vuzStwLXSVCyww8svZS3Lr3b+blsiWKBi4Pwu0Gv9wxhpAmCHsMeV7Ro3aFVTxR4gx3XWoLAx3Pd4c9DwXZ/jrEdvq/Y59co3bLZbOl7Q54PMNAg7EjHgtkiJR25GFtjjMt6XdLWDWEQYyRMJzFNkxNHCaNsgdURx4evoXrFbHqM58ZcX18APda4yH6oPvccjyyb4uAQxyFvvv06q81TDhZLQn/Odf47gsRwdVngtCmx8InciLZ0EJ6hLnt224Kj4ynWGMbZjKbo8EXC97/7p/ziFz9hetyya2uKouPNO18hclI+PfsNQeriOoog8vFjB8dTiACatsDzAjxvaHoyuubBg0PyXcN+35KOHObLKbaPSMIAp4txgbKqSeaK7//5fU4exbiJZnoYEgUj/um3v8t/+su/IDsSnLwJne45fe0OrbPj8I0xlVnzze+8yZMXzzh+NKKyOa+KxzBaU9uCVg2U43Q82KhlO+M3v7pgeTjj+npNtVOgx3zvG3/Gs88+47r5kmDWUzU1OJKul7iOpqk7jo8OcT3rEEcRm+sVbVEyzRSOfQHmHCMLpuMxfuByeOqy2z/j6vwcrUrqoqJYC5rSpyp62tZgbI9Vkq4ZMuG7zYbQl4QeyMYQeilhkBMEFb5j6JoC10LkuyRhh1EFRb7BcTR933J0HFNVFUpptrs9eb77fR1XL0vGk5iDgymOM9hNpex/r0encQzaYLXE6iHwI4Q7wEGsRYiAXhrKqsZYM/DfMFR1TttWCGHIMotwNb5n2W5Kqh2UO4VqvWHZF2qSbJAwZSeo6/LWtqtxHY/DZUbbluz353T6S/z4Bsff0fZb8mJP23S0dY2+jTP37bBcFC7gNjhuR5pEOI6mqeVwGHjDgyw7hZGKKG7Q5pq+XdO2JWUxbJsd18UVirYvcAAlJUYqjJSEnsWaHU2ek+/O0WpLnl9z/uqM/b5ms24wtHjxjvFccnjq0ustm3VBXVseP31CXTasbhqaUpIlIXlR4vsCYxS7zR7TWz775GOQPm3ZkCYJbS3Ybxy6TjMZZTh22GvsNzl9L4nSEC8UxGnI1c05rugIQw+pIBsdoZ0Q49e0bNjmPc+fFuyLnOmBR5Q6CF/w8uwMZS2j0ZheNWz3N/RKkucNN9ct1kZMxguU6QkiQ5Qp/EhzenLKbie5utpjHMHZ5ZbnL1+ClzM/HEyonTa8//4jfM8njl1G057lQcyrFxcEwkc1HeNRiAwkG91x8u4Mdy7Bkyhj0bFBnGrUqGfX9nz8xedcrK4QacnkQHC1XZPNxmybNY8vnuKOHMJDWD6IufvamNPTMWWx5vhoxGe/eIzbWp7/dk1+3lPuDC4eSRghVc94JpjNpiRxgBdUPHzd4/AoZjrzuLm5QJy8e/CDwBNsbnacnhyidc3Z2ROKvGI2nVEXmjSZ8NmnX9A3CWiP7aag2BWk2RSIiaKYunIJgpCmagj9AOE6xJElG28J4ksMzzFcofQLPNHTNHtcUZAklrpZsdvnaO2RjEIurm54/fU38aPbogzXJc0iLILxJB0MM6NkwE85Aw8QhupwayyuA03bUBT58AA4/gAnsIbVze6WMagG7FTds15fM5+O0UqSxBEHyxnYDtzy1sXY4bg5XV/hCo/FJEKqgvESvPACwwYj1izvX9LzAuvu8eISJ3yKEzxDhK+o2i/Au2S6aPCiS9LJBpwbhL9Hc4UbbBD+oMN7QUuU5UwXIUZHlGVFGMRkWYLsLU3REEYNrtvSqZI48jD0OMIQRSHWMLALLHjCG8pMo3jIMQiHrt/z8tXvCMIQ4dWsd+cDVNTxUdqQpg7LgwTfc3BdS1E0nL9s2G+HANDiMEXpFl+4zKYBjpPjOoIwGHDjZV7juNC2JZvtJZNxhvAGIGYc+/SyYbvJGaUZWg03nd22ZHVT8o2vf5tPPvmYcTrh5PCEbfWSupOUuaXZ1lDC7lrhiQhjLDgd6TggiBRSKXbbmu2qYjk/4o8+/Of86Ef/Ae2VbPaGLB1zb/4as9GM3579jPtvjnn0WkSnC/b5FdP54HnQxtD3CqUsoe9T7BqeflHjOxllUeN7DsKD09MpxX7PbLocIsdpxOdfXDI/PKDIr3nrjbuMRz40Cd98+zv857/7EYdfD5kcKb793ddxooa7by4JUklvKppGM1vGA+FXQOynXL00bK4NkYj5za+uCL2QwMl44427nJwcELkBbS4ZTVziNOOffvPf8/c//Zg+Kqk54879lK5XNGXP4eGSw4MlQaARp28f/cAVHtPphNVqNeCpakVd6cH66ieURcFuv8KxIZiIyJ8yn56glGBxcIK2krJo6CrLfDbG9WuSzLI46DDuE25WX3J19ZKXz58PWKVtRVNLrBY8efISHJgvRwgvpyxfkqYRWTailT3KDvJR4EMcOmhVARqsS5l3oAOMVmjToZVkMk7oZY1wxbDlrxqMgdCPwTpMRxGeCDDK4OByc95xfCIJQ0kcOjhOh1QrovFTpPMprr9C6Quk3uIQ4pExm0dIe4YIz7hcfcTzFx8zPciZHbTsi2cY55oky/GDhrJ6znhksUpS1wWjLOT81XOqYkWUaja7L5kvNUKsyYvHTA5zxssz9tULmsowSuZo3eH7BtdtCKMb4qRkvfkCS4VwElwRYYxD6Mc4jkD2cmhAkgY/8BE+9H2L7wrapkaZLY6r2G+2RGGIlBZjoCpqJqMpSTw8VE2jcEjY3EjaavCajycxmg4h4Ph4gWcd/viP/ozN9uXtfgeSzB8WkI5P2xgCf8zpySOq9ua2+9AhDiOEG6FtTxj5TMaHCCfirbdf4+LqKcvpgiyd8/TlZ3S6YzZLmIxCtOp5+OAuVb0jWwxYuAENFyF8D+EmlFXHZDLivTf+gJ//3d/ix9Cqoezkq++8zb37I/biBVI1bLcN+c4lLzTjSUQQBLgI8rxnNk3pO8U4m3F21qB6CwYOTgKSOOHFk4arlx0325Lr3QodKNKFz4PXxkwWPcb2/M1fnxF6S/7VH/5zfvLzv6X0CyZTj6dfXNJ0HU3X8vT5hjde/4CXLy5xHIHnRlyfd5w96Qi9iHfeuYPjaN55+wE3lyuSKOH8/JKnn62xVnL+as/7H7xJGs/53lf/nH/45d9Qer9jfjSoY/PJktAf0bcdcRQyHjuIStQ/6FpJFMcEfoSxDpgh2ldWNfm+YrOpWR6+zmuPvs3dO+8zn79OEB4SJClNlxOGUzw3xpiGO/ciwjgnGZ+zLz9jvz2jKiu2q5LQTWgqRVf39K3m8tUGQcTF+SV1s2W9fgE05LsbICDwj4A9jimZpBGql3iuQDhimI2dAF8MWYDRKMILaozuMdLDmBbr7kjjjO26ZDT2KPINfduTpQLPtRhpySY33H3jjLL5jPnhFi88o5dndP01L54+Id8X7Ld76uqa5ZEhiDaMJpK6fY5xLhGuoesNm/WKqtgyn6bkmx1XZzds11fE7ojzZ3tePr3m5kLy5Msb1pd7dK8Gr3Ux/Pdd6+K7hjjU7DY3dFWPkR1KlhTFOQdLjzRtqcqXdO0VrujZ7m6YT+8i3Ji+ldT1wEkc4B6DlCZ8i1Y1gYjo2hZpVlyvX7LZrEmicNjJGG4PwyFPYYymzHt222aIY4/HeI7L/CCj6XKE7zCdTnGsJhQRs/QB69WKrvJR/ZAFkP2AlLYmpKkls/mC9fY5k9GY+XzK0cEJF2cDpq2uW+pKI5Xia998ncub3+LagCQ8ptHPUFYibU6cCJStWByGSKei7VuCOKBvQvp+KBK2KPreYXtT8e/+7P/OL37+cyqZk9cVYejxxr2HlOWap6vPUEbS9RtCf+AVKOlR5AZrffZbw24VEYkE2XvcXLVMx3OSNODV+RqlOvwAJuMxo5nL8l7IycOEg1NBNhPsyi29gv0m4Hvf+zbvLN7nhz/6r5T+DbPpCKtcTu/MWW0aHHyMdqlqQ1VV+L6gLArefOeEOAGclqIo+fKzNe+883X+y3/5DUXTcnJ/yfPnGz78J1/l6GiKq1O++uh7/Lef/RhmF4xmHq4TcXR4j6uLnP1GEYYBbekh/FnwA9lLunbInEdhQtu05NsdfSsJ4oiTk0dIFWC0R5JM0FrgehF+5KGdHsfVhFFOPHpJo37Lq8vfsNl+yfnLl3RNje/5XL28oWs6zC2fvm1qsA5VWYO1BL4AIxHWoasbQjEi9MZEyQ357tf4zo4k1viipyl7wjCibyV9WwMNlgbZ9Vhbou0W7VyyLX9DmjpESU04eowXnpFkW6L0GtwNXnjJg7cvePL8F0zGPl9++QW73Q04Ob7nkEYJk3TCfrPnzp0ZdfeUdNRwsJzx8sVjXr54wnq1R3aaw/kRgQBbjbh5KVG5Q7czPPvtmmLTcbSccffePfJqz4PXDzm9OyYIDeNRTBxmnD27wpU+Z1+uWJ9p5qM565sX9HXJbBRQlTekkaWtc8piizbDYe05s4GB33ZDzZUZikaUVDRNzSjLEI6D1Dvy4jl5vsUTQylAEiUDT+CWK2BvC0XKsiEIBlJMGEbUdU2vaupmTTryCNMAV/gkYUjg+Hzwzvco8obFfEmaTJnPT6jqLa7rIfvB/fjWm29ydvYZVV3T9TV913G4eIvLiy1+AF1fkWSCt9495fPHv+LwIOPgMOPFxRN6ZaiahqLMcRxNlIYUdQmOgyt8wsQQpw5+JBDCwyGizh3+3Z//T/ynv/j/UzQ3eGGAi8Ph5A6z6Ywvrr6grocUZVXDzVXLftsynjt4HlSF5ea6YDwW3NzkHC2PKcqGUbrk6mnFxcsGxwPXM0ilOLl7wGr7ioOjCRfXV9y7d4q1AW+88Rbrq4o/fPPb/Oj/+CHHbx/h+x5374w5v7yibTvOX+7xRIQyO6azEE/4zKYxftTg+Q6f/PqG33y0YXcl2dzk+I7D//Dv/hzT1Tx6MEX3e95/7218Z8rrx1/j53//N9z7IGWzP+fxF5fsdjm6NxT7iu2m4htffRsRL7MfROGg9wV+QKd65vM5YRIhhMvpyTEHByN2u5dEUU9TXVPXV0SRIoo1rrdjvfuIxbJlnz9ns3mO1jmqlVjdEwUhniMYZWOSMMFqQ+gP6K0sSaiKAeQ4JOk0bV6ju5C7pw+pmnOePvtvrK9e0Xd7hChp+kumcx9t9/h+S1Gf44U7lL1EBFsQK3b5Y9a7J7T9hry6wfUv6c1THHfHZv8Zm+0ZFxfnVO0lONeD/9tJKPOhpggLsu8oy5o8L0jTYZ9QlS1d45CFh3zy8ecYDfmm5vTOlPEo4/zVNRdP91Rrl91FT74phvCMtHhkdE5FOonQveX6YovVsN80XL+sCTlE1SkBM0JvzPWrC1QvOZwf4VqHxXQxyIZKobRCaoPqNaE/x1gxwCWVwlpL4PuEYYDn+VijKasdm+1LqvoKR3T4wqdpW7IkoakrejUQd6u6om0b0iSjl/3QddC1RIHLZBrhCcV0kSD7Dsd69FWDT8Dr9z/gH375Mzq1HuSx3nBx9RSpJa4Y0FpplnK9PsPzBNPZCNnnYGK++tWvUjXnLI4dFoc+y8MZv/vd50xGB3R9gRUVVSNvU5EBNzc15xd7hIioa00YJnR9QToZRpqrywrhDv14f/CtP+Fnv/gbWrVB3iKqv/72hyynS/76o7/GWpdkFLPd9URpzJ37M7xIU5Qt9x4cEycge8N23VHsFbtVS1lWFJsaPAHGcng84mbVkBdb5ocpvaoZT2NcEbG+0QQixCflu299h//9r/6Ka3lONlY0pRns1HRMFzFvv3uX4+N7dHXAb37zmNffvEsSj/ntx1co6fHg/gGzeYoL/MGHH/L86VOOjqY4bkvTr9nutsTeIe/d/yN++rO/RKeXLOYpWkMYZ1SFRaiQo8OUl4/3uFbZwXmmB9jgcr68fUt4gwtIO6yvXzFKQpAt66sv2Vx/yqe/+zEvnv8UI8+ZZIrt+oy+bukKQ7vXxGQcTY8JnJBiW6Lanr6t6duO87ML6qKkKisODpecHB8xm85uSzZctKrZrD5Hy5dkgc/R4g6ek9G1il7uuLr5iOvN35N3v2ZyeEOYvcCLXlL3n7OvniL8iuUi4uBwQppaRmnAKFoSOBOOFg+YjA5Js5j3v3ZA1zlcntc4dBwfLYhTD2t8rEpQ0sXFRTgOl6/WPP285tWXPrZf4JIxnx3zzQ8/YD6b8fmnTzleHnB4nCHcCkd0jOchp69NWJxmGFdwfHKEbCWbq4LD+V225y6784TEvUdXhgRiThQe4vtzomiG63horZmOJ1ycvaKpatp2kAPHyRTP8anLPXm1h1pxd3pKkyscO9SZ9+2wp/Gjhl7taNqW9WqP5/ksF3OUUrctQUNsWivNZDzDdWLyfY9wPQ4PM45OxyRpyGgyQbWKLEwZBwm2EUyiQ46PlhyfZhh3Q2+2hFFCOh6BZ8nLNbgKpXvyvGa73VLkJdfXDft8i3F2aFtwfbXi7HmBUQHp2KeXgtH4LnlRcHVVkJc9wo/wgoz5wRw/jDm+m7EvCiwhUnYoKRHCkGSCrisHEpNqyEYZXaVpCsl0tMBUGZ6yxFEIjNAmZDqb4qeSvC54+OYCK0pGU4d9XhFFMS4+4zClLWv82MM0CtG6eIHi3a8d8Np7R6TjhIevPeDo6HgInwmf/+PHv2R1dY7jNWSBJEv84dbT9axXLS+f75nNQupmT77p+M1Hz9mse/7qP3/Cxx8/Zjl/wHiUURYNUnXcezBD+D1OIKn7nDDJCMIxriO4uV5hzdDb2DYVZ09XNGWEH8549SonjUI816EqaoQ/8n8QJ0N1dNu17Pc5V9dXNHWD4yiKvMUTIWVRUhYt1gqU0ig5EFK7uqBve7arHa+enRN4IaazNEVHW0j2mwqrbh8g1xv47v6QHqvqnDgK6Pvu1tkmCKOQOB70cs91mIxnWGvIqzXGqYGht866Bca4XF6/wPNqrJboXg/M+26Q9Yp9Trkt2O9qAifm+rJAuDGr6x1XVzeMRpLdRqGlZj4bsb4uqMqa+fQujpOw2wyYLaNdLl5u0X1CEk05OZlh3ZI0E6w3a85fbqi20BUdl6+uMEJDIHnwzgmzoxmHpzMO76bUlUNTGZaLGS4Ojp5hupQoyEiSGD8ALxhac73QInzLzc3VbWW0JE4TPH9o7RmPxviuh1P1jIKAUTAsRK9u9oRhgpQtrmiIspq6O0PpPa4LhwcnQxWY7JH9UMSg1GATbpqGOEopigF+OZmGROlQYFpXPUZamrIj9ha4MiUJEzbrS/LqmpvNCxp1A2T4/oSqy8GBKE7Jsgmz6YK63jMeJwjhcXW558033kLpHUpXDK1pIe+99z6X14/p6pjDgxOevfoc1wvJJulAnHUNk/GM7X7FdBFR5j6TiSCdGKpK0lYhfS8RbsSffP//xk//9m+QSrLbNpzemfBn//xf0q4Fbfgl3rjm6qpGGcvkwHD/0ZRsDFmWslkXBEHMblOzWXfU+6FZt1ctSiruvZbwJ//dQw5PxozmY8p2zeJwiUPC3//8GWE0om8CxpOAd9455sWLL/HGIZfVirfffUAaR6yuS46Ollxebbm53vLs8RXbTcXRccCbbx4yG0+wSnJ4GPPWm6+z2RSMkpSL80uUckjTmNOTU9arG7AevjvlO1//F/zs7/4Gk+5ZXbVcXLXsy2t0Z6F3mI9nxFGICGfRD3BgPB6KLGTT4fsBYRDg2EEiq+uCvlVUdT0w6G7BmZ7nMp2MyJIRo3TYGq5erchGA85oNl6C9cj3FftdgVKKew/uMJokjMcps/kY4Qp8Pxi2+K3k6vqGJIzR2mG3K9jtSzpVcf/hmPkyIgxjhPDRtmR11RGFw4LFao9802B6QVsoXBPRFpJm39HViiwZTsVAhBituHPngHG65PJyzeHBAXWhqUrF9kZy9mLNblXhaJ/9tmKzLpmNDhiNIhy34sGjGY+ffDLQgUtJ11hiEdJsKoLYIxh7HD2cEU9iylKz2ze0fYNsI7TWNGU1VDO3YrCsmh5j+qEQ01qu1k9JMpc0C9nv9milefToNVbrFVc313RdR9t2BL7P7uqazWbFNEyJPJ+8qfCCFGly4vEVVfcS57Y9VytFlg2HvOO49G2P4zgsDw64vLzED4aIrzWGNI2IkxDf89G9w/p6j+pgt6uIggmOE2AdBZ7m1dUzvAgmszn7XctscsT16gbrCPZ5RdcqHj54xG6/Zre7xnEMB8sJjx69gdItH//6E1qpOL07oiwrXp1vaOuA5XHGrnxJr1p2RY3VcHQ85emTa9I05OqyYj4+xRU1QahYryTVPrw1/2T863/x/+T/+7/+B9bbFxycjGmLlruLB4zDCTkvWNcXLE5mHN1JyKaauttijUtTW24uGzbrllE2IfBj4iBitV4zP4x4/d1T3FgyOTA8eX6DxuCIgGfPrzC2ZTyKuHf/hJ/+5ce8eramqK6ZHS345RdPOHlwh75vePblDbKD3b7k/ffeYDJOmYwmNKVENg3jLKatGnabktce3qXrt6jO8OLZhg8++ApFeY1jAoxt8L2IJ5+fM5uc8K33vsPf/uynlN6GXsPJ0Sm+UERkbK5zjo4SHj9+gbCp84Ne9hhthqvedEro+Tg4HB6cMJn5RFHIblviOIpk5HJ0NOHwaEbTFvRyqNeuyoYyL7l//z5d2xIGAbvthqYtiWOfO3eOWS7naCvZ7/dIqblZbek6SVXWFEXFblege4OWFkHAzc2GXg6kXddxMYahKstYwtBnNjpkNhux3eTku4pi27Bbl8gapukhL59cYHsIvIDtZjuUGziCk+MTfC9ku93heZpi47K6rodW1iLBNTHr1Zam6FHKxcXH2obTuzHzpc/hwQG/+fhLdpuWujZIVfLGWwsOjmfMD8ZYhibZzXaP7wU41qNr4e7pgmwUUeXVAAsNwRUNyhZoW+G4PuATjlrafk2WpUwmcybjKX3X4/kBZVXQdR2jbERZlbS9pfcjYtKhdzANMC6I4JpWP71tkDXst4rpdE4YDqwBoy19J1kuFzx78YxRNmK73ZNmIx7eu4e1iqoswQh8EePgE8djwjghHceEscMm35PnLX4Qkk19+t4l8COyZMHFxRXWERR5jbUud05PefrsMda0xFHI4mBO12tw4PzymjgKhwBM3bFZF8yXc0ZTwTp/RRA5jKcZs/EhRVEPybiypq+doTI9gdW6JfKTwYuReLx4fMY//e6/5b/8+D/gT/d4QUW+rXn3wbdYjKf89T/8iEfv3yGIIuYHwdBvmAmKnaQuDb6bME6nPH68wroNs4OYowcBD95Iee3NBwRJQFlrDo8ecnA04ssvLjk+mlO3axy3p6oqzl4WxHHIe6+/w1cf/gEf/+IzLrcbHKH5zV+/5PDwkFevVlxdrajKHc+fXTHPpgjrcbw84GA24+7RjLNnV0xnCWUOWTrFjwui0KVtJK4DX/3KtymLHKMi/um3/z0/+qv/hH/QIa3h6WfPcPue559c8/prR3zzD0558fQGkSzTHxitUVoThRF1VWOdIXiSl1uKsmS7kWSjlOPTMfNZRuAHw7IuSYnDAWtd5Q26g4uLNbt9Tn6T40cOQWiYzTPycsNmv0Xrnr43CDcBAg4Wx1hrEa5glIwYj6ZoDdfnN1iGXrQ8r2j2Ptt9zWIxRylNVQwY764bNP3dphiKO5VBtpo4Cthu178HT0ZxRN3UTLIpbS159uwcTwh8T/D0iy2mc5hNl+zXmq4xBEFMEEVURcHyYMZbb9/l7r0pWsFs/JCqsEwnx/h+yOFxxq7csd9n9J3PiyfXrC5zkIJ0Ijg5nTEejfndx18SRyllseLuw4xs7DIapTx4dEg8cpnMUhYnGUHU8fobr2O0Zb26JMtGw7hTbIjjhOlsRtf3hEFM23m47pjagAoiRtMpTXeJ413TyRJPJNxc7RiPDm7JQZaqbBCuz9HhCdZCWZXsdznTyYI4TCnLkqYpWC4WrFc7XCdks9ri4FDmJUmW0nQ1TVcxXYxwXEWcuuR1QVkasjjj4uritqnXIRQhd+/dYbdb4fkuaRaz328o9j2z+YKbm0v8QJAmI95+85s8ffEFcSbIixVxCkcnIZevdjx7umE+H1PlLY4jmIwmFEVOFHuMkjHFTjFKI2S7w+qAP/uX/56f/PSHLO76iFDzrT884V/+8b9hfb7nLz/6z5y+KXjyPEfJljCS3FzldJ0cCl2sQduGR2/EvP3eFNf18HzLbDlBGwfXh+kixg88Xjw/IwwCRukxVe7RNj5RKCjXkpGf8dU3v82fvvfn/OQ//BVl0NPUPVq5PHjthCjysdqlKQ3f/spX0aWDa3O+/a03OT5ZEGY98cSj7WF+/CbPz88JfUl+3pGELq9ebNjlLzCqZXsT8u33/y0/+28/YSPPkC0cT2d88NaSg2WP70c8e1Lwxd+3CDEJf4A1ROEw+EvZI3uJHhgOWDUQbrtesb2paGqXy/M9l6+2bDc111c7Xr28oJeSqmgwt+jr47szRuMQPxBD4SVwcnqAMvYW521pW8XNzYq+a2nrFiU1wnHxvID7Dx7gAK7vcnxyTL5r0HbQiPNyh+8FNG2H1ob9rmQ2HRMEHgcHC6TqePj6EfNlwmSS8OjR63Cr+Ud+wmefPqGsevrWpc4tXdORjTI2mz1xlJEmKXl+g5Q7Tu9OGI3h6ZOX7Hc1dRExG9/j2YvPUWrPdJqx39Xka497R39MWw1jSNXkRCPLnbszoiDh4mVLsVbcPbmP1ornz14iew8lPTabiuurDVfXV2zyC7I0o297rO3JxkNbTtNumS18MP6QCHRdhPBpOofRZDI0rcxGQ+VSKtnnLzk+OqVtazw/oKpykjhEyoEdeHBwhFSa7W6HcALquiP0fJTUZGnGeJLgCwfVGjAuq4sbkjTm/r37WK1puxrrKLQqmE6ioegjMKTpmCyakucr0lGE0h2jccjxyQG//eSXjMYhdZejJYRiThgGGHKyUcp27fDw9fd5+uITFrMpb717D8/vWF0XtNXQw3h8vOD544rtdUOaRcwWKXWzo1M1q6sCzwn5ynv3Wc5e593X/4j/z//7/0WwqHjr/QlhpDmevE15BfHda8YnAb/61XOefbljuRjjWhdlNI41OCYgGzt0XYNjR+S5wQ8cmltc2cHRjLbLub7akKUTfvW3N1T1AAO9fLZhc1MiHJ9vfuNdvv6Vr3Cc3OEvf/xTNu4Wi+CN1x/w5eNnPPnsgqro6MqeZ7+7JlYB/4//5V9SFxtevHzMzeaazW5N2ynOLlu2O4eXn665M11yerIk9WPuH5zy61+e8drrX+W9177DL37xU6R/Q7nbkHrwxoNDknjEsyeXnD015FuJ8KbhD4xSJElG1/VDTRMOrisQbogQPtYqtG1RncIPQmQv6XtJ07YoJXGwQ81REnB4PCy/jo+X+P5g3hBuwGQyJ99XlEXNflcyn8/ZbTcYpQi8gJPDE/q24+L8irZsMFaTJDHGumx3BfPFkiQZMZ1DGDko09/GXlPGo5QkiRmPM8qyIE58uuYWJeVpPv3kFXVlqKqOYl8M+q3jEIYRgefT9wrfDWlrSd911HWJ8B3G0xTfNzRtMXTY+z75dcXy4A6b3RlBLJGqGqKfpmecTRmPQ4K0wVjJm++OadqCfKsRdoQ17q2b0NA2gs31lsPjCcIdePFGdQRujO8EvHh6xm67QgjNnZN7BIELtFxfDXVYvexpu5Ysm3L/wengXrQtZX1FNrb0ekMchwR+Sl6UxFHI0JTrMZmMadqSPB9GrjKXZMkIIQaeojEW1zFs1jdsNjlGwr0H95jPJzRVRRiFCOEwHidgB6++tZZaN+y2LfNsSdleYt2W0TjCcRUPHjygqM9ZHPq8Or9mv2swMubgaM6+uOHJF1e0+5DF6YLnLz7j4DDl6nrFxcWGm3PDzZWhKBWrqxatWrQWzJYxvWqZLwO8UPL+N4+ZLjW7YsfTZ3v+5I//e/7bL37Ig/czcB0EcHf+AfXaY2U+JZdXZKOM1x7eoypz4nCCtYowCHjyeU5bW5oKVpuCr3/jiM32msPDlNnCp2kKVjd79ruKMLTcuXfMN755j8OF4f23HrFf93zzj96hYM3Nds0H732H/+2H/xl/onn1/IaLF1ekI5cgFARuxocffsDxoeXDr73Dq6dfcDLP2N6see3+W4QmgtxS3MDvfv6Uw2DBerXi4nzNG48eURcdi4MJju/ztfe+yy9+8ZdcVo+ZLZacnkx58sU5f/H/+5IknbDdtUznCSI+HP1guTzA832sMWg5gCeMA7J3cRyPxcGI+/fmTCZTmkZhDbjusNwTroPwXObTGbPZmCLPMdbh2ZfXvHp5PZT7lR3nFyvaWpEXNbPplNcfPQQUwnHpO4lRFiwcLJY0XUtVluyudxR5Sd85lLucstsQpR0iULzz5hso2eM6ljzf0bUtXddjjSbyA4r9nq7twFq6ShFFGUoNVVknJyfMJiPatmY0yrDG5d7d19nvc4SwJElA2zVMRzO6tmOcjfCDmDRNUEqwXJ7y6e9+Q1G0NE3P8jDl+nrFvrgkHucEkctkYWlKWF+M6PIxq9WGu3dOefDwPmcvv+RwmYFrSJKU3XZLU+WEfsj2pmS3qii3NYv5hCSO2G80n/7uJVUhqfIWYy3GGMqyJC+2XF5cYW2DH1hmcw/rFki1p+9bmhqqsiAIhl1N09U4jiUIXJq2HACcrhg6BOoWDBTbAmsVB4s5s/GCvlN8+OG3uLi44O69eyyWC7xA4Lh6QKIryb7MUa7EtSGnB6dodsyXKca0zOZjAu+Aze6CKHZoKouUHgfLe7z+5iM+f/wxjW4YT0f8kw//gKJ+TrqImCQnt0UcEi0Fs/GYunAxxqI6Hz9qePDGhOO7c9KxQIQt0+WYs1cFQiz5F//kX/Py7B9Q8Z6unVDtHO4fvUOgQn5z+Zdc7tYsjxx26watLZv1njffntHJhlGa4vkdX/3mCUnac3ic4QqFF/aUVYXrJDx+nDMdz/CEYTyZcvHqFaPRgIA/vjPG2pr9vibMZjw+e0Y4gpPjBU+/uGB5NIBY8rVCtQ5Gtdw5zXh05yEfvP02VmpslPD46pp10bG9KPnkd5dMkpSvv3+P1Hd4dZbzxgdTnl4+YZfvwSz48Gt/yl/+1Q9ZmXOs53J1UeLaiKPDQ4qyRAiHJA0QwSz6Qde0OI7DfDYdmPIM8EbXC2m7mrarmC1GVFXHdr3HWovviaF53Q70VG2gKAr63rDfN1gb0ElJL4fGkMl4iu+5dP1wpXesQ1PWt606Pp476JDG2MFrflsdJXwPx/h4nuD00YyTuwvu3DmlLjuiOKWTLZPxCK0tRZ7TNS2bTUUYBsRhRlVqtFHcvXfK4dGcNPO5urlAyRZPWNY3mwH+2EmU7JktUnB7ptP4tpHFYbEckRc11zc3pPGcOB6xK1ZYq6lKSRqdkCYzDg6HWun9DtracnFWsrkpEMIwn424c+eE7e4M19vihTXT2ZggSDk4nDMahxR5xdHhfZp6MOJUVUVTBoySEy6vLvCEy53TO8wm02E2z0t6OVCBu7bHolAmx/XADzzSdMR+1xJGIVoNhRqe5xKFA/U2TVKUkmRpTBSGrK83bLclfuATxwPso+96XM/h/a++R9dXQzuN3FLUKzabDaNJQhh4GCtwQ7DG4+jghCcvP6WWO5JRiLEuUTjj5cUnTOcxF+ctfeswmR5xc3WDG/ZY2/LwtQzpSG42z4i9JUJEGLckTmKyUYxWFs9z6RoHYyUP3xkRjx3Gs/S29zDgyy82jJJDfD/he9/8Pj//u/+InWzoTMN07PPuw6/TrT0+Wf0NIqlw3QRrQ2QHXStJRoLlckRZ7XnnvfvcrM45v6hIooT9rmE8nvObj1bs1yEHs1Ne/a7mW3/4LT76h8ccnFjGswlt7xNFPufPr3G0YtsYRGh4+ukXfPQPX3B8uOAb3/oaSZKy2W45vTPi3/yb7yB0x83VM16tP+W6WfNff/YlYTTmy0+vyduG6WLG8YMJX/nmgqPTCX3Ygdfwya9fkc4mNPWIDz/4c3769z9l1T/G0QHlSrO5ySm7nNffn/P2W/d5+us1ws38Hyh9yygvh7574TjMZlPcwEU7Ctn3bFYlTSXBQhLGjLKU0SglnYxIswzXdQbMsje4xnx/4PAJD/b7gsloxHgcslyMmU1nbFZ7zs9uBnBkr+jaHs8drt0YBga5A64VeJ7g6HRB2RbUTUMYBFxdXfP0yUu00jRVR9f0BF5Ilow5XJyy23Ts1g1967Df1+S7HFyNNj3jcYzvDZTZo6ND2m4YXVzPgttzdDQlDHwuL685PT3FWpemdOhajfASxqMx16szsM4Al1xVJPGY3W5H12oWswVGOggnoKsL4tghGVv6riZOJbOlR5KmwNAtsN2tWa/X9L3i1fMLZvMDDo/mjEYhnusxnmSU5RVVIenajrqqwDgYZeilIvBDZtMpWkvmyyUHyyPKsiVLZyilqet6aCT2BFmaYq1DnpcYZSnymjzfs90N+v/J6QlZFhL4Ho7r0Hc9yUjwwdfe4JPPfo0jFDeb5xT1NUEAuBI/EBws71A3O/pGc3Ryyr66IIg0y4MlXadx/JqDE40XarYbyc2qJE0XnN47wDgFs7kgSgSff/IKrVwc4eKHLnm14+zllij1cX2NGypUC29/fc7JgwBlJdPpnL7XvHqxJ99YXj1b8ZX3T3lw+C4//8V/JjraMZ6FjOKEsXufoIv5h7P/yoM3D5lPT+j7mqbrePsrRywOHbTqiZMRq1XFbt2Rph6Lg4g4HvHicUVbBiTxmC9/d8aH332PV5dfcHQ4x3UUz75coWXMT3/yhM26YTzN8Pwpj8an/PX/9hH337iDF2iSNCQMPFbXl0wSh4PMZb/d0XUdp/eO+fzJY9Jwznvv3ufkNKbrNecXJUE4QGjfuvMuF/2KXbXj3W/f5/PzV9w9+gofvv8n/PzXP+JgGTNixs2rGyI/Ipn4JIfg9z7bz3LEe9959web9RrhDvw6i7plpRmaokI3Es/6OMrBaI29LWSsm4qmbymqAoMB14LjoJQkimKiMGC5XAzcvjAcGkMdxXa74dXZFboH7JBr98TQnGuMHZp1tcVaBvssDkZqOt2i0Ph+SJHvCQJL3dbsdy1NqUmjMXXZcnG24exsQ10olosFp3eWXK/WqN5F9pLlfMHl2Q2HR8dsNjnXlyuWiwMcIdBW4bqa+XTC6nqF1YLVasdmk9N3HnlekaVzsmzG46ef4/sRo3RB31q6rsdQ0bQ1dV0AlslkBmjuPVwyXQwMPs/zuTi/QjYeV5f50NXXgu8nuMIlGUdMZhlSV0RxwCibEUcJ+e4a4QbggJI9TTMUk1htODk6wRXuABcJHRxXU1UFcRrS9e1QMeYKjDVYA1kypM7qosIXIfu85GB5hDUaKTuyNKTrFLv9mjgJyaYe00V0a9rKKYqGKPQ5uTsmSQK22wprBsk0m/hE8YRWbRhPA27WW85ebjl7dUmnOvK8JYmn5JXkYHnM8cmUm/UzHr52B6kkbdsDgrzc03Q79rvhRpekhtN7BwRexrvv3+HhmyM22wovEOzLFft9z2ySYnTNyZ0MtOXDr/wzPv3s10zvwz5vKLeK108/xCkFf/Xxz1ic+Nxs1nzx6Zqvf/M+n312Rt+0GBNS7h18LyEMXAwdSZyxvhSobkq+b8mygMPTGMcrMUYxmxzy6cdnPHtSYnRJsVUEIsbKiHlwxP/yx/8jX6x/Sy80r16uefH8gsvrG2azkO//4R/y+ukRydgliFLKxqVrBUVR0DZ77t874Ctvvsdnn7/EOjn1tcNikvLF+inb7Q7fC3nntbd5/NGe733rT/mbv/0xZ0++xLMJ26sNdVVRbGseHi25/Lzg8ZfXuDerS+7dXxKEBj+AwA9whItUHVoPtUjWlRijcDEIf2Dea8wtzt0FIIpCTk+PmU1nzGdzFosD9ruCzWrLYjEiLzaozoAe/kUURKDBSE1dVrR1SxZnLOYLPMe9PWAsjnFwHOi6jul0xqM3XiPwA5IwYTaeMk5GhCJhv24otxLdOyRBirGWvut4+eIl7b5DyYD9puP8fEtRdjz+/Ixy06F6wfNn52zXOw4XB7iuy3a7xRiPzU1J3zhsNy1B5BFEhjDWOG5NNnLJRi693JONffquYJQeoGVAmRsuzldAyYffecSjR0tmoyPuHL1B11ZEQUxfJWzXPeNsRBxHBKHHbr9jv7+haF7gevVQMKo0Qghm8zlHh0d4CGbjOdPRGAfwRYBWhvX1mmJXsd+tCMOe6TSgLndghiIOMJRFTpYmaKWIo4i27ZhMxngIXAue6zKfz6nqjrrbcX29JQgTlstDfv3rj6naFWFacf9RymwRsNls2G1bri9y6mpYmGoDX375lL73aTuNNi2jiU/gx5w975Gdh3U0H3xwnzv35uzyKx48PGK321JWNVW9Y7vZ45qYYmfYbyyqd3nxJOfFlxWffvKEzz7/hN/85gmf/+6GsihIYsXRUUiaety/P+b4aMLFq5YsnrG6KWgbF08MI8l04qFVh3Ai6nKoK5+mU4SrOTk6IHAe8PyLhrt37vPxL65wzJT9yufnf73lxeMG1bfUbU7d3HB4ECOEZLct+fKLZ3ihJo1SYn9CGkZsLztePb1GVYqUlG6tuHq848HxI7rScjCb8ujREW5q+PzijDjOSASoneXRyTsYpdmvQbYxv/vtGc2LivcOTnnn7SX/8PFPCSNLvXd5/vkVX/7dc7w2GopGNz1dXnH+8gkuLW++vuDByRK36jh9Y87b350h3LH6gesM8ATX9YbWTc/FFZZgJjh944h04vPGO/eI05T9vgDA8z3COGKxnDOZj0mTiN1uR131BGFM1/VcXa1o6hZtWpJwKFGom5rAj3Adn7pqsLi3bakuSZwQhiFK9rdvJ4twPILQxxEOVgxmmXGacH52AwiEGMIbjg1w8ZBqKDSsqoKiKNHSx5oQ1Wk8IcjSjNl0QVXU5JsCYzz6XlHVJX3bMp6maCW5uawQhEMRRRwRJop3vnLE/Qd3WB6M8KOOJHHp+pIkCUinIVVT4HsO40mGHzgY03J1cU3dbunkBuF67PY5+03P+qbl9TeOwWvoZEWUCKxRPHh4gh/0tE3N5fmWrjX4Xsj19ashCajkUEWmhgLTIEyxVqO1JYr+T97+O8iyJb/vxD6Zx59zbfnqqvbudb/u5+eZcRhgQAMSJEGzIonQaleriF2SC3pSXEorxfxBUVrFKrRy/3C1lLgMkUuKIAmCoAEIYLyf512/9q581fX32MzUH3luVXXPA0iICmVERVXde0yePPn9eRMztxiSNG1ZqlKVlJWiKgX5JKfVahH6HsLAoD+xgVJSk+Y5Ung0WwmuJynLgtFozOLyHKsnlhlNN2m0BJ7nMOgPGQ5HZKlic2NAGNrmqoHbYG4hYHOrhxdI4qbGD5XtxlOGHBxkUDnW01OMiBKH0G8jXVsurKoUjx7usX5ykQf3Dth5nNJs+7iO5tlrZ2nGy/SHQ06eCXj1c116/Slz83XE3TRjZ8ND6BCjc/b3Cr77q4/4k3/sP+Yf/9N/SLws+eT2Boknee7iFXqbU3r+PbwkZ2XdYzLJ2HiYsfmoZPNeyrRvuPdgk8WVmPXTLmvrEcNJxsbNKdu7uziO4fH9lAe3JmRpyed/8iRFXnF6/TIP7++TjqH/OOfEqWU68yHPXr3KpTNn+Ff/4NfxZcRgmNJoejx79SQXzi9RTIZM+kNCv0N3YZn9yX2mxQ6LSyGLyyHv/vAhw96IIBrTHwwphzC/1GTu9BJbj3ZBSfTAoxi1+F0//Yf4zV/919x8/wauJ1icm0dXIe25Dg8eHnD+9DxXLizjnLjS/UpVGpJGiyyr8AJDuxNx8co6zaU57j3eRueC4e6AKEwoi5I0T3FcgTZW3J5fnMNoVVvVJaPhhNFwglf3PCuKklajgzABe7t9TGVr80vHpawKAt8nCiJUpRmPxuSFjSQ0StkWzUIgHYHQguHBBN+POHt+iaWlBv1en/5BTjpRTMdTJJLxoMDDQeIjlE8SBzieS6VUXcYa/EBRqpxibLvURI2QLEvxZMRkoBGVjyoVlZiyerpBs2278OztpAR+zMajDQ52M/IJaKyHww8166e7TEvN/u4EwZSVVVuhNg4SDvbHNJLE6rxuhhsYxuMxWZpx985DpmObWlxmUKaCZqPF3u4A3wvZ2HjA3NySDVCqNI5j24QLYyv8TgaGOEnozAU4gcF1YTQcAx5zXofp5pDCVERhQP+gT5JExEkX1xd057toNMPxiGk2RnqKuYU2yycW0OQIp0Lpkp29fRAejhMghMfC4grj0ZTpsKDbWmCY7uCGgkanwcJyTBh5KOWyvVMyHma88PxFGlFIe65NoytwTJOyHLKz+4DJyPZgFNon9B2iJGR3U3Hw2HDzg22m6ZjzlxcJItja3ufsmVMcDHcJw5h0HLH9KCOb5nQ6HR4+2uLy1dO8dOWLbO/eYmO0w3APZBGyvnSBD+69ycLJnDjx+N63dqBy0KVLf38ChUczifjZP3qF1ZMFedEnCCI6XQ/pBiwtdvF8xe5Gzv5GxmRYcOV6h7e+u8sPvnmXaTrhxIl5Vk7OsbnRZzIccuXMGZ4/9xw/+u4PGKY7FIXg3Ol1HBSriwtMRiM67SWiOOY3v/ZdHj0ckiQLLC2s8IPvfETou6ysNrhxZ0A61SytzbO+dhJZRdy5scuoP+XRrQGdxim+/Lt+jl/6xX/AtavnuHfrEY/v9hn3MyIn5Poz5zjYHTOeljjjnK+kWcF4MGJ+oY3RPr4fcP9Bj63NHr7roStFlhX4kWeNUgpbDzwKEY4kL1OqKkO6Dtm0wHVdqiInDkOEkAhhm2kOh2O01riuQ55bt6Dn2yYVZW4bRBpjbBkt21easiyoKsu5HCHx3Ji9nRE7Oz0mkwKjPSQRqqzQlcITLqpQuEg84SK0wegSjSCKYsqsIC9ywthnaWmedKLxAtvMU0rBZJLiEpKOUqajPueeOcWpcwvgFlRlxqVL15hM98mygjJ1WV6dx3N88klB1FE4CVTjEStriyzNLzDojxj0x0gREAUtNrceM+ynNBJrUY/imGazSbOZIIxASkkcN5lrr9kqN0snWVtbZzrtMxoWjEcFreYCZQlVaXADl2YrJokTtnYeoUzJ+qlVtFY04jl8r0UoE9RIEyQxxpFUORg5pt2aZ3e3R5ULRuMM34trglzghzmD8QZaGdJJih/4dFodsrRk0J/iuiF7uz0cx+HE6jyNliQrR2xuZ6yvXyQrdhn0c/Z34M7NAxaXG0wP+jTDhO3+PaKWZrnzHMNegTZDoiQgTV2yoQQcrl2/RD7xONgf4jse6TBDIRkNUlZWVyirFCkLwrBNkTnMdxeZZns8frjHdJRy6tQaX3rtZ/jbf/dvsXK+zXg6ZtrPOb/6LFQBb9+7zSc3HuNKQRR7zC00WF4NuXRtns6SYHtnj2a8wJs/fEA2gW/96g4P76doFbOyssx4mhE2C17/0gK+1+LWhwO6Cw1rH9o+QOc+q+sdnn9hjS9/4Sdx04Bvf+M7xPMhSgR05jVf/vLLSOnxwUcfMb84T57DcDik3Y4YHhRcvnoKZXoM+hl37gy5dOkiS0tL3Ll3j8mohxQ+vtvmxge7+DJkfeUiP/3Tv49f/qX/gZMnY/r9fRaWGvzcH/xdDPa32T3Y4+HWDm99+x4OofeVKA5sO93RlKIwVCpDVQpR+ejK0OrGrJycY2Fpnqoo0UIzGo8QrktlFEjNhYtncV3J4nyXyXSE0YrBwZB2q0kYhHW8/AGOY33G83PzrCwvU5bKhggqjSMclKpwBKiixJr2bDCRkLahZVkqhPAoC0FZCZQqCd2wbuBg7Q66VGhja+5L10UbiTYGVVUEoc3VHvRGeC4I4+D4BaXS+I7P6ZNnWJpfYjQYETdCmt2QSmQMDuD+7SHSBHh+xebWPaZjQ57aSMOwKVCy5GBrSHe1S+AoRgclqpCko4IoaCJ0xGgwYtxXeE7IeFCxv5NysDOlyFx293osLM4x311AK1ur/uGDTU6unSTLRuSFwvEkQeSgTIEiw/UMFy+cZzDaJow8ygryLGNja4vNR3tMJ4bJoMQjxpEeozK1fvtIs7iwxmAwsgU5XYMyOd35BkmnQmNLnVu7hku/N2A0GdPvDykLh8ePd9nbGRPHgpXlOcZ9n7QY0ZiTDKd7ZNmEYa9k1M8BQyeJ2b/XR6cpr3zuNDhQjLrsbE5IiyFpOmGu1UKaJkUx5vXXXubxg32KaoznG+aX2wShZnej4vYHO5w6vc6DRztsPOqTxAFGl6yvn6DRCGl3BKfXL7Pavs5Xv/ZLLJ5xWD+9xJl1w9z8lEExoREYkoUWvW1NmQskEVlako4n5PmIhbk2O9sbXLlygemk4MGDMc2oy/xSRbcTc+fjLdqthPOXW9y91aMRt/B8gao0n3n58wgqPn7rAY2mx6mVE6x1T/Odb36fwit5/HiXCy92uLf5Me99eJOf+ImfZmt7k+2NPp3wMv/qn73F6288x9Urz/L2D+6wtTEkjiKi2CVqZFy5tkQcdUHHfPcbN8imhjj0OHXmDD/xhZ/i+z/8dS5dmmc83OHFFy7y9d/8Ns+/cQXT8MgPMj77+gXkpWfnQea02yHNbsXcku33dnLtFK2ohatcXCkwQnH77i3GkwGj0QFx4qONrQjbbFgVQAjFo40HlOWEVivi0rNnMNg2z/t7e2ilkI6gQhM3Eja2NhgM+uR5hus5CAFVWZGlGYga9EKClBgDCAcjNV6giOKQoixYW1+gyKdUVYXn+wSBx+KZDhdeXefCa+u0zoFsaRAKITRpOkFVCpeA0AspiwlxKFlsz+NJj53NHbJJhqlsW6KNzV16+wMWll3WTrlUasqoZ+jtVyRJg+5cwiQdUGaCmx9s4Yhl0gPNZJjiew3WTpwhjjp4IsbkEqECQiehSDWtuIVQhior8D2ftROrDPsT8lwjZMFokKFVxXDYJ24kJO2IuWWJEw+J2xmnL7Qp1YjhZECz49Jsh6wsn6CRzHP5wvO0kiWGuymjUYXjNugkC5xYXbONPTKXve2UpdUWc4uC5RMu66ciHH9UewYy4kZJFEtc16EoFK4HYehwsDMk9NqcObfEqTPz3L//kK3HY7I0JYoES8sN0kmOqQxxrLlwUTCdbNOK2qTjgmzSZ9pXOLjkRUY29Yi9OR7ef0yZ7wIFvhPTbUdIt8IPNNPxkMAzrJyu+Nk/vsIovc35M2d44dkLmKpiZ2eDne17LCzMsbR8knfffx9jStZPLBL6iqLcQYuK9eUXWWm+wOPtKc0kYu1kzPJKQlGOMRSkWc7a+gL9/oTRKGP/4D63b20h8ElaNmDt0cP7rJyE3/2zF/nR93q0m+s8/+I5hvspV68t48b3ufBswvnrC2ztb1PkBRhDoXMebDykdVGT+lPcpMPrX/w8pUlZWFomnSp+7V99lVc/e5qo1eebX3+L2x8NWF3tcvpsQpFVDPdaNKJLPLyT8fXfeJdWHNNphjheycJCg2zaZzze48btW+wPxmTKQbuGm7dvMNGPSZcPOFgc4vid6CtlXqIq7Mt1AlZWl0nTEWVVEkQ+vu9SlRWucKkqxeryEq1uk2a7QZRENkfcEbZO32iC4zgkUROMIM8KJpOUymjb4jqJabdbJHHMZDIlnU7QlbZGPM8HjI3RRyCkxHEDMD4aievZ/nWIiqKyATCqqhgMRqhKoYEwChF+wdxCwOJCg8WFDqPhgG67QeDbfnR5MUGYCulKAs+jmTQZ9jN0ZRgPxwyH9tn9KCRNJ/hekyRqMBj0ObV2mdEgpdffq6vATCiynCzN0bnh+avXWGgt4MqYufYyO5t77DzaRQoH1/G5/fEtqlyhpiXlJCckIHFiRKqh0FRGUaaV7WWXFqAUSysrbOzcw4kcVk55xE2fRium2ZF0FiI86TBJd1BKcnr9DNtbG9y99ZDBQU4x1XiVxkxLth4/YHkRplWO1j6e2yItdlByiqEgr3LyYkoUxWRZTrfboFBjsokhCmOShoPnOcRJgh94gMPmxoTJRLB+aoG5RY8gljy6t4OpQna291lejjhzep7xYIrrSq68sMpkmqMJSbwl0ixlb7+PUC5N38czkpXlkJWl0+w83mZuWVCkglOrLc5c8Gl1UzrdEG0K4hiMrsjGmrWVOea6TdykQjsV5Sjhiy//Xr729V/imVe6hA3ojVJOn3qVameJjYN7SDdje2ufNJuyuOTbnox5gu9L7t55zLnzHeYXIgSGF148xdqJgHbXtfkHjRitXHp7OWdOnWFn/4BpWjG/MM+NDx8xGWcsLqww6A84uXiRle4JfvDO17n8+RP0zYDeZEqZQbfRwZcClRfcvXWfy1cusLu3yd1bj+ntjzmx3kJrRTqx/RbuP9jhrR99wOMH+wz3p6gi4/SZOaSjuXTpOc6dfYV/+sv/hH6+RWfJB6/CbUnKaMLKuSZ+S9Pphjgq4Ct5WlBVFUHs0Gl3qSpjM9WGI4qiYHgwIJsUVIWhKgy9/SHjNCPNcrK8wHU9trd3GQ0zHAIcGZGnijxTVKUtf22MRgpJs908dJnleY4uDY7jWmOetrngCBu+axt2SjQG41R4ETTbIXPzHab5BM/3mYyndastTZnWZbaFxBM+929tMTiYkE5KhoOSbFIRxSGNpo/nBoyHY3wv4mB/xGg4Ic8rAj+k2WxSKWs111oznZS2bPQoZaF7muk0pTe0fvV2p8OoP7QGSGA8GjEZTth4tM14PGZ/b4+qrMinGd1Wh2yakrghvuPh4UKp0YVGKoEqNCYXFOOKfKgwORS5xo8DwnZJ3PQRnkNeDklaLkiD7xzwP/mpEyQS3vvRJqvuaZbcFVAuuwcHOI5Lo9Vkc2+bZD6ktRyxO9ij216nYoLjVcSJQ1EWeJ5H0mjhOj5h6KNRTCcTmo0mrquYpilauTa6sswp84ooaiOEy9qpeSozpN/fJ/AiVFWQRA4L3Q6PH/U5c3aNk2fnWTjh0RsMqSoQZZvt/R6jyR6urji1NMfppXnmF1wWF85w784Oi8sBp9ZP4HkjkAO8wMH3Q5I4wg9GeDIBo2g1AxAwmPQoTAFZhxcv/iTvvvddTl9q8fDxBs32PJEf8PjDXd76+D3csMILJIPhmJWVBoiSlRMefiC4fGWOdrPFzY936La7ZOnYuk8933YBcgO2t8acv7DGzs4BP3rzE85c6LK9PWDQ6zM3P0eYCIajEfOtNp5j+Pj+O3irFQfTA6g8OlGbwIRk/RRXlAgcvvmN97h+7Sytjk+7Oc9kpFhamOPdtz7GcUpe/9w1lJgwP+9ycnWNVmOe3f19iqri4oWXOHf2Rf7N13+JtfPQnvfxG5Kp7tFcigkTjyT2yLMBjonEV6SUSFewtmbLMY3HGf3eGImg1WwxGg1whES6kqqqcD1pK6nqkjiJbb93K5gznWbEYYO9nb26bxogrC/e9VwMNhQ1LzKMNghjG0kGfkCe1Z9RD4FtYYxCiwo/cmxapKrIctuDTGhDq2VLQvmuR5XbSL5eb8pkUDDaT8lzhTGK0PdIs4p0pJgMc+v+yzVUAomDKz1QhqqqoI5E1AiKPEdrKHONVAlpntHv76K1DRMOwxCDwXddut0uaENZVnTaHYIwJJtkFJOMk+sn2d/dRWiBripL32qC6DquDVEWDihoNzvoyso/Sha0Fl3CRsx+L8WPBUFi8/3T1OcLl07ycHvMoz3FUniSc4sXMK6kn48QouLS2TVGxTZZnOLEEEUunhvT6AjG2QCM9fVrDOPxBKMcOt0Gg2EfXy4QRT5CVpSFQ1FohNRUqrAxAK7LwsI8CI10MzCaKhdIHZDnOVJqnnv+AlWZE8YKL/QYDkfsH0w5vXQVJTKG001OLjRZm29xeqmNYYiSMf1eynxH4Hs5RqYIXzG/sEQURpiqJIkj7t0eEIdN8mmBEA5bB9s02m2a3jIvXfoyB72H3Hv8NllRsr0z4ur5z9NUJ3l48BHKaE6szzM35xMlmiCSOE5Op+PSasZ8/P4WqgjAWC9UVaq6bLtiYaHJaNJnYdHWW5B+gQDG010uPtNgYSFk7XSA5+Xs7Oyyt7vH+oWTPE53SMKY9c4S189fwy0l2WTE6595hdu37oOpOHXyLEWuePhgg0k2wJOKxW6Xl195gf54gzDRXLiwzsH+iN5gwNqpVRaXTqLKhBeef4MPb3+bZL7HNO/hhgbpacLEIW7a5iyuK3BEwleM1milbdZXbg1IjmfTVafTFCmlpfpByDTL6MwtUhpDs9WkO9dhPB0yGAzI0ow48immGcLRttqL0XWMuIfruDhSEAQBjhR0Wl2MgjzLMUYjhCAv8sOusnZIWwMPSV4UTLOUosgxQBRGJEnCeDLFFQ5CCUylkca2pnK0S7PZpjIFjlOxvLLAeDym3e4Sh23G/Snd9hwSQSNuMk2nNOKYPLPZb47nYhyDdG3lnsBPWF4+R1VWFOUIz3MwGlzXZTqdsriwUEsgiizLKMqS6WTK3u4e6XjC9evX2N3eJYkTyrJEa4Mwpm7aoShMgQoVhcnoLnfxI4MTaLzYozXf4M69TYpK40oXpaYsLydk4xhfXOfje3362RAtFTce3kK2PG7du4NHxVow4OylkPB0m7mGg5QghCHNcpKGYX5+DikFRWmLbkoRIJwCR0oi7wx5lpGmY7Y3+hTVmPnFmMkkZ31tBSkloo7FkE7G0uIc3e4CcdggSXzOX1ijLKdMBooo8hAqRGiPIIgxWYQbFSTtnIZj8FXFcifBi0s2DvbRQDcyVOUUwhgjKqQwhL5HM44YTUaEYYNsCnEYkJcTKgRe1OL08gXW2te5fff79NMbCE8QRCFn155DTlw+fvRtDvpDdnp7rKw6LC4m7O6PaDW6BF7MJx/toysP6RoME+LYpdIFsd/hxofbSCkJAsHdew/I8gLHg8lkQqfbYGkxoduNee/du2zv9BkOclYWzuPHXT54eJfTyytcOXmOhojpJB2K6ZCkEdNsz3HuzAU++fA2qtJ0upJrz75Albkszs3x7HMX0c4U6U/Q2iFLt3n5ledxnEV+8zfe5Py557h2/WU+uvNVSu8RayfncUOJ9DRxMyIvxggUUejh+G3/K17gI4RLmVmqVumcqspRpak7yxr8IMIIiBoRG/ce4vgu66dWyKoJSRxhcs2z1y+Tlykn1hbrAg2Kubk20+kEUwk810VITbPRRFXQbs9z7dlnuXPzVt1F1XZqEQgQNlZfCA8pA5AGbQpKldNeCxCRZmG1S3/ap8xTVO6QT+1mdQKDawRSueQqwyDIR7aE+LlLKzSTkFMnT7K1sWGlj7wkz4taJbH16H0/wEiNqjKitg+UeI7DfNCh2Buwu7dJNi1QRcBw7JCnimlRor2QwUFG//GAaTpFkSFRXLy6wmdee5bHG/c5e3GZM5dW8BoZS6cSls80WDnX4vxzK7zwxkUuXD3F+cunWDs9D94EP1I4UvLw5g6DYY98lBG6Mc2wSTnxebQpuHnvLlEDumsJA9OjuRSSmzFQcfH8Mo3lkF7eI3Y0BsNguEvgu3TnIh7tbqEdUMJQVopA+LQSia4KHN0ly/oMB/ssn2hx+coavh9Yoodha2eDTmeOpYUTOP4I1ymo8hLXNQhTEvsB2Shnsb1E6LioqaIZxHTbMXPNVZTa4cRSwmp3jXOnVjCmIi0yusvLFOWU4WCfUhumWcriQhvKknQ0xpEOqV+QVjmNJKLVKllZatJuzPPspcvs3Btx/cKXuHHru6ye0+TVhDCRTEY5eljyuLcJjubl11bJ8pJ0UjLf7ZJNDLu7B/QPSpvJFns0Gh2Udmk25ikLxWScEvgJ9+5v02g08FyIXB9HWrV2aaGLK0I++XCLS+cvMtz3eO/7D3j/7ZsopVmbb3FqaZ7h3pTpuODD996j1+uRasPdT+4zl7TotBIWljo4JubBvX2COLT7IITOfJOv/eYdfupLP823vvkxb715izTPuHDhGs9ff5kfvPfPWDydMykmjMcDCl2A1IShSzMMMdMUEZ+OjHRdskzhitB2JVFTwthBVYK8MIRhRFFmyEBw6coJtJhy0JsSxS1a3ZD9vQOacYudnV2qquL5F55lb2cbP/DZ2dwhnZY04wX29/ZZWGiTFyVaSchdTp4+yccf38CVNhtMKW177+HYstca203H0SRzPq2lgMaqS7PbIMsKqqJgsjliuOnRClrsb20TzknW51fpbxTsZn2EUCytL7G8eILdnU3u371DEsbMzS9x/842aI8gdHGkIQwDhoMhjufiJx6tpRb7kx1CBOmk5PWrn2fvwYgbE0iufYb1c9dwOktQTGj5Hp4z5PqqQzC9R57eZWPjFotLbRYWWiRRF6Ml0giKsiDPDFlucxuKPLcZdqXBlQ2mE1sXL4gr/LDiYDCi015nNMlJ0ylRHPPo4WM2tnoEgaRUI7rzbc6eP8XW7hZJkrC9vc3du5tcunCV+aWQwfAxSSPA88O6R7sirzKIfBxX8vEnt3n26lVk5pFEObv9hzxz8VV2enfY3t1nftEjLzMOHkMkA5qtFidWVikzh0a4SqE/odmQmCpkeXEZ33XxXYe5boeD/T3GY9uX0A98ZFAR+XOkhe2VGIVzjEfbRH6I0ppSV0jfJZ2OSdMp49GATqvFNJ0QhiGpLpErDdK0Iu8fsL4aMB7lSJb59jdvovI5/uZ/+Q/47tv/A99+578jSCSt5SbXL/w+3O0l/pu//99w/ZVVlk96HPQOWJo7hdExH35wlyvPrnHzxmMuXTzHnQcPOHfqPJsPH/PBrXs8c6VLM3bQyrC8vMD9e/eI/Hm82OXEapedzUfkhUsUdXj4cBvfnUdN5nj43hZ7WzssnApozQkSv8F0mLG44BH7hkZjjlIk3L+1gUkVrXYHIyWf3HgI0tBsB3zuJ17isz/xIu99+C4P7mzy1g8e0j8oSKsp7eWAn/3p/4Qvf+GP8Lf/8V+hc+Yxu3v7RFGM6zoICZ1GQjoa0fEiRPt805TabrIzZxfY39sjy6fEYQwqZjDIKKqSdrfDiVMrVHKTlVMR2SRmayunPzig3Q6JI5ifn2PQt62ZRqMh3W6TvMiY68xhKo+tjX2GozHPP/csuzs7+J5nEyG8iE8+uUXg+Zw6tUpZjLn1yQZau4R+gPAUcTvESwRey2V7b59S56yudphfbGKykv5jickNo70B1794HscITnYv8Y13v0OrmVAUYzYfHDAZatqtiHSScfb0BT56/y6qgCQO8XwXozXTdII2IFyBm4RoaZhvtEhLj3PPvMLYnGS3/SwHboOwvUAYlyybu5yaD5iPdljvbOKmt3HyjEC2cCRsPhrSCE6hK4ErsMbMMkESIIUg8Gz1G9cPMUaQZRnKgaDrUOotHj6+Q54KvvX1d4j8kJMn1vni5z5Po9FkaXGBdqvF7u4+o9GItCiQrkNe2pbiXhBTqilG5khHUBYlQRBSVhVXn32Wm3du1TX1axuLDhDOBC2GdDtdtvceIYRkMN6l1Wpzce0FikFJGISsr64yGmTEYZuy2iFPRxSZZjqZMBzZyr4GzTSd4gU+0hF4oawNimPanRa+76P0lCjR+K5LmWeooiDwXBwBWZaSlwVJo0GpSobTKY92NnCbFdOiwHE1J882ubu5w2BgyHOfUF7iD//ev847H/4y3/jB/4Mv/MQb3H78MXF4kvROSF/u4SQDSjHh5Kmz3LrxkLWV8xzs53z88T2+8IXPsLHxmH5/YhumrCRoM2ZltcH+7jbnzl6hP9hhOknJJy36400WFg1Li/N8+N4u0vHodrsMehM64XU23usRepKD/BFzS23uf3LAz/3BL3PqXMLB3hbp6IBhT/C973yEMh4VgvkFn9FoyM5Oj3TqkOWGP/onXufegwcEIexvFdy/12fxxDwiHPEn/sh/zvnV1/lb//Cv0Dy5QeyHCGwxWldKVJET+K5VpeOzsfEcj7PnT+KFY5QquX9nB1UJPBqUFaRFgeM5/NTvfoVUP2I43UE6LdJJwNaW7d91YnWe4aDA1SuEMiBJYuJWYjPGnJDpsCQK2zy8d4eD3g7dxZjxZI/JeGir5SjNmTNnOHN2gWeeWWFrc8I3v/YW+ztDkrZLY8GndAr64xGd1jyj8ZhWs4F0JFEAZtLlYGufKs258hPr+IHLG899ia++9XX6Oxn5cEJVTEHZwp1J6KFKiS9aFJnGkS4n1k/geS5SwvLqCdJKsbk/ZFwJ8jzG6SyzdiphZxceDhtMzJTVWPN7no9YX9mjnN4iMCl7wwP2+lMitcpC6yRCe6QTgy+XQHu2gIkjkFLh+ZJKlRRVyXSa4wU+RijmF5qkquA3v/cteoNHNMIEUTb4wms/xblTZynTjLXVFeLE4969DUaDAoTEoKhMhamNo47jIISgqhQG2yZcCAchpNX1kayeWOPO7bs4UlApGzhltCEIbOSlTcgqUaayQVJGEHgBjaRBp91CFRV7e3tgNIvdLkkS0WoklKqg1ztga3ubXr9fl2AzNrajzBHG4Dq2jNj8YsLyWoQuC8LABVXSDH2qMgNhiJMQLRXaKIqqwPUdtB4yzQsm1YT97C6lHOJ6DYZ9Qygv8NxzP8/f/5X/G1FnkzyT9LIthCNhs81Ajrl8fZnd4QZnTl7nkxsPaTbn2NwYcGK9QZYqHj7Y4sTCeXYORrSXJGXaoxHl+JGH0RVLi2s8fnSAlBGuKdjYecjJcye4e2MfKXzWTi6yfmqOxeAN3v/Nh9z6+EP2qy3SrKDbbPMHfv9PsrM14d7jD/iT/8FP8+u/9DXGueHOziPCdoOk4ZOlKeNRyt5Wzh/+Y78XR07o93b53T/zh/nv/ttfRJuc9ooi6cJzZ34/55e+wH//z/8GJy4MCbQhSRL2D/bptlrkaYZxDNOqQISrkQljnzB2cT1wPA+hPEbDnDhsk+cZ43GfzomAL/70c/RGj3m8+YAgbLJ3MEKVim7rDK1wnf3NPr29CbIQtiKuEyBEhCklcXOBRtLic194jbs332Z7eJf799/HwYbuDgdDXFeyMNek0XAYjyooA/qjEa2VhMXVOWRU0ln0CDyXYT9FV4LNjT3GkwKRN/GMpNVIiBZgrtsm7cHOaEiZVshCUuQFggLP9ZBSIoWDLiVzc8sIIym1wvEMUdNBupLFlQUe7DxkeW2JYHGNxsIyJ+KUOadJWnQohGDRn7Iit3jc61NWGlO44IQoP0SNPNAGV8SUVYUjE5tY5EJeTilUynC6w/xih7L0qAqJ0imnTq4RxS5/5+/8XYbDlOvXnuWLn/sygdNmOhnRasQ8//wLvPvuu+zsbuH4DmUhEDJEOAYjisN4CCGsi1Qpg+t4KKUR0qnblrkUZcm1q1e5fec24+GgTrF2QLpUynbbdX1pA6BwsFTBNmEpS6sHh2FAI0lYWVljOhyzsfEApSriOGSu26HRiHE8l/39XR49us94NCQOA1vmWxuMqiiqAikNlaqIfA8pNb7r0G43WFtdYTLpEcU5o1EPrSvOnTpJ4Prs7vXRvqB0hlSmDwgcAvJpQmPxEr/01f8X5y4kxH6DG3dvcuv+Jk7ZQHQUrUUPZTS7+0OCqEtZBnS7XfZGO2xvDTlzcp3HdwcszLfIsz5Jw2CE4vzlZVwv5+P3+oRihaUTJbkZcXLtGX7wnXfxgyarJ1tMszHjYclnzv8xri+9zv/hf/+/ZU9t8GBrn/W1BufPLPOj729y+dop3njlFGZU8v233qfHEBG7NJoNPM+j19snChOCUDHfWcBxFffuHoBx6Mw7zC07JM2QC93fw4nmZ/m7v/w3OHs1petbFTIrC6JZM40yw2/GiOR0ZDxH4oSGJOngeSHpZELvYECntUKh+xTlmJe+fIqF5YSl+QZKT9jfnbK3W7GyeJVArPHP/t+/ihM6nFxb4MMffkiZubhRC4yDIz2iZgvXDXj26lUmB1tsj+9Q5Af40mM0GFMUJWhdt9NybW97rcmqApn4rJ5aIIgMUSOgmQQ4QiIM7Gzv0m6cZ2lhnblWh0YcE/gGXZVEQQe0b7mUqCgLha5AG0FpFFAhZImmAqMxIscNFV7g4LgOQeTiRwY/MKhyFzWd4lYdXDOHKn2ytMIVEY4JKCpJVpQgbc1CbcAV0lq9haSqNEiJFhVG5EhpQ2KDuCRuGorMx5QJcRiQJAnDwcgmN7XauI5LUZQYA5cuXKLVbvOdb3/X1i9wHISUYGYGUQ1GYf2odtj8h7q2gQCNxAhwhEArzZVnLqGV4pMbH1FpjRF1HRRjYyKkACkEjrTSEhi00hRl7a6tpQspJUuLS5w9d5YHDx6wtbUFaLS29Ro6nQ5nTq/juJLHj+7zzjtv2aRuY+rkKQ+jrZenVBXSc3GEoN1ssn5ikaUlSTMJiMOQ/t4OyBHD0YF1F0sIgoAgsPX/tNH4scekGLK3/wDP0ygqRBgyNYbtcZ9c5Tzc/Ji9fc3S6lk++mBgXbmRz9b2mJ/7vV/i8e2HnDy7wLsffsSps20aHQ8hBI/vb/Po0YiTp1Y4e0YRNAw3P8pRyuXq9Uuk5Ra9gym9A8WZ5uf5iSs/w9//7/8OP7r7XebPRpy/uMKHb++zuzvghevrSFPyR/7Az/DdH32HnXGPqcpxA58sz8jKDCE0fuAiXJcgdDBFyiTNWF7q4Di2YM3Lp/4EJ5I3+L//4v+SC89nLMUd8jynrEriRozrORRVRW84RFz//ZeN5woePdygyAWOcPHqLjSNZpvuesbCmQDheYwGPXwhcbXPi8+9xrMXv8BHHxzwG7/2DmUlWDu5QOS5THZS2u0Vks4cSTNECs3i0hJpWrC2usq773yPf/hP/lvi2JClOcVE4fsBlbIdZJsdnziJ8DyXIPQZjSe0Wk2GgxRPJkSxrYIznUxxHIkrGxjhEngeqiwJAg+jDVle4bkejiMpVU6jHeAHkkYjImn6SK9kYTFGuhmBlyNFQafdpKoERjUocxdV+Mx1TlBkPfJ0RDo0UIVIEdke7YrDIiKVyZGeFaPLMgdVN7LQikqXeKFDUeVIT5JEEVEUgpyQFT1u3rzPvVv7/Nzv/x8hpYsjHaIoYTpNKcuS+blFrl+/xqPHj7h9+zZSuDWosa5PI2sviLHgxwZBzZKeqGUAXf9Qg1lrTafVJPB9drY3UcbYgKk6ZFpgjxNgiW3tahUIyqq0nXlnURxSYrDE6PTp0ywtLXP33m12drYRArI0JYxCoihgOh2zvr5OnhUUWcH+7j7TSYqqDI4jKcqcQmUYY9fQEYLAdQg8j0acMJ30WF13KYoBvueC0cRRSDOJ6XbaGF0xHvfZ3n9Ecymil+4xmhzYdXAc3GZMoVPS8gG9gabQTX7w3ccsz89TCUNnfoFnTp7m1/7VVzn/7DNsbD/iwuXzVK5i76BP6MaMs11WT0bEfsXO3gZ3bxV87vMv8/Zb95hfKgn8JvfvD/nM9d/DvFjmu9/8FtuT+/z0zz3HV7/3LqOxQ+JIFpIArcCLbK2CrEqRnoPrexwM+mhpiVazEREnDaoqp38wpDvXZDwacWJliWKa89qZ/5imucY/+vW/yalnR7hK4nk+UlrXeBAFjCc2UU4svdg1/YOUqixJkpg8zwj9kLIoCZsNzjwfoaIR27tTApUQ6yV+5kt/nLMnL7Mw3+Sf/4tfYXe7xHFC4qZk0BvgTB3W1s6jPY+5+RZSKALfYzAYW3eZzHjrB7/K9v5tsnzKYmeOZqNNs5EwPz/PwpI1+PiuZ0FTGcYDW/yzyGwJb61tK2jHdxBOhXCpO/y4SMdBG4N0DcJVGFOiVEGr7SNlThwLkoZACEOVVWxsbpAkDpHXYaFzAt/1EGqJ6VhS5ZpsUuA6vs00NBKjBEoZlNYYkyOFIooivCCkKBVlWSKEQYoKrSsQUKqCRqeBE4QsLK/yyY07bG1/QlGNGA7HTFLFmRMXeOOF1w/vVSlFWVRcv3adJGnw4YcfcdDbq1FsQTgbNgtSWBAKQJgj0BtLIGYc39TFU2ZyQBT6/ORP/iTf+sbX6Q8HqDq8+vDaT/xYgM/WWGuNMRqjdC3d2DkJIZCuyzNXLtFsNLj5ySf0ej2ksB4NKQVRmBBHMXOdORu6rRRb21tMpxPG4xFaGLQx5Flq3cylAgNaKRwHmm0PpVKazYjlpQWCwCcMPSSGzc3HtJOA8+dPcOPOu0RNh9A1OFIxLTN2Rn2iZkTSqOhNDyhNkzS1SU/Gl2gg1rDb22eUSUb7UwY7GUsnzzINFMFcRDraIu33GA8VQSjp93P+gz/+Bh+9Z+sqFmmDrKpwvAZ+mTAaDGivOaTVEK0jlDZ4JiHPUvywIisNRa6pTEVZ2UrTSPAjDz/ycKTElZLRaETSaFCVJcIYOu02+aTg1dP/EWF+iV/+9n/N8jN9XOERhyF7u3t0Wm3KsqSqG9kKty1NkEQI6eP5mizPCIIAN3DRkWLtcsxEjZlONEwELeckz5z+PL5MeOft74HUnDx1num0h/BymvEiiWgwHisKI5GuQxK6SGm4cO48nufzcPch2w8/5PK1NZJEWkru+5Y7mxBHN6iKAoFBacO0yDAOVKq0HD1yEbKiEhV+6GLkAcZRNsQWgTIFRlQ4bokWGarMKCYFunQpphKpHFwhmGutYcoGwoS4YcloPETqCKF9jHIxCDzpW85eGbSwjRaMVoDE9wN836Esx6RpijEOjiNxXGnFMpkxnaR4foAf+jhNyd5gzLe+8SaP7u5CldJq+Lz44ot85tWXbNtq46KVDabpdud4/voLbG5t8dGHH1kwScjyDCndWuy2irwQEoEFvOXKR8A3xpYyM0ZgmwHX59lvcR3J4uICvYN90jyzYLY0ZEYxgFl1NQtsx3WtaoG1IehK1QVVHFs5aVapucyZn5/n+evXGA5H3Lx5k6IocF0frTRVWRIGPsvLi1Rljuc77O5u4Xo+w9GYvYMDqkrhOi5lWUHt8nVdwWjcw6DxAh+tFa7rIV0XkAS+RyP06bZ9kgAWOzHtSJIXPaJmzM5wwNLqEmU1YVoO2B1tM80HlDpjTE5aZcwnCelwjzTVNFpdeqOCu4/HjLMM6Vm1bmdryNXL1/nko08Ig5jzF20CVtKs2N8d44YJMnYxpaR30Ke16lKR0fa66GzK/qigMg0cV5IXU7vHdQXCEEW2HFteZrafousiEaTTKZVSJHGIFI4td+ckvHb6f0qQnedXvvtfs3JtzKA3JopC+gc9Tq2tk04muI6k02zj+C33K6pSxImL9EBpWyDw8jMXKE3B0nKb4e4u2a5kvKu4fO4aO5s7fOurvwEYyumYsxfOUpUFUZiQTXOEUMwvtpGeZDQc8MNvf4t7dz/kh9/9DU6eWiXPRgz2dzl96jTz7WVCZw5pGujKh0KgyimYFOQUJVMqv0D4U4zTJ2xlTM1jBuo+Ax5woG+RcYdK7lCJAVqOkG6OUjnDQZ+DvT75nsEfton1IpFa4kT3Ck3/DHqaQBGhcpdi6iKqGMoQlItAIqkVXRSuK3EdG/UmXYnrK4zMKYoCpWzXWc8P8KMcLzRUVYlxFKsnzzC3uMbmwQ5vPvomqTrg8f1tylxx5fwlfu4P/GGev/4irgwxWqIqRZErTp8+zWdeeY233n6TT27ctGK0sUVDpBQYCUhAWBG/lskRUiDkEVi1sUA3gDlUyC0Rk/VpZVnywvMvsLyyysbjzVpLELY+ANaWImouboTNobDDiv3SscccSglyFnwFjuOSZRm3b93C8zxeffVVojBmb3cfx7G2lDRPbRmvfh+jYX5+gdNnTqNUxdLiAnMdG0qeFzlqBnDHJQgipPAQ2kHi4QqPwAvxncA2gkFRVQXGSFqdJRrdLoUac+fuPVzpkQQJ08mAwf4ObX+JpfYyPgmescbAwWjCVAm0EzOcSrRJMCibrOQI4sCj2Qo5fXqepAWdeYmUik43Ic9zGs0ErUuMJ5gWEwwlnuvTDNsYBWVdVzaKApsQ53s4rkuaW++OwkpeWZbbSFTpEroheZ6TxCG+5+K69gctOTX/GXSacHvru3jtEUrbaNg4DPADD601Se1tEa/+iYum2WnTajdwg5JS5biOSxgm3Lu7C6akKobozCeUc8y1VlGFy/e/8zZLy+tsb25x/sJ5gtDHGM3y0jyqst1Wp2nJw4fb7G3vc+nyM3zw7jt0GwlnL5yh2w25fPkcjiMwQiId12qUMkOLAyrTp6JH5aQoClSZI3WJynJCv4UX+Ujfpuk6UhKHTbKxpsgVqnQoM4d84iFVi8htEocRwnjkuUZrY7mfsVZru0slxtSGKLQFhTAWV0JgtAGsRIEA4aT2peoQIRXCG+GHEDZgOpV0O+fIK/apC2MAAMWrSURBVMWNu2+SqxGjacHWYIN0mOKlCV9+42e4/szzGKWp6r729t7w2quvIaXkm9/8NpPJGN8PnhDrQWNq8AlhA5+OROxaz6+5tQW+qLn+MYIgbIiUHYbLly6zuLjEBx+8z34dLivM7Dq1zYAa1PX9rEuwrpAEtoS3tv3wjs/XGANGI4Ugz3MuX36GZ565wr1797h75zbaaDzXZTKe2Fj/qmBuoYvjCM6fP8dkMiXLcrK0YDgcsbe/z2Q8Rmsb7nw0HysVVlVl6wwK2xVH6wqBIQp91k4sIYVmd2+D1dU5kqZhmvVJpyXdThcn8Ngf7rM33aUQOSopcGKHItekaYkfeBih8FwXKWAyGaO1wnEFBpsu3uvvURQ503SC4/okScsad2uiLQT4vocwmrwocNwI12uQ5jlCwP7BPpNpStJIUJXtbLSxtcnCYpckSnBc2+HH9+siN8aQTzVfeuYXYLDKL3/nf0f3wi5xlJClU1CQJA20tsqdVhUiXG8YU4uMYRTgByGTdIrreIQmRuUVjovdlNrqcX7QYjwuqMoKVaYkzZiLly7hB6EtpOG49Po9jFDk5YTevi1aoFRBs+Hz5S9/HiFzPL/CC6AoMwLPx/NcJtN9hDslCFyqKiMvphipcaMAXB8tJJ7jEIcho4MhVSooD1qIKqHbXCKKmjiuFW2L1Gc68kA4lCqziSSOwdJZu5G1nm1ku4GN0fi+jyMFGPuiyrKkKpU1jtX6snA0Rha0uyGOn1GZKUJGxMkZ7t1/yI2b7zEaTUnaBukrdveGZKnki5/5LC9ceg5PezjCx0JdMB6PWV5e4fU3XuPO7Tu8994HVmSugW1ZrZ27EMZa3YUF9Gzj15eyfxsLXIP1YjAD4LExO0dKieM49Pt9wjCcSfBQnyOMVXGwJMfaBoStlSCl/XHqk7Q2KGMrKZn6/hjbj+2QSAhJWZZcvnyZq1ef4c69u3z04YcEnnWzWi6tSbMpnueytLTCXLfLYDikKkuazTZ5ntPv99nd3SXLreSVRHbuVVmhlLLzwBIGEDUBUwjj4HsxUroUVY/Aty3KlVJIqfFiAWHFpBrRzx9i5JS8muJ6giDwbNnx0sZKeH6A8ByUrkjzjDAK6A96hJFPVZWkeY4feDiORz7N8AOf/d19kqRF4Ploo9nr9XA9nyS2NjYhhGVOWuO6LkorJmlKs5VQFAXNVsJo1MdgbJn4wGMy0vzUs3+B8mCeX337/0j37Aa+hFIptBE0Wx3K0lApQ7vZRlz/7BsmjCOMMSil8Xwf6Ui7+YXEd32bkecYXF8jhEaKAM9rUJaaKPQpqwzXhSBwbaPEejv7oYORGZUe0GoLGg1JFNl85rTsU2qrT/pOhJAujuuRNJoIaciqIVpmhIGHa3yq3FBmEqEdoGKxu0wn6JIPFaSLTIYw6KcI4VK5gtQodKUJvBjXtRWGoETpHNCUpQYj64aUtiy4MYoiy/E86wkAgzA2/npWI9BiR4NX0p4zaGdC4M8RNdb4wVs/5Nvf/iFrawskCdz85DYH21NOnrzIa6+9yosvvIiLwGQFvnDJixIlBI1GixdffJFWq8m/+Je/Qppmdc1+a7kHK53M1lUIa3U/HLOkpuOf/Q6A77ouQgj+0B/8g7iuxz//lV9mOBwenjMD/gzIBosjR0pbHUnY9lRWBahdhnXuxeyeElEDyzIZUbsSpSO4dOkip0+f4dGjh3z88Ue1FVrjuQ7j0RilNI7rEkcx169fx/U8xqMRaTZBVRWj8ZjhYMzO9hZlUSCktBgXBuEIpHAAa5B0He9wnbSpk6NygXRzPBlSlhmVycCv8BIHF5eGH2CckqIY0OxWBHFOf9Anz0tk6LNXDJFSoo2ycQhhTJmXdLsdwihgVPUYp0OKPENIWa+N7WHY7nR59HiT8WTK6vIJyqIkCkP8OuVcOgIhXJSp0I6VbqUDo0Ef37dr7wc+RebwuUu/wHinxVc/+L8wd/ohnmMQUhDGMXkOpfIwRuDHEeKP/Uf/ifE9D0FtEReWMlu/rYfj2FRa6YBwa5XSysE2rFVo4kaFdIYo1UMxxRECgUZ6AkXJOB0ShtYwoQvQaKKuh3KmYCoc4RF6LaZTBfgUZUW700LrCjXVNM0crnDpdOYxSrC/W1DmGqU0WVpiyibGuGBqI5fr1Map2siEtQ6jDa7jEIYBYRCgtCHL0tp9ZKukaFMBBl2L3xLbLqxSDkhFmmUsLM6xsLxI0mizP9jgo09+yHZvi7sPd0mnBZ50GQ/HXDx3mc+//gVOr5/Fdz1bpagySKOtoUo4PHv9eS5cvMRHH33I+++/N0Nszc1rJvXEsB9YaWCmSx/PZjwaM6D+24DveR5VVfLKK59h/eQ6P/zBD7h79x6OY+sRUFvuj51opQIprDovhLWH1NecXVfVNglLPOypT88BYfeDIyVnT5/l2rVr3Lt7hxuffGS/BNvMUlW1KqYQQhCGPr3RPYbDAb/rJ/8A/d4EKVx6vR5lUbC3t8dwNAIB0nEBpzZaWtdkvXCHmoyQunZegrUOKLTUOEjrxqTOpBQVjmNjBnzXw7gllXtAbnqM002kq6mURxyHICoG0z5eHJC0Eooiw2DD48syo9GMyIsJZWVQxsEg6fd7CCAKIhAS19WUeQWuQgYOIi8ZZxOqqiSJG3iexHU9qiLgM+f+Mw42Y9699/+ks/oYXIdKl0ghKTKNFD6TKqcQCvHn/tJfNZ5rM62MsS4yKSzlFlIiHMdmztUvbebC0UZTmQM6iwpthpTlHlpMwbW993zPs+cZTRiHKG3zz1uRLeFsXGVDQI2DKRxMEdA/yKhyl257iY1HG5xYPcGoN+H06mWyNGc4HuF5AbqKgCPKLaV1fx3fVEop8jynUhW+59Nutw8NZGWV0mxJJtPxoVhV5g7GCOtCMSBrt9hs4ypT0WgnrK2dA1w+/OQD3vvg+zS6migx7O5n3PxkgCoNV69c5bOvv87K0hLSgFYGB4EwBqklZVmxsLDAK595jbJSfP/73+fgwLYPs7ppDepjQLE2BjssUfitgX94zr8j8Km5vi12qvFqN6rWlrii7efHz7Ocv+b/4ihYafa9kMLuGV2rI7X94vjc7MG15bBWOYQQnDl7huvXrnH75m1u3vwE6l6Nxhg8z8MYTZ6nFKrHZDLmMy+9ge/GVJVCKcV0MmU8HjOeThgMhkzTlLJSqErZysSSmknYmgvG2HkYreugZms4FY5AVcoWh6nJkOO4GG3VCQEosH0n3YyooTFkSFdQVENwJ2iZ0mwvMJoOqEwf6aSESWwrChsPx/HxGwG4Ci8IOOj1CIOQ0bBvOwlXDs22xzjdI3Y9BkXKpD8k8ELCMEEpRVVWBEGXLz775/n4vSm3d/8BYfsmYeMErhMyGD5CVQ5IQavb4eH2Y8Qv/C/+orH+aZCFQhjb7UXUgSdGQqlK8rJEVRWqBj1a47p9wrBPpxVSVROUm1I2FI4vCD2PsiwJwwZCQJkX+L6PawSUBke7eE7EeKQZ9AokDXTpkY41odckCkLbUUeDwcEAjuvjuB4Sm5+PFLWxRFq9V1cUpY01dxwH6Th4novRNbHS2lbWMYZmIyDNbBMIYwxC2nsIrNivK+t/bzQatNptuktthpMJb771Pm+/9R4HvRGOW5E0BX7gsrc74ezpa3zus5/l5Po6RlcYVR2lGRuDrqyo+8zFZ3j26nU+uvERb7/7ru0f4Di1oWomzs9E96c45GzUFYpm4H2aUMz+/q2Mexw7RyKQx+0FrkOR50jHscRAWSnoOKGgnpnRujYoHs3nqJ6CAOp6icZG6c/mcfhzDPjUc9Ja00gSXnz+Jebm5vjo/fd5/HjDSp115KBVPawqIaQhjkOSOKHdbLOzvUuz0SCIbIGUza1tptOU4XDIdDyhLMu6D4FvJ27pABgwh0TNMkFjZoFQx567fh6BQBmsQdPRhIFESoHvR9ad4tQ2BjejYkSrK+gPHxI0KgwKR0ZgJDJx6Rc9HFdSVhWtZofxZIDnunheQqUnGAocZehlE0InQOU2EpXadKGNw+9++a/y4fsTbu/8Q1ZOb7PbnxBFDnkxxnWXURJazRZbG5uI/+r/9DdrEmz1Moy1zho0ytgH0lSUVU6lcrQpKasCpQuEf0DUmeB7LkkSo4VikPetOmAM+VQhigXScUmZ5batslIsNjucaK/jmpg8l2zvjtjZmyBFiMDD6LqevpRIIVH1qvu+5ex2M9mUE1G7s+z7M3iuh+dZacBoY4lXDXxjbCx4zQbxPc8mfDiyDus1KKMRUtJptlhaXiSKQ7b3tvn2j37Ax7fv0+40qMqCxw+30RVgHBbm53jlpee4/uyzBL6NQfc9z4IGa0sA8ByX1157jdXlE7z5wze5cesGStsNZAmQ3cz2WWpxeiYjHxtPg/3pcRzg2ph/K8efWfddz+X1116n0W5x+/Yt3n//A3tMzfE/7X6HxOKYlGLtIzOQ2r9nEouuwaq1toCSliAcEqGaaEjHocxK1k6s8fz16xhjuH37Jo8ePbLvGzA6qCWG3CY8uR6ea6M2FxcXCcKQpNFg/+AAKR36vR5lUTIcDhgOx4xGA+uKre8nhEC4lhhYCacmTrUXqH5izKF706CxdRINtpiNFB6uiayR0NcgS7QRtq+DzvADgRPkJA3HNl2d9JnKPqqR1i63ikqXZGlGu93BCIXEx3UD8qok8nwqVaGrCs/zKSsbDDUaTvhdL/153nlzj482/wGLJ/bojaZIKXBcGOWKYVawtrBCM4gQX/kbf834HpQqI6PCC2z7Y2VKAt/HUCKckiB2kHJCpW3b4kqVBLHEcUuKvKBIc3w/IE8FcdhmNJiwtbHPQvsijbiDUopGkjAeKopxgaNdQi+mVFBpKEpTbxKB68gavJZTzl7C0ag3lpSHfkwhrGqilUIre2xVlWR5hqpLVXuejbOm5kVCWu5R1e213cBnYXmJpZVVGlHMxuZj3vroTR5sP2BnMMBzG3WeANz+5B5z7SXOnDzP89eusbTYAVUh682CsIlK1kUnWF5e5tXPvA4Ivv6Nr7O1tWX937UuzyGI7D9yBvx6lz8JORubDsJ2K36KCMzAaJ7i+LPjZn/P3P2zc6uy4os/8UWee+459noH/OIv/qItO6ZUrf5Rr5wdRtQc+9g3h9xeYGMhBEfvzswIkc3DsPMQx55xRuzqe2gwRuO6HmfPneX5555n0O/zvR98l8l4TBjEFFWOwEpKjpA4wsH1PAI/IIojoiSmLAoCPyDLUsIwZDDo4zkek8mE3Z0dxpMJ4+mIqqpwvADHca2BsH4GsJINx57PGIPSFcpoqlqlksI2fRFaWvdlzfErDbLuD2n3dGWzVn0Xz5HkTMjNAa2uYDh6iHIz2vMdhHSpdInrhvhBSNxMGB7s4YQuk3REEFjgO46DI7uc7r5GOlL8vV/+P/PcZ1bQBqbTEZqUUlcIGRH4EVWWI/7C/+aPGmSO9AzaEfihSxAK2xrKC6AySAGOVwBV3eDS9ih3qoAYm+6nlGI8SWnEc3Q6c0gRU+bWzTDojyhVrS8SAq6t4TeL/ZbWNCQMiLqG/nFOwjGObg0w9mXMdMKiLOsinYKqqqgqhURiqDlo7XIyetawo974jsPBwT6RH7J+cp3FlWVE6HN/4wHvvPcmG7sPaS02EZ4gmyo27u6wdW8T3/F48aWX+Ozrn2N+bgFdaXRh8wKkqUNm66hDIQWvvPIKl5+5xIP7j/jN3/wqla7QxhoaLXd5Ugy3T2g3/yGheorbzoJoZsA/Pg6vZe2ZtfJgx28P/JJz58/zUz/1U0jX4dd//de5ceOG3bBPSQt8CvA5DnxACInzKRKLMdqGO2vLPWfE5OlnPD6MMYRhyLVr17h65SrvvPsWH338AVIKAs9Wf6ZutmqMzUx0XBcv8PB9j0Yc2+CVoiLPU9rNFlVVobViMp2S5hkHBwfs7dmaBqW2+8N1fVzHpSotAXxiThiMEHXSk1VxMAZp7DMKo9EY1IwwMLOD2EQuaWwNSyhptkIMOb6rac0FNOdcsnyfLN9HiRTlu+jAYzxKWV1YZZxnSBe0KdGmJPRbGGKMhDzbI80HlNpgZElRTHBdhyhsoJSteSl+4f/6hokSQakLXKeJdAR5MSSOfZwpBNol9HyKvKTVWGMysuqAKxzSQQGZtJS3qEiSNlnmcLA/RRufslA1N5YgrVUVaVtvSWHLZTtC1sX/rHtnFmWm6447UkrbCdYyZ/tdzdFnEkFVWZ+qqDfIEYjs76MNZUXMSikkgqTZ5MTKKnPzcxgp+O6bP+TXvvk1TACXnzvJnQcf02o0mQ5SvCogGxSsLp7g/LkLnD59FozEkY5tAKoNUNgU2Moaxk6srfPyKy+TJA2++53v88EHH5EkLetBkKbW5398swtbe6ie98zCfyQOCyGwmigoY63cs+/MTDStF8vKSkf3+DTgz4iM77oUqqLVbhMmMdPphIODHpInjYuzYYTd0MChSjK7k52jQM4+f8oAqbWu1bAnpZHfaszmrZWm1W7yxS9+niRJeP+D97h18ya+5+EIF23s+puZWoeuI9wcOu023U4Xz7X7znHtkzuey36vz6huZzaeTBgOJ+wdHFAUJXEYWTWzBvtMXQGBcGxQlwWw3XJ2H2qEsTENlbLr5DreoeEcQFfWkyCEtnt85gY1mjD2EDKl0ZQ4YUXllUwmIxwpebT1CDfSDIY9Ll26DMbQ6jS4t/MIJw4JjUsj9BnrESAZDob4oYtSKYa6zsJf+9tfMmUxREiDNPOWc4/3KYuUU91TjLZHiLpNlRQNuu0VlhaXGPSHaGMYDicUNbfL0hJVhrhOA7QP2BDgWfSb7wWHRpSZBRgqjLBcGm0DVqxub0EvpOXx1qZjN4gxVgQoioKqtCW1Rc397UJaritqQ5Gpw1KNNjRaTVqNButrp4nimIP9fX7j61/lrfffI5eKDMWgGJA0BedPrjHYGhKqgNXFZX7qJ79MI2naQB4biGVftK71c2ypcVdaXf7UmdPcu3+fr3/t64xHU6IowRhsn2FhN4clTk+CwgJfHkk5TwNfgqiBaP0thzTuEPCzoWuD1Wx8GvDtutUEQAqU1lRa1aoQNjfhx3EPR7etMwKPxmyuM45/lER0DMTG1glAW93/3wZ8UQf/WCOhotVq8fnPf45GI+bDDz/ixsefoJUmDAOEkFZfViW6VsGEEBgNjSRmdWWZlZUl8qKg0Ui4++ARAIuLizx88JDBcIIBpuMxW1ubTCcZrmftR9J10drGdyhsw1LpSlA14cXaL6SNo4I6DXqWLX0Y8mwzpoDauIhGU6+DcJCuwQ9clMoRUuFLx6ZIhx5ZPiRqakq1T5gYtiebGK/A91xUlRAmDbJiQBJ3bbn7cowWfZSurGfjr/2tLxlVKOY6ixR9iLwQKQy9/X3KqYPOXNAeiwtLNJJFshSGoxGO65AVOdpAWVY4syIPwqm5g4MUDkFoPQS+69sXprDieFFSKdt+yxhlt38NeEc6lmsaY0V9bC08YyyFrJR6Ih1U4AMurltHjukcz5c28ENKkIpmq8X83Aph7OG4gu2tEd/65re5eesWeZGhXEhaDaZ5yjgbIdHEXsC5tbO88txLnD97Fo2yep225ZZFPU9V2YhGRzqcO3eOV199DaM13/7et7l58yaua6vxqtqgdcSAj4BwnPMfETDqZ8QKNzNQiyO/uF25T+fI1MC0wH8SdBy746FaUas/paosZ/Ct58NzPOvqeipr78lxDPi1vg4ga+piDX1HBGE2D2uRPjK+/tvG7DzpCIy27rsTa2u88MKLdNsdHj64zw9/8CObgx5HmNr3DwajrHohpKDIMoLQZ2FxkdOnTnHQ79PtzOG4kq3tLSbjKcPhgLIs8TyXsigpipzxOGMwmNiej0YjXVthuCgL0PW7m3kwalVmRngrpeyqmCNiCxKEsMbB2j5kjF03x3XQRh2pxELarMx6dY3I8IKCdtdjanooMyWdjBmOFetn19FmwHjaww8lTiAYlylB4Npw4T/7X33RpFNIwjn0gSL0InY2t0niBnOdVYxyiKKINM0wxkNVEuHYiC1jzKHhbMZxPc/DdV3KssAYUKrCGHBcB7CLcsjhBHieW5eHsudrpakqjZQ20gs0eZHXL9luLtf1cBwbymrv4QElQiqkLG3gSCWJoojllSVW1xZBSkbjnLfe+RFvvf0m+9uZ9aU6kiD0SbOJDa2UBiEk62snePWVVzmxsnz4EhHaFggx+ph3wWaLNZIGr7/6Ouvr6zx4+IhvfOPrpFmG53uUZZ3IU2+AmYV4BnjBj3PDo/8t8GW9OezGOOKOn4b34wAyUHs/nrz+8TEz3M2OCcOQCxcv4jgOk8mYmzcsJzXmSdfbk+PTOf5vBfyjv4UFh7ai+ezZn54j9XMdfw7rwtW4ro9SitWVZV54/nnm5hb4+OOP+OijDxC1W9pGGVpvUJ7Z6kGilgqNgSiOOHfuLN1Oh7zIGfR6bG5t0Gq1mOt26fVtYJDnBUwnOePJlP3eAdPphLwqLCeWVk0ts6Keb20IFHWtgloNnalxM/tVVUtYiJr5fcoiW+mwBvxxT4zr1QF1lZX/jPXOhDGMpo9x/YyV9QbGnbA7ekxVKjw3RPz8n/6CicM5knAONQEHWwSiqqwbzPN88iLHkdZ6Lo+5ahzHsQA81N/qIIhaj7b150trFZaWsoVBQKPRsPncWtf99CyAdJ0LgKnj46vKuhWrCiE5pHxKKVzPus2UUnheYMtfRzlhqDEmpttaJ0oSwijgYNjnrfff5sbNj8mmGZ4bMx4qW+1Xa9qNxFpJfY9T6+tcv36NkyfX8VwXVRWHXMLOzVj92ggr8ivDqZOnePmVV2g2mvzg+9/n/fffx3Fdyzm1ORYvPnuJx4CIpeQzYNhxpPvPNqflIjNwHXHHIzfTodT4JPDrNNzfDvjHvwNIkoSf+0M/ZxuFGMPf/3t/j/FoZL8XtThbX2N2ztPAB/sIx3X8Q4JfD6vu2c8xVty3QUSfDvrZOLqGJQSza2OsqWF1dZWXXnyRpBlz48bH3LhxgyLPcetcgNkaVJXlwJWysf3GaKIoZG6uS1RLmHPdDtYAa99JOk3Z39/H8Ww0YF7k7G5vs72zjdaaIAxRlV2LqtKWqM3iKOpgsKM3pS3Ya0aq0FblNfV3tdQ3Y4pCCLSyMt4M+EI4Nmy69ogZrBpsKHD9EtdTuL4mDEuEHNpCMAjEf/Ff/mmTTQwY34anInBcDzOL0sO6hA43vDB4roNb+z3ru1tKZAyVKuzvcsadDK7rHrrnPNdy+LywIbKmtnhijI30U5abzh7UzEo3CT17LIQsEFKwtLTE7s4enhsTxTFxQxCEDp7bRCufg36f9957l3c//ggVaM6dX+dgf8ioX4HyKYoKxxhazYR2O+HKM5c5d+YsnuvahB6EfQE1h7XhnvZZtTb4fsCLL7zIhXMXmE4zvvWtb7C9vQ3UXXgOn88C3xxysyc5sOX4M4Jqqfvs2MONPZM4sJtiBoQZ8A9Bf/jXDCw2+/H4/Y7Otb9n9pbZMb7n8TO/7/cxNzeH53p865vf5J23366lNnuerqWvev99OvDhMEX4aamCuqCHfe76s5r4qzrjjqeJ2G9BsGbfSaynCARaK9bXV3n5lZcJo5AbH3/MnTt3KQrLjZWq8DybqgpWXbXXUWAUruOQJBGrqyvEUcT84gJaa7J0yu7ernWVpSllUdb1GaDXG7C/v88kza0cJx2MPu7Wred6uB9sytOMdte7+3DPzPBz3D4y2xszgV/VnowZI7Jhvi6OB0LMAsLsHrYZkpo4CnBeffnlr2A8pJEoXaK1oqpKlNEW8IJjhja72Fop27e+5rhaW5HfhrtqpOMSxwnNZotWq3noP/d8G/svsDt8ph5orSmKAq1teyY7WQ+AssrBGJQqkVIjnJxGe8LcQkCeTojjmBMnzrBy4gTziydwvQaPNrf4/g9/xHe+9z0+/uQO2pWIwOB6HqNhhlEBroxwpKTVSnj26mU++/prLC8s4ki7aYTlk/WroN5MtY5uBKdOneaNN95gff0UW9s7/MZv/Bu2d3bquP5ZhONMNJ5t2KNNbwFvuf3s/yMOVh9ml8n+f3itp8eTH85Ik515/dkToLOeEDvs75mvenaOFJaoznfnEALCIOTGJzeOHoMnCQzwqYFGHJ/dcYDX9zJPzK3+uj5kdv3ja/H0OALD03OxxKzX73Hr9i2UqnjmmStcunwJY2B3z4ZHz25ow4Ft4JQUBt/38ByH6XTK/t4+g9GIsrQG7CiOUbVkGicJWlfWFjJN8TyXKIwI/KD2+wuKIrPEplaLja7BbhSqljRU7epWdQyKrkFKbQuoH+mJvSJFHXA0y5B0BI4jEGjKsrCpyGLGGCTGOGgjUMohz1zEX/0rv2BmXEMpU9MdUXfA9bDucetuoLaQV1WBVtaFpmuLr6jrrcVRiBC2CgpGonUJwqa3SiHRxlI067Y44mrG2LhIg22waVQMKKRrqWNZpgShIIwVjU4K2iOfhpxcv0oYdRlMxjx49Ij3Pnifjc37NNoNjPHY3uozKVMc1/Z0S8IuQrtEYcK5M+u89MqzdJoxpqrr0tRuGLsBj0BihDXOua7Piy+8yMVLFzHG8MH7H/DOO+9RVUV9zjHKPtPxZhtzttfqTSuEcwg2+36PdFhT+6KtcfNozLjA4fg0ZIgjY5+paQZYVQmsSH18HBGho3tfuXKFL3zhC5SVTfL4R//oH7G7u4vruWAsMI9E1yPO/luN2Xs+PqSQdV7C0QafHatnoeEA2hrQ+DSQHxuWOx7dR0pZ21bA8z2evfIsV68+i1KK997/gFu3bgLgSiynr+M8jDFIYct+V0odFrRIkoTu/DydTtuquNowGPYPjYfpeMp0OqWqiYpSmizLGA5HpGlu28G7PsKZOWPtcboObDJ1hKmwjPuJoQ/jHqzh8LD0Wm1IFaIuwlJnQVo1ub7moSxRMxUjEH/xL/wpE4YR1D7umdhXllV9cQewBiVj7PfWuluB0Lhe7XqSM9FGUhS2Tr0lJLqWFKw134KhDpE1xqYB1xF3ps5/t4uhcD2D5wkcx2MyHRMEtv5/Vk7odBdoxEvs7Q/54ds/5K3332IyHmMEhImkVCmh22IyKhmNFGUmacUtms0Wp0+u8dzzV1hcnMOoCqMrK24bkLMNVr9sR0iU1hRVyfKJVV579Q0WF5fo9Q743ve+x4MHj+oEl7LmUrONaZ7Qv+01ra2Afyvwrfj2NPCNsTYUY8yhq+3HgD8zWB1ukt8a+DOgzL47Dr5Gs8H5c+cx2JZijx4/Yn9v3zKATwH+0+6842N23U8HP8eSkp78fnZto8WhR2H2w7HrPk0MhEUDHIYPW3G5LEviOOHatWu88PxLDId9fvTmj7h98xOb5eY4h2K7TYs0lFWFUpbhWc7q4Ps+7VabdqvJ4tI8GxuPbUOT7W3yoiBOmgBkeU6WpWCgKAt6vT6TcWo9AMLixYrotdu1fjal1dFLm73Pel/NbCBG16A/RrTFkf8QpRRC1rExxuLQaJtaK2SJ+Kt/+ReMNRoZ4jjCD3yc+uFUKciygsl0CoegtDq7H/ooNWH/YANTf9btzFMWkjIXdYELcahjmNmm/rEikVaW1UqBsOKKF5Q0Woqk4bPxeJ8knkfj0motEDcaTNIxju/xa//mN7h15zZhy6M0BadPnWQ0HrG/t8fB/j669DDaZy45QTPocvbMOtevP8PiUouiGqIq8EUIOCCti+wwqKVOO3aEwGjN1WvP8vyLL2KEw53bt/n2t79TG4dsdp8VdY82/6dxqONAsyD4NODXQKhPe3pT15/Wv2ec49j4HQKfYwCafT/7bKaX2jnNpJ+ZDmqvf6j+/DbA59g9fvx3/czHQH98f1BvcqO1dXsfA/4Tv59aCLuvjn4//WxRFPHyy69w+dIz9A52+M53vsPezhZGa+I4svUZtD5MwqlUVTNGB2NAVSWh7xFFAd1Oi4WFOYbDIZPJlGazRbfb5cGjh1RlSVkWRFHEaDKhKm2k4DTNKLKSLLVdnxHCRsW6Tl34xTLW2Z4Rh16smiMYS9CU1vWxNiQdZVCqwvW8Q1Ua7DnmEJMV4r/4n/9Fo7WNmJPCUFXW2ilrK3YYBjZrqCxsV1dtub+Uss7XtpVkrRhsrYtlaW8wo7xiZr0UWD3FSvW1fiKs1OBotClw/YwgmTKZjJB06LRP0l7okOUa4UY8erzB9t4j7j28zcbWJucvXURLzaNHj0jTAlf67G71SLwmroxoRB2unrvKy9ev0WoHCFEgXU1e5vheRJEBxrWiam00kRz5Xue6c7z+xus0Wy2yvOBb3/4Wd+/cIwgCK37Vz2F3nt192ti/Pw20xze1qKn18c8tyH5r4NvDjm3+Wj9/eswAUkMbamDPADs7hmP3noHD822ii6jVm1oIQytraJ1dY8b1j19rNo5Www4p7JP+GLhrd+WPgd8eZDeKAWM0ambIrO81IzrHDWfH19ccXdiutbD1A6Sw1puiLOi027zy8stcuHiR/b0d3nnrLR4/elQzM5uxafMLrHpq6vuWeW5LWAmDlIYoDkmimNXVFebm5hgMBty/d8+GCycRrXaLslJUlaIoFVmaUpQVZWW7Fg+HYyaTKULYbtJhGGDQTCZT+6w1bZsRdLv3rGRYlhWuazMpQz+gqixxkbN6CofPP9tfDuIX/ux/aiI/qpfK2rGFdGqDBzWwla2eakn7UXy4qUWqegKGI8o7A4N9EfUksdFgqrLNIaIoIowl3bmQ8XSPcbpPlmVUlc/JtfMsLp4hp2A72+DGzU9wXYfNzYecOb1MUeSUpcvN2w8ZDab0B1OKXCJNxGLcph1FXL96javPXCFwfagTTWYPb2rdu9QajN0QjmNj0quqIo5jXnjxBc6fv4jrOty7f5+vfe2rFtTG+obtmlrbhX1wW4VF6RngbJ05OBatZff6j4nW1q5wJBHMxpOAmmXuWTzwWwDfzBJhjH1fM+DPrn0I/Bq0x9WP2byktLkOx+FrXVozwmHBcChZmFldQhuQ9vT4LYH/1JjNdqbi2N/2GQ3y0FNC/RxH939y7Qy1K7P+aEZIRT2P2XtxXRdVKRYWF3jt1ddYWVqk1+vx9ltvsrGxUdsk7XpU1bFgIGPI85KqzDC6whFHDT2azSae4xAELo6EOI4QAkbjEWEQIV0Xx3EpqoppmlFWFl9RIyKbTNnbP2B37wAhBK50OWzSIgzGWDDbZ9ag6vdnZqXNHKqyqoOwYDgc1nYDS/iMsTUnxV//63/Z2PDQ2aJZ8d5G09lihqJ+UCmtz1BrG088G9YdZa2Ms00hRJ0ko62oP+OCUjoEgY+Qmjj2mWbb9Ef7uG5CozHP2ql1wsRnf6+HH8S8f+staIwYTQY4jkNZVkzHY9rNRT784C7pWJCNJapwSMIm8915XnzuGqfX12nEEbq0BUB814XaYGZnYjeOqv2zTi3aSim5cPEC165fp9FskmcFP/zh97l9+47lOtpaX4/WSx4Cy+prVjysP6iz0+zLmbnsjkJlj0B1uPrHDJ31B4fHULt4LAGoG2rMvrbszf757wl8u4Hss8zAXt/kcNPbd1obn2fShbFGpxnwjXgScHwKAfixYay0I+pCp8Dhuh26vbRVcY4D/uj+9ee1unvczHJ8LhbPNsbeq1Oofc/n5Po6b7zxBp1Oh92dHb7/g++xufkYzwsQwvr8Bdj2axrKsqQsc6sazKotuy5+4OM5gkYjZm1tDdeR7O3vEQQBSRzZaFdXsrxygsFoxMbmhl3v2k06GIx4+PCR7VhUldYQLiWO41n2Wz+zMDYwyOr5ALUNDYPr2bJ5M+CXZUme53iei/hf/6/+mlGV3SRZltUizWxz1ZZCYV/IjLvMUhRn+1NgEML634042uCzzSsdO0nXdUBYt53RLs1Gm6WVLlFsK5EgXIb5lHdvv8/tOx9TVinrZ+YxXp/OXMeGCgufOzd2mI4k+ztTPBo4xuXS+fNcPHuKU6dW7UZXksAPENgOMEbXDSOxPnhT64vUgK/Kkm63y+c+/3lWVlbQxrC5tck3v/lNer2ezdA6Fn03c63Y55wROfvR8dh4y1n07wz41vEL1Nc6vGcN1GNc0JqdZjvcHmf+vwS+rOsfiJkRThhUVVFWNh/CmSVL1cPUYu8R17Xz+DSOfwj8Y38//R2AYFbO6/CxD+crDqUkGyFnq+fYhC/rFjvm/z+ycz1BgGZjVhx0Rig4XAeJ67i88cYbXL16larK+Ke/9E/ZePwYVzpkeU4URbiOhzm0V9nnn1VLzktbLNT3bXg4RtNqJpw5c5pOu4WsQ4YbjYRWq01RlkyzKQ8ePmTUHzAcDW1uqdK4jsc0y8hLW8yzKCqqsjoMnAuDGCnFYcclMLaEXl0kFimsC32GZcvGEX/pL/wZU1Z1CGhNVayP0K6K3UCWy9kVPKqwcvz9iXrj2YoqR19IIXA9xxpKlMIPHBrNhPm5RZqtFkZotHZ4/HiHT27f5cadG2yMtvC8HC1Snn/hks1OUopms83tT+4z2PQZDQ2xbHPx7CVefOkyS3MRMEXrHEGI77TJ8swGDElrVxDHN309P8d1qcqSS5cuce36deIkocgL3n7nbW7dvo2qK6VqZcUxrayBx77wmYQja3XGPreZJRYdAmimZ/0OgF/Pc0bpa5gdsyfU9xL12bN7G469t9lxR7qzPaZeg2PAF3VvvNlxsw2NgKA2+BptKMuSLE8Powgt6I+4778L8J8eTwPfMpLZd8ePm/UWqFfAPtoR8Gdf1Oti7AXrD46uw7F3gDh6T5aI2BJkAHPzXTqdFmfPnkZVivFoxP37D+pCpNIWYJW2doQQEsd36znZ4jA20NNWynWlJvA82q0mSaOBKyWNJGE46BNEAXmZc/fuXfIsJwx8FubnmIwnjIbWU4WU5GXJYDBkb2+fLMttCHvtJfN9nxkBUrWrHGOD72x2qzwMwAIQv/Bn/5QRwlZ09VwPUVNxy8otMZhdTNX+emGA2qVnY+/t58BhWu0h4aj9ko1Gk3a7xdxCw24O45IXsLl9n48/ucOtT7YYjsfgljiRIWpJJukBSdOh0Q4J/IT+QcrB7oSQLstzK1y98iwn19YIPQmmwJOirkrqIUUN+HpjKaUOw4St+9BS6KWlZV566UVWV1cxxvDg0SPeefcd9vb3MdgXZ6yvpbZ72AwvIw55reVAs3XARvwdF5/hSauyNro2MB1t8KeHvZ55It/+CJTyEEJHc7AoMDW3/+3GbK7HhxAWcrMcCLBb4NSp03zxi59H1M0x7t+/x6/9m189dmc7pxnwZ8SEWtc/JHLHbBzHx3HQP/l/LcZja0DOwDl7RjGbQX3dmaFxpv/az2oCMPuDo6zGw/sIS2xm5cqPLmyfyZWSMPC5eOmSrZLsenxy8xPee+89er0+bp2z7zhWvD7ystpiKWUdvCMw+DXn9QPbGLXb7RAEPnEc0h/0ePzoAVmacv78uUO3ep5mTLKUvKiYpFMwEqUNeZYznozp7fco8tIa8mrj46yaEMfWwBrjncNncz77ude/4tZhtDODxwz4M/GpqqxocVSXbvZw9e4QttGhPd1+K+uU2larycLCAssryzTbTZQxFJXixq3bfO0bX+cHb32bcZqSFwLhGBS59YkbUKUin0I+FuRDSAeGEwtneP7Z53j++nPMdTt4jkAabYs9CmtrkMI+y3FKTs1JnbqOHAaeuXKFL3z+C3Q6HZTSvPvee3z/+99nPB4fiuvG1D7cYxvv+CI8jSFRB0DN7m1F1yf5nJlF6M3W8LcdT97AzuHYBA4vUM+tvv7vdMw2yvHfsi6ffe3aNRzHwfMCfN/j5s1blGXxxPs+HMdubWoccey6T4/jxjljjhuH7f1tzcJjnwnrTXKcmVRqJU97fJ1PUYNWPPGq6uv82Puy31obVP2ZsBMX9QWqquLx48dsbm7RaXc4d+4cFy5cII5j+v0+WZ7WxNZG42ldoVRFVeQU2RStSqqiYDKeMB1PGI1H9Ho9+r0B0+m0NqBbw6Hve8zP2/R43/OpytIaDcOgfq8Cz3PxfJdWq8XC/BztVpMg8OoiNFY6psag7f5kifmMKFZVhfjP/tT/zBwCpJpFyZWW2nm2v7tfB9mI2gIqNEhXWNHTaAwWUI7jUOQVWVYwtzDP6uoqnm9147woqIxma3ePH731JoNRH8+XJE0YjkqEapCmKaXObKKCcBHYVlax49JoxLz88oucO3fWvh0jMZXCqUUq61YRNZcXh2GoQO2etBmAZVUwPzfP66+9ztLKMq50GKcp3/z613nw4D5i5r2QdWedWfBGDdSZLm2dWvV4QonUT3C54xt+RgBmHFmY2vg3IyrmacgajmID5DFRf/b/8Q17dO1P4+jHx3GuPBszjuzUm0QI69UxBn7+538e13WJ4xilKv7lv/wX3L17hzAKDvcKNdg+7dqfNmb3O37OcaIjDkFsexscjpnKVi+rPnatQ8Z1PJdghvU6YvRp4M/mPlNPZliYDVEDyC6GzTI9d+4c169dY2VlhclkyrvvvccHH7yP1tZQWFUlruui68KuGFuuHWPX3hqUbWad53l1EVG7h1eWFllYWEBXJb7vHfa3dz2P0SSlqmzR2rIsGQxHVpqos1oFDmma0+v32e8dUNaSgHRtXI4R9v7aaMRf/st/3ghpKZupRYWZeK/ROLg2O86BvCqtTlG3LjJ1J1gpbWskRzqcOLHO8uoJG/Lr2qi/g4MD3nn3XW7fu8v93X0KXbCy0sF1FXMLEcNexqBviY7rglYuqnSBkOW5JV65fpnnrl8iL4coU1KVNiTYwUE6ohavLIiksBlzSh9Ze+1DSbRWPP/8Czz/wgtoY+MO7t27z9e++lXcWg0oZ2GbMwo52wAz4NecdXbMk8PYedRfPC3u22tYN5jd0Ecc0dRSicBKUPUVjnFVCXVNdjueBr6d1/9vgW8NRD/7s7+ftfUThzkbH330IV/96m/iOPLQwMa/B/CPFvmptRLCruenrPRs6Nn61tKFELbC00ySmI1D+8tT87PrboODhBA/FmAmpXWf+TXTO3Jrw9mzZ3nxxRdZmJ8nywrefOuH3L59i6IoLKOs4//t9TRGmcM6EzPuK2pJBWFwHYErJa7r0O12mJ/r2us4kjzPGY7HCAFB4FGWFUVZ4Hm2iY2uJEVWUVZVHQ0r6PcHbG1vWyJQVXh+QOCHdm3/3J//M0ZrbXvIHVrra/1eQuRF6KqiEmMm04xG2KlFMElVlQhH0Gi2WF1dJUmaUOfk52XJvYePeOfDD3m8sYXnS3Z39xhMJ1SmoNkWGFLKXNNqLJFPFelkShSGJEmLZtzh2jPXefbyZTw0RTFFShvyamqjik0RrlMVjzEFYTFQ63b2s3arzU986Uu0Ol2EsNlZP/zRD3n3nXcJw5A0nR4a7YSoOboxNmJK1MTweGy6haUFooFKFVDryLN9M9tA9pxjk6nHceCD/cduFPtcHLM4H54jLQGAOpLr6Bu7Fv+ewBe1OE296cuy5KWXX+L119+wDEAIJpMx/+Sf/GMm04m9lqhB/9sAX9Tho9T3eFrnFzOX3LGw5tnn9imPOLE0oGeRgrU3yb6N2XUs0J8gSLO/j8+vjoyzX9hnnvUkBKu6ijrmwtQxFLp2T89URtf1OHfuPJ955TPMzy8yGo149923+fjGR5RlgSVctleeFemNDRM3tXfpUM3BvtfaGOe5EkdCu9NhcXERI2wQnRCiDtap0MZKvFEUkmcVo9EUR0qGgwHKGPKiwPVcKqXY3evR703IihxjNOLP/rk/bagr0B5xKvvQxhGotMAVDsobUeYVjWie4WhMu91ibf0EzbbNV5aOi5AO+3t7/OBHP+LDjz9mmqXE3YDuXIeigq2tLVSpMUaRVxOUzlF5QCteRAqJ57g0kpiXXnyBK5eewSiFyjNbNgldu5Ocw5fuBR4YG1FmEVDDUc7EPolShldeeZlnnrlSF7+UPHr0kK9/8xuMRkNczyPLUoS2m3O2MUpVobSqm4IY25yjss1CHGE7xErp4AiB61gbSZIkNomlHk8Cf7bJjlmsjbUB2GM55PSHHKdu7Hl8/P8T+KI2iq6sLPNH/sgftnXlaiv6r//Gb3Dr1k3MLGx3BrBPuTb1d0/o308Bf0ZALMisFDCzhVDP5XBd4EgF+m2Az+HaH0X3fTrwTS1BGWwfSbuWIKwUbAzOTPWoW6UfXkIIXNfHGMOVZ57llVdeIYpDRqMh77zzDh99+AFC2nM8x7XPLqxKJgw2FLlet5lrFAFCWve3rLtahWGMHwR0u23a7TZ5nuJ5HnEYIiXs7e0BgrIo6Pd6JElCoTVpOrV1J4xESluUdDyeIP7Mf/6fWpXWmVVEtW4dI6AyilAGONqQu0PCIGChtcLC0ppNTxQaJ/TRxvDw3n2+8Y1vcff+fUplKaLnS05faNNdbHLnVp+tzW3KQqGVLVIQhjGOCXBwWV1e5uqVK5w+dao2kNV96LXNjza6Tmk0tr0RWDBiBFrNetrZBc6LjLIoWT+5xpe//NMgxGEww7e+/W3u3r9HUNstlLZ6mDD15q83nOf7NuOwjuhz6gYdtoRzLVfWHNvqgDNJ6RhwZy6vQ64CHMtGE+aY4c+6Surz6sMNR7ppPYQQ1j1Yc6gj19kRqH4r8CEsPGbznB13CK5j4Bf2YLS2nWz/w//wf2xjwetotzt3bvMr/+Jf1EA7FkTzW9x7Bvzjz8Lh8xw9uphVWP53Bf6xaxzB3w57mTr+UM/A9STw7TU1QtTNQw5rJRxdydQCsD2nNhqa+ghh21dbMNsiJs8/9xzPPPMMQRAynU64ceNj3n7nTXQdDyFkvR514rddNxscVl8YrQ3a2MxCWefYCyFxPRsg1G63ObF2gqWFBfr9HtPJlLzIKcuSg4ODWsJQeL5PmqZI16oHWV5QVRrxF//SnzXW5SZw6pDRWtOk0iWOcogCn+ZyyNxcB5RPFHWJophplfLOR+/z9jtvs/l4EyldytyGChpjEFKxdDJgebXDx+8NqJShzDLKQuEHbXwv5syJBdaWF0gaCcJAkRdUda28IPRxHRuII4Uh9HwM4IW2pbae5QyIACGtPYFaenn+uee58uwV/LoAyNb2Ll/7+tcZTyd1abDS+uRr75U0RxzOfmB9sUpb//Bscx+VTZrpEkcq+eHGnG3kWjKZbXb7224cqwPWZmfqjTVb//o6vzPg2816HHyz844DxszE3nqOx+/3tE1iNqqq5Of/5M8zNz+HVhrHEWRZxi//839eFx6x5xxe+xi2/p3GE8SyHp8C/OO/Px349p0cv5Y2daGLWrTW+rhNYXYNdRiMYzNK669nBLAe+lBnBwt7aYlHrXoeztdAnMQ8d/0Frlx5hiD0GAxGfPj+O3z88UcUZW6t7XXOANjquk+8LyGsZCFqImgMprZjGWPwfA/f8zi5tk6r3UIISNMpuzu7GAxRFKFUieM4jMdj3MCWCfc8jyzLEX/lr/y5mYG0lnYEZWVDdpe6DZYX12h3F5ENzXg6IHRbFKnLu++9yw/f/QEPtzfqMEKD58XowsWYCq1zsnyEkSlxEiJVB6PsQrmOx4nlk1y78iyn1pbwPZsTUFW2gw71gktp3XJ6FnUnLBjtm5vpbbVObgxaV6yvn+Qzn3mNJIlra7vgR2/+iPfe/8AawmYLqo50U/sa6zHjijUmdb2Z7d6y1xOz42egPX6eMUeUYGa9r1E2m7695RHowW4mcaj7Hn1hwW/ql2OzuOxOqIFvb3zoxdB13MFxYjEbT4Pr6WPEUy25TB0V57gOn/3sZ7l65QpKW6IsBLz55lt87/vfryUxm6k4G4dGx/r37P/Z9X+MKB2b2gw8MwJ1fN6iJlT2fPvj1JLEzKo/O/rw6Y5otAX/YfUg++GMYM0ChOqZPfE8M+BZYjBTuUBr6zECg7DtVA7PEUKysDDPlWee4dKlS3ieS7834MMP3+PmzZt1cZlZi7HayFdfQdgp1Hq/VV+1NuS51fM9R+J6Hm6dLJck8SGXDwKfsixoNpuUZUGWZ5ZB1tF+nuPivPrKi1/xPElZlbY+njGsnljh0oULnF5fJWk0UI5kqscMxj3eevMD/vW//ioffPgBWZ6SFQUCQbfbxXNDitK1G15AVtjUQ1ckeCJBqoCF+XleefklXn3pReZbTUtralHHPrTB6sM1l51thHol/j+N/Vezdcl5JgY+mbnc3vuYz5ZFGQBVRYAACKDABkDQoqoAmial6emI0b8YKSYmpEt9HRpdKWJ+wdzqZjQ9LXY3yWYbGkgiCIINgGATKBKOQPmqzx23914mM+fied5c65wCO2ZVnDrn22atNK99XpMkgrI0gGqPV+s1PvOZz+DFFz/DLKYMbLc7/Lt//x/wox/9iAyv5owAQ2m2tm7JBKr2omIwgrhqZvJzZWyQtiwf0fd0S4YCF5pI5qRTrLrcv6SkzsRTHgS3QPv1b2P8BfEuCc/GXr5xhemuXq6s72JeEsIpJTz77AfLcyikK/ztq6/qu9rDBcMvn21PfN86Xn3tCqND72dp6kvYgMKoPjOyZPPSyBf7MWebghKFQo7DvMTgfD6KILV7FnFgFvFCWDjbm1mFFiG63+/x4x//GD/+8Y+x3mzwyKOP4IPPPIOnnnoW4zTi9ISdfJ1jn4tQqSmocAD+ZIzDqNRpKsbipvmApLMEhn6PYejRNGx4e+PGDfQ9AcbgPZq65mnRTQv33/23/03ebs9x48Z13H70Udy6dQur9QopTojjgIiAH7z+9/jr7/85Do83+Nqf/A3cuAEcEDFiu7vA8fER9uOkltodq4OmCcM44aBbI8Dh2tERfuaFn8GHn/8AqtojZFeSbozRZyJPJMNSMMJNcOpq65Q158Dkisceewyf/exncePWLex3Ozjn8fDBQ/zhH/5bmuo5qeZ5QdBXfNElM+ScS+23E8GU7+kzTmby1Yv3IQPkLO0oSW4Etuy5hyuEzz8vWyMz15SPFY0fsai91+e9QlBY3PsSE15h/GzA23J9Fhofcp8effRRnJ+fw3vms1dVwJtvvolx5PmDFJgzgywvi107R21uuQwAfdirn7962ee9zCa7D8mH65ytKarWMRvDFsAOfGXhkphFB63DzLuyOhaWJV+VQJHHQIEigrjC+Pw0W8yRUTOee/45/PynX8SNmzcxTSPeffdtfPMb38Qbb75Feglq0IGMnDEXy0Ue0qJtVa0BrVc7tpu9IYFuxTMtbty4IXCQ/TK6tkWoKiBGuP/uv/2v89NPfwCPP/44IiLGcULTNAhVwKt/+wN8/Zt/hTce/ATHjyY89cST+Mv//ftIO56AG/MOcBlTTHC+Qtd22Pd79PsEH9ZYtRtcOzjC8889hY9/7MOoq4hpHOgaTHObYS6kTBxJXAOrABTG945Hd8HZxmX83M99Ep/4xCfYgzyx5PCb3/wWvvGNb2DVrTBOY2kFwntpA/8zjA+8v7S0fO+KprdrZjymZ1KQpVIwASzBtDkt9urF+87uwtVxleeqKis5EpU931kX4ooI8vI7zrFAA2ZGL+7/0xjffhtjTgrnxWliopSGSiKd8Yy8uK/9TrJGlhGD5fvLK2eZ+EVQ8rtB6cQpJQRpOu88fGa3XNKStDuYKBOVi8GMzkUY0ZhaJdRlnKITuwrjZ4el5GX0gaY+12L+3nKP9IoUGAVYFQI+9rGP48UXP4XNmsd7v/76G/jzr/05Hty/i7pmlICXCUjl4EuAeHPt1K3HeRbDee8U/aJp31QVDg82WG9WWHVrrDcrnJ+ewP3P//P/KzdNg2kc0K5rpOzxZ//H1/G33/8B/u4HP0SfJ1x/vMWTz3a4ffMY774W8NoP76EODXbbHXPp19ewPR9wcnqBUAfG8yePj/zMC/j0pz+Kqs4YdlvUtUOO3KycTFpeZiDnqOEdiJKimMi5LGCcIo6vXcMXfuEX8NhjT2CKI5xzuHv3Pv7Df/h3OD07Z6cUEbll2RXigPbJHn2lmQPE+OWz5f90PSCT00xgAMU1gWrwbcQhcC4w9FtEyO+8n+hJvABEtEb88zKReFOklp4WYUjOUhp/kbl2lfGX44bG8Z9jfCcB7SRUnMulRVWBMxb3Svqxf9tlWtsJmDXtac/4z14OzDVxPM3ZyW/3np61+ffzPktj6rZX6cyGZetgaH9GXi42hU7mqs0vzvcjMD4vxCXBViyAMgi6JBI4TVPjC1/4BTz33AtC7R1effVv8a1v/UdcnJ8zWUgusF1cT7qRaVGXbxbzTIczAIhMoblZr/HYY49RUPz+H/yvOQSPt999G3/0x/8W3/7r7+DiYkL2HVwVMOUdcn2CZz90DZ968aP4w9/7K1w/fATTWCPgCCmd4MG9B8DUoAprHB5fw4c/+DQ+++mPo+s8LoYLlZlSQ8PMo0wTaW7SSNOev2fG4XoRXMsZ6Psen/jEz+ELv/AFLToX9S++/nV841vfRNu2OniDjBaNwEURYsOZ6Y1YrzCKMf4/pOEJyuhAkZRLrXxGRvA6b2BxLb8/z/j9973MKFozrQcg4nE8Tch7nttGIitfmzXZws8uv6XxlvO1yy004vJ7hfEzZG2xB70TAQLEGjjczOpECbqUaabC3lsM1O79/89VNK/KrC/Py8BXXmTE+b78k9+1e2T+o3yGreJ+isa3z5vrYHuip5mlAy5NWb9L7osEQPZKRRZtDQMPTz08PMRnPvMZfOyjP4umahFTxN/93XfwzW9+ExdnZ1h1q5KfEdPEaJQxPADnstpsz4zvVbBGOkio6xqrdoW+HxBjhvuf/p//U/7KV/43/P1PfoSU2VvMuYAx0lTKVcIwneKDH34c9x+8ixA2aMMRuuYIpw+2cCmjqWqs2g0ee+QJfO4XPo+m9pj6c3ivY4GSCMQBXmET2wznzKxdEIA+Q62d4IPDNI24dfMWvvCFX8TtRx5Dv9+hrhpsLy7wx3/6J3j33XepPbxHP4xM9DHzV3tJ4p1Nu0KIkuBLYqJlx+CsE6OXjVww/jRNbJ7gLAbLRqN2cpDR0Zc/dBdrn3C263HUrZHrCk3dwIc1kuNJO9sHD7BqKrSbDufbHVxuULcjNk3CRdqg3yb4ZgR2CSlkbK4/gfHsPob+AkjA6vAIzcpj2A/41k8cvnP/iGO2YV/RVEshA1ufKwLCmJO/ITcmCsVHYVwj/5TnrMfCKGIKW3Ms8BMs7mGXW4QG3zceZWouBWvOPHnJIkAZtARmi4I/HArvS2tqXo/S3EOiycZtFlLmw8u8Fg+f57i4n62b/Q2AXZ/4l/7vUNfMJ+mHAZvVGr/8i7+MD3/4w6iDw3a3xU9+9GN881vfwMnJicx4ha1TYjt7XVkNUVJiq+6qYsUt15AgZIzsEdA0HdzPvvjzuQo0B8Y4IOcBY9yhbgPqZoV7Dx4i5gznEh6e3sejj97CtePrqMMKefDYtNfwzFOP42Mf+xnUdUAIDeI0wucBcBlx4qC8IdhaiLqcajL7s7MUtUo7j77fwgeHn//5f4Tnn/swXAioPA/8eO31N/Enf/wn8F6bBR7KAecxjtMCYMnIis/OGmoG7qAkieVVUnb178IAi6GWbjw5l/p05zLPSFfar236P/3IKTZVjyFFjH3C4bU1+j7i4OgAr7/d44nHruO917+H20/fxu7eGWJssD7c4N47P8DtW09hqgLOxx5rVPBTj70LuBgSrl9r0TY3cHLvJ0xlDS1qX+GHp0f46k8u+/mFABfEar+vfsbWZflvYjIA0iSNz9dL6M4Y3xZtyUDL37YHC9N/+ZzlmJaXjSlH5m/Yd9gajv0bp4nWiPUWcJesGAoJXJk3QMZPeXG4xU9ZH2DW/EtrYcn477v0MadUc46JtS6+qpW2C8B5Fm3B4ZFHH8UvfPZzePTRR7TGwN///Y/xV3/1Ddy7dxc5s9kGMzj1GBkiOVuuAgvonAns4FBXDeAIgIbHn/7wnZx5SkxV1Tg5fYAxbnF4rUOoPcaY0Y8JyA26eoVxmzDtB6zaCs889RyefvJZPPboTVQ+IviMYd9jmnrEqRfwwMX3nj+2GUZ8NGHYxJEJFjNx7Pd7PPnkk3jppZfw5JNPwPsaAM8U//M//xq+9rW/0Nom9H1PIK8cm00RX/zNzE3Qr2I6cqHURNJKkS2NMjNElXTYYvmcer7HyFLKWbPY/HTKryOi653D89f3qNuMgB1CdYDkErpVjX6/w3pVofHA2O/gI3Dv3oTBb9HAYbU5QGg6nLz1AD4FrG8cI+5GTEOPpl0B44iL/QWuH25QtceI04DQepwMK7z2UKDogklszvb31cs+t/yOEbQRLcBFdHxR3ogDFppx+Z2cBNapisxb6q64Ysn4dpFmBGApPGwMHNSOvYzPmY9v451PWeb3be9svvNn5yWwe+k9ffmqNVK09U9bO/0u7xQvk66IZoqscGKcEttpyXq072+3F/je3/0d3n33XVy/doyj42Pcvn0LLzz3PK7fuI53330XQ98DThhS2QMD9bzi+wJDFREYpxFTHNkd+mM//wuZhJtRNcDbb7+O7e4B6lXG+nCN1eoadrsKaVrhyFc4ahu8+OKn8aEPP4O6axSmSfB50e8bk84EBrv5CNHkRU1etL1cAS6Owi6ZzQQ+//nP47kPfxhVXSNOI0Jo8Mabb+HPvvpneOfdd9DUHQA7eIFgWFJsdbmRRuyW2cU33g/oGQNf+nchBvst7Z5JNZZGXL4jZl8Ssvcev/ncKa5vgJQ9pv49DBen6NaPAFWNN1/7MR559Dacb5C2p/DdCpvuAG/cfYDbhyucXZygWR3h2uNPYbz/Jk4vtli3DaKrMA1bxAnoujU8Inb7PXyo8LenN/GdB0cC4y4T75L5YWNeaEfZSPN7mZEK52gz50yNAsdfKTNObPe23xYStdfcIjLgBPDZddXissv2z3nSBU1vPtO+w5p9fo5FUgQhM8TZlwQY26BdvZzT/W28C7rJsgTMz/6HLntn/owJLrmLEnDMK5tBwKv3dFpYA/yeeuopfP5zn8ONGzcA59Dvt3j1O9/FX/3VX6EfBjE/TXmXMZ9XuMhuzMiY0oTJsnRvfOCxO3AJCZEZe+BpojlX2O9GBLdCyBvcuvYE/tGnfg4v/9oX8MQTj8GBmXLZavLNbFMGUtDhA14SyRUJLo3oHF1olc8Wn3kccev2bbzyyit4+qmnCOCBZvVf//V/wv/2la9gu9/zYM9RLYaMGMrSzxrEfnPyM18vie7qZaGiLLVmmqfcsxDK+5kHZlrxRcl4h08+k5AvThB8QoBH06zh6woOE64fX0fbHSCNPYZ+i6NHH8U0Atc2PeqDa6ibNY4OV4g5Ifiark17jIPDa+i351gfHeI7r72Lpz5wG+v1NWQMeO884J0dD728tAY/hXBtfsvLLBbYfG3O5V5S+bKiDFW3i7vCo6mXgtDJD0+LE3/t9Z92ZT3AmI7C+vL+OkUpJjtsYrHPl5nRRrXYS2FJ3sKTZfMMMNSddCMn4ahb6cX5veVv5RyVMREPsBEs8zp4I/ueF4Brr9+7dw/f+973cPLwIW7evIWua3Dz1i18+DmeaHx6eopxGOB1uo+Fjw1RsHsbLwJAuPaBG3ciJqRMEyBFh/XqGqq0QVttcNgd4TM/9wn8yhc+g6c+cBNVnZEyO+9SY8++Hn8oiZ2/vBDz33O9NwwJthWCwwsvfAQvv/wSQsXeZ6Gq8PDkDF/5ylfwnb/5Ln2lK2ESdwl0ubz49tsu+5d9+tJlGsUp5KKFD4FHgtspMkYdKfOAR6/n5IW5hsWc4YAPdSe4fbtF3R4ihgrjkIA8oq6PsVmN6Npr6MdzbG7ewP7sIdweOAktjtoVvM94eHKK/nyLIQGb40PkISPkMxwcH6Pfjnj2sdvYnfdIwx7trUdx1tf48QMR0jI7sAxv1vJFky3Av3kiJCBna3lpPS+vLRZEfGktMmWkV0rscp2X19V/Ly9qQRGwtGVWb0H+/VPCw0YDIOhLfpj3PesY92lkJWbUqTOcw08Zi1mOSpCyuSJzfFcp6lIIEGA2YHblnSKMRL+Yh1yuLCsmpYS3334b3//B91HXDW7ffhRdt8KTTz6JZ555FgnA/fv30Q8Dmpon/QKMngEEFr1K2WOKcM989gUqtuQw7jJcqhBch8PVIT70oVv4zIsfw5OPP4lht0Pf72dpdyUBpiSllIqn5Xv2b1fMH3uNhJCx2Wzwy7/yqzR54TCNI5q2w/e+9z38yVf+RETDxhAzYm7mGC2OArws7u+WCDEW4N4yDOPmLxqT24mtTv0IzTctm70Yu303K3MKDgVJNSL9zQ++jWvrFhcP3sWtp5/B26+/hU0H+PYaOoyI1QbnD99EtzlEGgPCysFvriOe3kO9PoTPAch7ZJfRn0VMmHB07Qg+ezw4eQtVOELq90hth6M84D89PMRXX1+RURYa3cb/vnloruVnYQ5bp6DC+Pp8CTfa5xZaKi9MfUDhQ/3bzPKrwvcfMveh+zkJKftcAQeLZTXPAaK2Ep0xi9/CXZfmad/56WvDfeZ8Y4qAegsUrEJzsW/N359NfWDuP2hzATTIBa3a+8ZfZu5DtMlGHgm3bt3CL//Sr+CRR2+hqmogO5yenuDb3/oWXn31VfUApOkPsKlOShFQ45xQX6vvOLQY9g6bdIzDdoOPPPdBvPKlX8THP/o86spj7AfEpMVK+VJqIgx0UR/0MqHFRY1TMctKYFeG59E/GfjYxz6Ol1/5Eo6PjhCnCCCh7Vb406/8Kb72F18DnMMk7Zotaylnrdps+nnHZoI5JWphA6CuEujCh/XKtXaOR1ubkHYWhbiqRRbXTGD2GRZT8Dtm/nKTn715jnXb4HS7RwgVVpsDVClhHx0Ojq9jtx9Rd8Cqa3D+d/eADvD7CtOww+aww3k/onYJaaJbFuKIXFeoug6xDxj7PY4fvY6zu3fhmxUe9hu8dnoZa1heNq+rP/YesvggYwb0Ft9dCoDymq60EMDlcrTsls/I2TbInjNbWvaffT5jLuu9zGYcSrLyam44v+H19yLZ5TId8H+cCiMV9l2bItTGe25RTX/aXRGoHKd0vKZFSykXjIRnUghptx8TWHqyjctoKsu9MeFDxvW4uLjAd7/7HZyenOLatetYr1eo6grPPPMsnn72Wbx7912cnZ/BhYBJ7lHdNIBzcD7APffpT+bteY8bxzfx8Y98DJ/59M9htarR9xdIcUBdq92298iRNfJZ53YRKLGFMsK5KrVtkmSwpISOGDOOj6/hlVdewc2bN3jAgFIN33jrDfz+v/7XcN5jjBPgeYLKVULz1jUlO3r4QjZJCHOoI2WBcdrIQnTG+Pr3FKcinOb5zNclSa1/Q6CNaQZLSJqRZo7pN144xQdu1xjOdzg93aJrG4TKwYcOcD0uzkZ07SFylXB2eoLjzW34dkIILYA9Hj48xfHhE6jrPU53EVXfI7kJJ6f3cOvW05hiD5cdhujQ92f4/sM1/uruTTQN+xD85y6bh83t6ry9GMHes7naVdZKHypxfHdZ26XEfVh+1zS49ywUu/psJ+ZIedEodXFxLExmohCfL6I0mem6sMpOWgn2yWza3y9pmBfnynqQqqoKkFlCvfqsrUcRWmJSs5osVXv+zlUe4WX61InxC01pXEuLKCuF2SJNP/PCz+DFFz+N6zdvsoNPqPGT1/8eX/3qV/Hmm2/i4GDDI7/guM4f/dTP53/04ov42M8+j6Zh/nGAtY+aw1XWqTOrTXUVAgt5plFmrRODktCxICBuNNVAVvOJF3/+5/GJT/wcxon9yaw76de//pf4m2//Jzb6dEDMEVGEcpVAg3WhMT9msUhcEJ4BuPzO0sTnps/mWlJ9v712lQiXm23/xoKIIIa3tSvmcnb4Pz13D9eOAs62I2q3x3abce36NezHCd3BBm++eQ8HzQ6N32CIE4Zhh25zHU3dIY0XqA5btClge75Dd/0QLmbUucPb+x6H0xY5OFSbDsFVSOMe/+mdCl9/4wDA+6MXV6+r63qV+L3Ot7PPRoU0obU2IJcRBCWqmKkvojeSXTLB8nKOBFmFiriJdeJZXOU1WQdJYWDA9o3a0yR8MfOdK7nt1q58TiiSBvY0pb3j8daQheFKjwYqrqyMjZTounj19DcmXV7/EOOXBhxmWOm7peHnFZrCYk/eR5uKTkV1xH72gx/EF37xC3j00UcxTj3apsNbb72Jr3/963jz9Te4Tt4h/N//b//XOx944ga838N7nhCalYRG04dYedG4WbFtIbMldCCtzkqo5UApsWNiPP2RRx7Fb/3j38bjjz1RtLIPHnfvvoff+73fx09+8hN4z8qvlJn5Z1pjeXmvxTOhossW0RVTbP6ucw6Qr1pIxISTUm3NxLr0nXJlANLqbnZ5nGM/9bzIGef3PCDQ54VbEW17iDpkuHaFs5MtaiUjNc0Kef8Q9dFtHGxW8H6FoLZKw8UZXN1h1a6wn2p0BwH9wwm7YYvVZoN2c4CEc6RdQG4C1rXHxf4cbz2s8eaZZW5dJqKrF/fu/XOOKbIzkw/UQovoC8Om2mNPjc30aM43Q9ui5bfPXn2WXUlJN8b06QrqD/B+xQReaF1+jhEEAsUZ5Tgev8CCdBBozsQZ+F2JJB0aky3/f4HnkDltDpyfKYglyBfCHB0o9+c/irACGPlyTq/b1GweEppGR5fnSBrLmCMCKXLdvPfoug7b7Rbf/vZf47333sGTTzyBpm6x2azxkRc+gqeefgrb7Q4PHjxA+M3f+PU7RAB8yThDZiFEzkn+CQEeBxE8R8TupxosSyUc4IJ5NsjWxisxc+7FT38Gn//8L6iEkCh5TBFf/8u/wP/+Z3+GXd+zEAPAFHnAprldGQkkP8BDWEFB2Sm5c07WaAkx0nUoi7UwwSBZURbTNPcytyDn8jeKqcvPUfLzL/vlbPMKkS9Q3gy8cP0cnd9hdXCIi/sP0KzYDSWlCv3FfRwcH6HJDsN+QkKPUNc4fXCC9bVDIAWsNiv0+z36/YicRhxcP8AwTlh1h5imHtvTE3TdAbwDpv0Wp+kYrz28zGQ2T7ucRSKuMFghUE3M+2B5iQpROcTEOHNMqQh1HwIkAelyZdVkqB5+yay2OFkmsj3XCWsxkPWnXgvmJYNSEyYQvYf3Apt5fFSpW1A5q+0RFc+SBmjaOwHJUM7JJRsc3E/uMOfh3SwcvaNtYe6L5Y44R3pwVqRTbsLfWTTGccyCCYt1Wa5HMfuVXwBZMBbLv3//Ab776qsYxxE3bhIAPDg8xPMvvIAPffBZhF//jS/dAbi5DijS0TuPEFjiVwi+xAcd+Z2jAumD2X9cNH4+p4TtxQUee+xxvPTSK3juwx/m+8gIVY3T81P8u3//7/C973+/hOmMKKY4IS0qjchUjmPJzFke1I0EZNV5ARLrj01r2HhsAe1eRnB2eWd+IMqcoe9x//haVEtpygUJHfusEfMiIzClhOcf73Hrxk1cPLiLmEYM2wsMqcfB5hDTsMV2irh7HrFaJWwvJrhxh1EMVece22GHxjcAIqY0IvsKFycPsOpq+DRibDZ4+NYP8PDkHYT2Nh7uary+APd+GhNdWo8F8y8JLmcS5tX7BB8wTRFHx9fY9HG9gdO585bluLyc+syZMKFwWOyNCL3sy/uHSyWy0ID2d85sogpjOEP9Vd1oSUxsd8XX5845y7UhO9t3bR/nfxs9zp9brhtE81lMyOIkrR8/XNaStFxus9iDrK+8n/GxHKuEhV28I+/qnIMPATkDb7zxOr7z3e/Ce49rx9fRdQ3W6xXCb/zGl+7MBKxGBs6jrqtZSqvBQRnI4mH0Rbx8KEq1uqowDgOarsVn/9Hn8LnPfQ7Hh0eclHNIKePVV1/F7/3+7+Hh6UNUFVsAM/to2ad9XrCyWGZeK1srxssn90JmY1VVRQqaP+bkGmRpmRhj0QaW3ECiez/VWXZhhhED2yY7dfQNMnfpXpBuvRIxnHP4+BMd9vffQWgPEdMO7apGE9bYxoSu26Dfn2DV3Yffr7HqVoi5x+FqhVBHNN4DqFGtO4znF9inCQfew9UZyAn70WPTdfAhoPYt4BLeGw/w5gnHfpU4jZCStHYBPxfvwzGUxBbmi/cWjHl0fIS2afCJT3wC7773Lr74a1/ET177CT7yMx/BW2++daVCcSZYLAi4CIjFEIPOer9E+HpuqMj85XsZgM6Py7qPfc/owoBBpsYulYm5pfyik5ae3xcTaV+dmw+gtHHZIPg+TX+uLxnTmenuLY17TudeztmurP8ZLmB7hYUwMhq7dF29l+O8gvpL/v2P/h4//iE7Ud24dgPhS1/+4p2cEmKckFNCXTdwjtVwzKr7aYTD57DZoN5zNPVjnDAOA24r++6Dz36IaH3FGOR2t8NX//yr+Mv/+HWaRzJ9oO86R9OIJGYhNaL0ppENzYwqTTUGp7ybGbxSEhCkCexvJ6L32gTzkQAwaqENgwjUmJ1mHEkQMseCgE6nYpUs/zf4ufmidw7P39zixsER+u05wvoAqT4C4h7rdoO6nhCqY6yPn0YGsHt4gZwG5GHCkB3a1TWEekI/Ad7X8GMGmoB+StidneH49i3EKWE4uQvUNabJYe9W+PEDCcwroUmbT0ZGVVeFiWzOS0KDtM9C2gMZaJoGH/rQh/Doo4/iAx/4ANq2xdnpGZ55+hkcHBzgnXfewTAM+hKKi1gEr9bzktCWNr4sMGbid85hGolMl+86I0gNTEJpvl9ESgS+MuzY9sUHQHLLUhb+EvMu1myBHfE7/JvAphrEADwRWmtHgREEIM68YutvlJTUYZevCRdblPWGEETLrHgjrV7mSeDyS2WPOTlUVcDuYosf/OAH+MH3fwA/jiym8d7z5NhpwjAMZRAovq8DCiMKxNNrznk4sPmDg8PHPv5x/OPf+m3cvHEL/TAgO48pRlzsd/jDf/uH+O6r38VqvUIEiwdM66KYf2xmYQOgGJglqoWnysR0JTEdvMeUIrKjz5eBcsKI83MnXe/pmxWmN4HjZutFTxbDGwEyC8wJO7JrqeEJSGZk5R8E79EPp9jlHRrf4Y0ffQ/9UCNXCQ9PBqw2Nc4e3EXdtqiOKrQHBzh44gl062Og7bA93SLlHt2mQZ8mNG3A8dEhbt6+hsZ79A/fRnvtBnbjiJuPXMfFyXkRhBBxjdOIYeAx5chsbDEOY9GuSwLPKliaiWfmqxACpmnCw4cP8eKLL+Lo6Aif/Lmfw82bN3HtOk1/J+Fqaz0z2cyYFPh6d/FsYxp7fvGXBWCFhYUozr90n2QZlSpjDVW41JWGB6f8FK1ZxkQ6gO5nug1aRxOUWRGOZbiUVuriaOqFP15Gam4i+KicCZhPE+vzzUU1vktpQt/vOTbe4NI+Gd0TllBJeRkPH2T9F7q2w8npCcJv/vrLd+whZGxK08Lsusk8EGMKUr4TaDH0PNPr13/9y/jkJz9FcCVnhLqCCx4/+smP8S9+93/FxX6HqqkpvXRvSn0W0eQUUYWAQaeG5JRLCa8RTbxyFrqNT9n1gKRkSszld54+T1RDiKp+v7lmhAenRCDHTSnMDv7NabsSpyfuwXukbLaLzDJFPoL3eKa7jzpN6A6PkOMWj918BNeuX8f25ATxfIDPe3SrI+wfnmPKW1ycbtFtOpyd3MPxjUeQUwWMCXEcUVUA/DEuzh/i8Og6Tt49xzCMWB/eQJ0nRHjc6z3eOudxSVgIb2Okq/O3hVu+Xt67cqWUdBY78NGPfhRd12IYRhxfP8b52Tm6tsPde3dxcnJSzHZfEpvmQqDlM50jk5plNo7sQOvMQpGFlTKr7LwTsKvjvSkwKGDt75wTYrRe9trQWdboMszAmOyyOU1a48k3WIx1uTZsvSWhPy8lP6Mf56Q4lgrEEpKUX+8VTjThUfbCM9LAbk6zgLQnmYKDsxwKEiFHMyeyOQlFAAhf/vIX7xihk+5F5H4mcrtm05/M7zwTe/Z9j5/92MfxO//l7+D46LhsWgbQ9wP++E/+BH/xF19D13bIOWHf76QFLdPOJKBDcEzkaJsWWQQ7RWb4JZP+kt7LTQyLo66MiCYdAup0IME0jgiefxcRYXSvnbWFz5nExuWjQBCd6WsUkC6zWiHrHjlnxImHJ3LtKI1feCRi1ezQrTa4eHiKk/Mtcj3hYrsH0jn2Y0TMPZqja9hsjpDiiO1+hxQanD+4h9V6jb7fIyJgf3aCerPB/vQB3n39dUxuQHd8G6vDgGnyiMOA+9MKb57Mp/p4C3+KgZZ76yxrUZ8zojdfdEkDWJieGRkfeOoDuHZ8HSEwnXqzOcDQD3j2mWfx9ttvYbfdoa7qQqSX7rUg0IwZDA2yPvMCvLP9ySByXVd1IeIC5IJHedvnvXfqWmtMKdrWGIoJ/r5rHus8/9ntNR7Bgm5CEMgIzikrJMdvXr4sjL2cV6iqkp6rXZm/UBQeBZCNBxpjyizPZVm7Wer2/3msy9/hN37zlTtejS98sI6w+sLSjoXdPKllL33y9WqNV156BZ968UX0+54MoX53P/zR3+Pf/Jt/g/fuvoeuWWEcBzbIUF86QCW5CUBmQNBwhnFktpSZPQA/wzVYADsL0AOSfKGqSoIJF9OElkNdMUHEFtyuwhSZ5rnh9A5idjN+JMSx2CC7UxEe0lQxRdRVDe88Pvmox/HRo9j353CphkdGXSXkXKOpPY4PjwF/iGl/DhczUrvCum7Q1h1c3GMcMs63J7h58xE0mxqn772Fg5tP4nB9zFbhKeP+vR2OjjuM04iH+w6vqx4f0lxmQhthziQxh5/sWq7P8u+yF47mY7fq8PTTT8FJMdR1jaZt0LUdTk9P8d5779GVuFK0tbzcwqzNAhoNezHmX37Hqy7EXJZpmgSGcQ/ZAVidhk17Clgz1e0cj02HHW5iFh9AupRLY6/PY+A4ltTDoSlPMHMcThYA19vBGXQFtXkzC0c8lqJO0ilpzYu1ksrmcy6vHcwCWESdrrytNVCGqWMWJdsV8FUudgioqhrBpI8NIrO7iYNH17L44+Mf+wT+6f/5nzIx4OIcPrAf+BQn/OmffgX/4Y/+PYZxoJbf72Tes9lGnLgpXoAdEyFZhz+OPN530ll10MJYrN5WnSa8p3b1NB1NytrCc/T8u9SMLwuMbFG0M+a/za8tIwb8HtfX8Zw13Tcoc8w+lXKG95Vi3MDoAeRzTLs99tOI9Y0DBFfh6MYaHgeYUsZUJRw+dhu+ruB3dzG5NTw8kg/oaoeT7RrDNOHkXZn/LiPVLXyo4V2Pm9fX6KoNjq8/CgcCoJPOADQhHhMjGUumzwsws7wmE9R8QyOqoqUyv/fOO+/oNRJmSgnBefR9j2eeeQbdanY3ftpl71ALMg01BDIoNdxlYs6yxHJm6ynngFDxhFmREmJit2hW210eMz8xu3X2t1MefZLCMJwgqn6DvDC7SBoNIEugVPaJ+b0jX2XIjJfA5RHwqogEMQJTuLSM9Cy661QrKSPJep2fzPA59By7lrvqwPAi3R6OzTjNex/gq8BDLy9JveXFBbJD9w4ODvFf/Bf/BJ///C/QFJ8iEk+7w/0HD/H/+ef/HK/+7avqXENCKEwjyUwwkN1ynJB6y+2u61oJRHx/roTiwI0osxjVfHcINHGZ0s27BTC3KAs1Se6cmkwoyWTOTcpET/W8MnZbDQkVey0J5CGzE0Aiekz/Lyeujp8qNKsVrh022D24jz5mVHmNZt1hGiPaccD2vdeR6wrt6hg1zjGmHgfrY6TuEB986giYBhwd30boDjHut4Db4uDWTeSmg/MJD0/u4d5rP0YWkn2JwY15fwqj2+t20ZdOqOq5fddPu05PTnFxwWPJqqoiwXkK0c1mg6Ojo5nwFj/Li0Qu+DTrFQknS+iC1p3fZRVkXVdwnkd8xUQ6yuq/13Udq9Y0/5JbUPJkqcx4qi4tSas/y5hB4fJxrZ9Zl/MP18k5+yBfJzbALk3jOLGqNARUTQ0XeO9oeR4CxXNpHpuVJs3eelT4DmlaPNcRZ6O6vGytAKqpSSyf997BBSCrriYD8DlnpLicEBcvLVo7l4elhE9/+kX8k3/yT3Dj+nVMEw/OGMcBdR3wt6++in/+//3nuPfgPuOtxqQyK10mWOdl5jhFCZAppTnsrBNDuGde8c8lwmwEkCJPEJknbZKZZnYZvzHugvD1wpXvzhlYUPLM/N68Flcvbp4h0PycU2YY24ElpMlj7zNOz89x/vAC1eYYXVih351hP/Z4+PAEF6cP8fb9CeP5KYZxwPl2j2m7xfd+/Br2u/sYxoTt/gFcyMDZKbC/wLjf48Hb9+EuBtSVQ8aEelMhZq6hD3NCi11XmT5I25V9XrgBtLTmOWcRf5LlcHFxgbt376Kq6gWj0eR+/fXXUUyBS+2g38/8dqWUEIWSO1mPtl2mkbPKYw3gNUEeI0Ox0zhhu90C5g/rtzcwbUFHfN8yPStAuSFBIUVnTKXxlu+Ua34dxitSRjZHpxOVnZ32YzkS3vPUJwOjddgsCtLPz/rAdlpmVb5vDMs/pZRsrYZhoBCaFvyQM8Jv/Pord5YlASZ5cqLPhuzQ9z2uXb+Oz37283jyA0/NN3IObdtinCb88Z/8Mb75rW8BkpRwRC0lSYqGdl493a/6bibVFN6rm3pu07QAeIJSOUNFgAkCh+w+RgT2XfNtczZTZ74ygBzzIjtRFoN8MgtzAqLCJbEuFp5HIHHdUlbGlu6X4gTvPZ7anOPmzRUcHA6uH6AfM4ZhizQwTbkJFTbHB3A5Yrvt0XQruLrFO2/dw6OPXGOL5XGLftgjp4iDG7eBUCGOPbzPQIgYhx26zU2kvse9vsZrDxnKKlp/AehxChSQSdYJJBSN2Q1Ete945SbknJB1sClyxqpb4YMf/BByzjyJ1RHo897j2rVr+MlPfoLJhLn2GSLAMpoFMwJCqWW2l9cW9GJMtbxsrE5MHkJgRCgwfTeK7nCVgUsVoWjAIgmLxDXnbIwmCO0+WtMl9uMYIr681ny00bdZXfaTLZIgxViFCvkymQFuNu+zaP7SmlgtQoxFiNg6JTuOS63nvfNWkghYvr2dHOo9u9U+99xz+J3f/m1W/AysoLLzud566038L//L/xs//OEPUVXsflvXOo1WRJVyxjiyhTSEKptEYmPMhfltBRJpLjvMiYtiEhuOk4yaINxMCFnocCHyBXijfRXBGYE4gEYV4DKySzo6d2aSLCluaxKUBWaL3jQNj9CuKkrmilZKpdZjTduiqQ/Qv3eBPO7Q9xHjxY5luW0FXwWkVYdxquD6c1w7WqNyE8bzMzzxxG2sNwc4f3iGMTvcuvU4moMbGHZ79G6NzY1HEEKNum7QhgrT/kzhSJrIRUsmaZCrV6ZWN+EIzNiJgWvlo1q3KgR4D8Q4IiPhzTfe4L1FNwBwcHiIGzdu4NbtW7h27RoZiVw/30uREhQ2Wvy+ElbLEgzLUOTydSzmato2yYw24e8cOwBbFZz58azYE34koWCdfJEV6XBePj6fH+yYZas7NDfgp6xxCKwnsHF6AZdOYKYrvRv4mXEaS0JPAguJs3JDYk7lODII0wJlV8ki9YGRK7NckpLVTPnCwHXnPDJY804C4HHBzlX48q//Br785d/Aen2AzeYAN2/eQNe1qKsa3/72t/Ev/+W/YsimJtObb+PAQp8pEiCJSrhIYmKLzZcQhpjUgQM3hrWUUTPrbEO5aBQOlI7z5vNZi/tZiMqJqOU+BB/gq0qMTpPU7osFIsvegWRsM9Fsse0qc9DfIVjM1GG/3yFMW1Q3rmNzcIOIfluhqddwuUKoK+xOHyKNCbee/gja7hhDn1FXFXJ7gO1ui+ZoDd8d4vTBCbZn7yLHCUfrDba7HocH1zH0FbC6iSok+KaFizInF9lnXiE9mIDMLB229bHYePCBhC2B6ku8mUVbpr3rukZTN7i42OLs9BReURMqRIfVao0b16/jox/9CLyjEMmyvLKwAIkDVmEu/Gnl2RUGmReae1z2abH2y88Zs8PNf9vnATUL8RnZsWGHyxkuMaoD4VL2tyHt9pPzrIr5TA/AMbFLSL1ZkSVK4RwcMioPVMGj8kAdHILjv4MHhn4HFzxcCIhIHJfRq6zXtq6JWSUbL+AzMYFK3XXMtSOdMpnIFJnT8XM+ZyBOk8xTxc2nCc888wz+q//q/4Jnnnka08SEiip4NE2L09Nz/Mt/9a/wZ3/2Z6gqarX9fo+ohgWW3AFQEuaU0bZdISDbDNP0poXt9zRO9N0TQzPmG2W5ClVgmqkJgbzQ4HZxoR1CFYhsR+YNGBFECSS7L3cnIbqI5BXmCTwRp7K03IWGIU0QGLosAizpY76v9x65bjCdvYU2eLR1gzTusT/bIvsKmCpcO7yB9Y1jXDx4F+fbC4S6QnXtEYzbE/jKo+kOcbA6RNXUuH78GFLVAXlA7gf04wAXInbn93Hy4JyHhE7MvlwKxHnsMmO1XiHMqdNGaCkndkhywDjRbA+BuI1z1C45RwxDj+32Ag8f3udcSxKKMaXHM888i7alL2vMY3RmNLF0R7IJfcfqzSUoa/ed7395z22clkcxTdM8d2S4EOCkTLzjZ1Oc2EehnOp0eUvzEtfQOMZxlNZ3ElX6bOL5dkn98rMKzqZpxDQx0sB7KdtOeR8A06CrmvURprBMKMac0Kw6DLKQvfeoalp1ztHdpGa/vDblRxMqe/7lL718p64Zdoox4vDgGL/1j38Ln/rUZxBCDeTZz2vaFt/4j/8Rf/AHv4/tdof1el0kWoJM8CtskFUaDTFEVddIkUf6ONAX5EJcMTc1wAL6yd+ysWQIN1i0ZPLW0XeRf2CE7tw8uBKzdgpvlcMwqAmJMC/i2hoL/UBXPodsLgvrHCx0Ml+ci/cOH38kop62SC6g312w9fGwxW6K2G3PUTct9uc7bM/uomkcHp7tEeIO2/2E/cUFxv4Bpt0pDh59AufvvoGqq5HiHqcnPbJPqEKD/dk5bj7+LE7uv4MxHOH7dzPapi2C1jkJwpGC0KwtvzhrL3gKSlszI0BGV3iPnCa4zBOUmrpB8AGr9QaPP/4kgcIsTadCqFAFvPHG67h///5MIDKhbQ+CwF4To7avXEWuY6Xeh0zWkUUGCpds8PtC0P20qx8HZPBQDpTohllCVCoxsg/B1eQe5t0buGyZHpyQpQEnVYYCKGvAZ+Tyk6XA4kSLMGVhXj6wCYgUYFVXgCNWVhSc/h3c3MbL5mzhzCwLIypJjmthzwWQHcLv/M5v3jGF98lPfhJf+tKXUdf1vEFwqKqAk4cn+Bf/4l/g777/d2Vi4zhiHJnrnfV8d8XkQuK2OQBVCBitjRGyYvwzgDIv6syshfkW987SEF6uAjCbpHbZGArT6/JaHRIZTTIvE3g57PIJPY9IKYqGZ9x2AYrpOcEHZY8lDMOE4Ct4H/Ds0Q5V1yKlEavWISaP1a3HcLC5jqoJ8PWEw9Ua3UGHlBq0rcfm6BB1FeCGAcfXrmO1uYHde3dx9OgH0fcXWK8O0R0comtanDx4gMObRwB4TNlb5y1eO1H2HScMLA6eNCvKgDyLgvjFEduQeThNk3z+CmxWaQeDOkwTMZy6afDRn/1Z+EU7KJDcUFUVjo6O8Oqr30XXMa5f9jmRwKMKrrKSjKgtxVpa20mnI9n+z/cx2uGwZ4a4TDMm8H1gOvk4svsTFHYl40ZME/P87bscQ4L3tPymiUe08f5aKP3ffPYsK4H3d6VL1Twue91onELSye0KIWAYR8AxQanf72kdi49yEo0r0YhrSUvCcIiUeFpzAf1MCGUg/NZvffnOtWs38KVXvoQPPvdhAguZ/p8PNFO+9e1v4nf/5e9iP/ZcRPDQxpQToM4zToCdk4bLWcdgi/CyV72+pPwYmcgQZK4YvuBMAuqyTePCLu4njQ8H7LY7otdXMg3te5cuBwAZTtLY7DGCSSwwJlCl1+B03DHvbZKXxGn3n9tQ2YIzsaghgTiHTz0dsPIT8rgF8gYjIhrnkfIeLnm0mwO47RkSNkJgR5ycnCJ7j+Nbj6HuPIZdj+QdQuZBpFM/on/4HlLdwOMcLgZsDtc4PT3BeycT3hsPi4Y0JktpWdFgfiDXFrIMvGraC4PZ2XSqqffOw4eKa6N7jTHi+eefR9d1mKYJ0zSgroW9ZKDrOvzwBz/kmQ2KGGUAaUpMUpoSqorFP957ZAFTcVFRqS2Y98O5opWdFBSumLpR97k0zwJysUTc+/m8P3jWC8CzoQwbj0CgtwkVan8vYeEUQjMqJUmRvggeX6VnRytDYCEkcJ1i984BcMKhHEN4wQeGjHVEuPM8Icf5eZ5Gf07hcroxrFkw5WYZrP7551/AP/6t38Z6vWYZZWY9fVVV2G53+IM/+AN85U+/gm4lH71MgagoFi2AnSNjxkmno2rTuUdcmJgSxkWcNllVkkxN7z2qUFG6yQz8hy57VgihpMbaRQ0wWxGXroU2KY6Y/i4LKM2QpbmMAO0G9v2ceVKpA6W0FV7QBCKt5pyxvThHniasD49wvnuAgA67vsf5w3OgeQRxv8eDaY9+vMA47YE4AN6hmiYgj5j2FYZhwPV1g/04oqoaeDg060NMYw/vD7EfzrHf7XHt+hq+4hnrSyawdeD4NJM8RzCygFcnLeQd6yQsLBunCW4RMnVGyMg4Pz/HvXv3itAcxwnDSHqCA1arNW7ffqQIzrxYQwCYxhGTsKEyZnG6A7WUodJBtQKuxNh5j77vS9nuvL+8X3muXvcCmNu2vUwfWck7i89CY8iF5ud1zJnib/lvCr4lfjRfuVim5g6Vd4pGt/kYPTsB3l3XoW5qKueJ7oiXG1ZdAZ7HaSRGs9j7uq6pIJ2D/+znmH3XrVaoQo2qbuCcx3e/+1387u/+Lt588020XYs4MXYfI0/UzdIg8UqcfL/bq+/9nC1lSTb+kq/CNMdxHGWCcLJFO2lDbbOd0oktPEMCIxG2XcsFVxdR20gSp4pp5gfwZ3Hxu4xAkJABlE2bTUXDIyjVRdEAqjogVFxwjlVZXyosSjGizkB2rBM4WAVUfkBOE6qDa9id/B222xEtWtRNi7bKqKo1Nu0GB4fXkPoITGc47FpcnO2Qp4hudYzJXQC1x3S+RdvWyClhHHu88857qDYbG958Of4YY2eF+Mp6LVJLs8z/IEAPCwIyUCpLUBpzvfb6T5DyWNZimiYmncBj6Hu88MIL6Lru0v1CRc3ZtC3HmJWtVvx3+qpRacfGHNmKehbhOjqw3D8TYMtn+UUBEh9Fjdw0HaYxwfvL2avOqVJ1Ua3qnAPk+hnTsf2Y+dHEeswVIr3Y2gU4VxH99wEAXRoo85PKRXsTE7JlpOpK0vZN3RCwniJPKlIKsPGOc0z/9ZesUvVQNHcnZ4YNiKQGpJTxl3/5l/ja176G07NTPnBxc9tkgJ1SDCnnIkoCSdLY5WSKTNOce21ChIvF7aF5yQEmmSfLPHznZzfAybpwWmCAkjJLYNgGVrU6zFCKADkWf8uy7QCgqWs0DZuQmJ4xS6Dv6eKYWcd7X84aczL3OA66CTElTCliShG7qkFV1bjYD7j74BS7cYsYE4aLMyBF7Ic96hoYpz3OzgIent4FUsLZ9gJx3AIx453776BZVdidX+CdN19DxAEe3DtBd3wDeexx/eAazk/ewbpq4NMFhaMI3JjcfpIaTxhgZnNw5nPaVKwEVmuewRh7FMFnuYUhBLz91tsl97yuK/T7vjSi2O/3uH37NpXCgphNUJtPXVXVwmris6uqQl3Vs0a8ZC3Id/YOTtEGJwDXNL/9LOkUmk9KubRwM2WSZSFEi/zoP46VSUxJbm2l8u+Yk7o9Mvxb13XBLqjsSE52b77GnySwcjk3y2MwGpzpTrynY96Gvgcsd2VRWLTkNfueKVEQB/KYIn2bBw/u49/8wR/gm9/6JrW6PjhNzDWurORRrxth2SLZxtnklg92UFIErNiIefJx5PnyznlUDUstnWfTxmz1xQDgCe6Y9vZqtGmLCCNwaSrQggViAlJkPHYJxmlcdnHhMn0rZ40alv6XIbeOPlPwYDRnXoO0cC/4b7OEgJASzkfA+w26g0eR8wYINbyrUB3dRlO1ON2N8C4gTaeouhtA6LCbVki+woQWq+4Y7uBRrA6v4/jGLWACDg5vEfWvW0wHN9GuH8FYtegnMm9QuNQEqdGXkzbMC/QcCyFha1ous4S0dihhQK8fh7t372K33cFL0L/73rvFSnJKCrp18ya8JUGFgISMYRxLYo3lscPJM5aFAo1tXtcEy9nPMJpUQpiEUVTWn9FhvNLHoaoYFk7q7R8jrYqUmIjjpPHt2VlmvZPVM8aJ9GkCU/knDlwvzrNSaJfRH+JBCQDr/AG+zvfACcMhVASFjXe8XEdaAczxWDVsShLHSRV3Cn8uAFqj3cKLwjPcG++8kZuqwXe++x188xvfwHa75YeNmOV7Q1LUGMsWJFkyBTJqZe6ZEMhiBB9oVi6JyRjWK5c8pgiIIK4O2svHNBPdW+xX75nEnBYpviklNi7IeZaIOnUHksxuAW6Vy+LyheD4Q7SWmilTTvLjWtAs6Zwh0MURzByFzJqE9gJtbH28rJNk388ZUJw51EyGGccBLnu0bYt+3wPGuHKBysYW8IlzDCGgbVvEyJoBEu7MRM6JSnNZFr6mMUEmv0gfDtDJxfT7szRTCBWyGOe3f/u38dzzH8bDh6f4+l/8BT796U/h6OgYkzo7/fmf/zm+/e1vS7PzodSkwDD2qKuazCxhlRfxe6MLY157jf6+L5hRslJuWYnGCFG5HNZuzApnbN52f0sIs/fMUuBY6YpkEwYSPHXTXMr2y8io9ayL8wuESvstevMljyGUlnOsdeBTlqFE26sxTojjiK7rAAPT1SYvThFQ2Twk1Gx9gtrelefmBH90cIQ/+uM/wle/+mforUfawjxyAgWcmMEWQHoYVU1zMZQuKDPhJRX7GLJsG5IV4qkV08+ZiR/2TGgjmOpo0nLWGlmhj6hOLdl8TTFryePPLIO0e1q8lv8BBizYeJ0zUG/GBHLmx0wIOeepWQRGxWkqCVApWU83XinPqcN1Q1PVBxZmODg06m9IIUUm9SHwnprfJKJwcOj3fSGesj8yZ9PCwvLelyKpYWSRhpmxcJL6xZScC3mcBEg0n1km5bx+s9AtzwoB+35f7vfaa68hJ6BtWjzzzLN44423ADjs+z1ijji+dlw0I+RGEgyjxmOy1byG3ntmgOr95biqqipFLilH9EPPe4tZfaAisbqBECh8zSpo27bMJyn0FgJ7+4/jiL7vi7Ao+y+g7TJ9XlYAjsXuyGpEUzcNac9ZGI4uLenJflO5mIC1KlMtU7lvXddKEKLgSipdr9Roxns/h9iNLpQDA61vzhnhuReeu/PWW2+WQH+oCKDBzHEh517ZRHaDohUWWs+uZFLXtAtFYCGupFpkL0wgqXiA6Y6z/2X3D4sjtLJAtirMCKZkEP+9ICiGLvh8A1ucgX1X4rQoAsB+5ss2nX59vtRGarnhdg92EuZ8mqYpRGUMDpnTWZIZhsJGtgrzFUNJAIuIbGNzpmlehQrDyN55WcLZ5lEpwmJa0ZmbZW6IzGIv8xzaHxPkeSFMoCoyOK69ZXeK0gtGQmYR2l5X+OhHPooQKhwcHOBHP/x7HB8fo9/v0XUdzs/O8fDhQ/RDz/GT0DQHrjXdKIVVrWQbszKyOWatY6VekZatZ/NIKaGpGd2A9nHeS453t9vBL1LHTbBUSnfmIi73V/nw3sM5ClijYbs358XPBc9+k5AFxj3jj33exmyXc+zsZO8xJJgxpYgAa+6ZmNVqFm7O8J7YwjRNxUpyUtxJSXP2zPCLv/SFOy5nJi6M1F58uAZjGkKphksT3y4zYbkxNIWzJmATWX7WKQ6//Hdt8fyoRla6SQgM7zGfWZIXCxNVm+z1vt2DAVirvLON0lg8UVWLoXLx7N+XLy4DY8RM9uHnlhJ1/uxMdE3bFE2bs3oSZD4/amOiUokTxf+MZMu1aJsWHpTgkBlvv6sF4DUO9KN5T/p4VVVhiiIAMQ0WQqxpGjZVVaaiabagHnkwoeTI6MFzfASzGJJtm0ZEz2YjDH9mPPfcc+g6Nmu5cf0mOypNE4Z+QAgVLi62uHfvPoWw4tMhzKfneDOXhXZ7bycccZ2DTtzJ0oJG4HbZ/JwiAtNIq2kpKL1A6K7rkHPGMAwIy1Jx0BIyQWlrAnmcGRnDMMJ0ntFXmiLCUosL8jPwEpnRLC8anJWMGDixuYheggsCVDMxKqfYv/e0PLMEdAhz+7GmrtHv97I0SC9mGRc6YKbSiBgnVNUcD7cPIBPZhSTWMqxiktmshSUjOPkg08RMqJyh/OUZNDHmh9o4uUztbiEL73hc9iTTxYSEmXM2kZxziRIw7KiUU9PEWuwsjcnv8mf+O5fxlbnDAdJ+4zhiv+vR76mpbJ5eKOrySsnKVpm3XgW2AgshYOhprhOPIARt3Y5MayW5R57NyFCrEjLoWVnmuJl0VV2hbVtKdJmfcZkAk1lQY9+tqgq73Y57KEvEGGMaJ7Rti7Zti5sB5V9M4winz9cV8wr2+33BVnJK2O32eP31N8qe3H/wANvdjum6cHjvvbu4d+8+mqaVoOV4snxqG4/1MXCOFqc1rcgWttW4knz3ZVgv54xxGAsN2j2xEM6FjqRZm6YpFgZpR0eyL4qVoP32gRZZVXFNHRybeiSznTKQU+ErYHZXyecGRnIkxvzG0M55lSgZvfLH6TM2Ft6Dmj6lODuyKrRKiVo+JtLIPHfAp0gNH1WIwwUy6SP/WxLQNJgtsgMnS8KhJjTT1RjItI9pGicQjgOgADAwJZvZumiB3dRsiW2TLRZD4llp0GZSAhJ4TDKlKClpDZBx5o4stpi8bOFnSQ1J2RgZ0YiRGIMxlcmGZXmuXcEITR8yAZQiOwg7EAC09Y4Tj3iuK5ppXsJvt9tSG0+RPrJAwxhjCRdxoLx/r9p+G2NQM9NpmrDfsz1zLkLncq+C5RqbUIGsJwoPWiWDQptBwFdQibIxV0oJb731FiOnGTg6PAIysF5t8M4775b5Lc1OM11NsNlFeliyxrzXybAjnZdnAJZzs3U6qFMzrlT05awQpPCLrCq3sMB2DB23z9t3o7CXJLe4Uoeg+XMCosEe+2Z5LK+maSSISWO27vTx2VGI1xx6BZhYZFcS5lVcb9Ayt/fW6zXqusZ2uyVgqhXM4snwpS+9fCcI9ICZMab1VMJnE7cN92Eu6kiqH54iq5KcNocChJcRCbQY5k/ZDyzuagtk/o0mlq4AFGbmQSaXXcuNLTF1yPUQn3Px+B7NJplk+oAtdLJ+bebT81YSDqDppkQdjnVxYMci39qAJJtb5oPhTLvJDXBqo2TjiVNEt+qQ4vxawSXkemX56kkHPsKh9G3LimR4CWMT3k4pz3Yt1932xQRDIapMvAJXlEAR5s7p3DqH4Olvf/BDH2L7qxDw5ltv4eL8HCcnD7HZHODGjesIIeDBgweX9ssrXwPgWhtDmCaDrfWS+cWAk6rWnEWRRB8U0nxG27SziyCsye6ZU0Llqc3jNB+qEpXCzGgDx+C1v3lhQZK4aDEY7eUF2F2Y1rli6TidE2H0HhWJqoTn6AuAeMgvaAzauxCYe8NbO9KnSNzqYpKsnrI2SZEa9jn0KkLhw+hDEphyC4aapgl9PyCmjAyCCk6+YdKx2jkz79pACYgIjRFswWGLowSSoBJf5ykMTLPPa0vJXC18vuDnphicPeBKfTTJxcEY9bJm5mlBQs8nIaEar/esqQ+eBGmNHfl1vo+sRAtJ2WJaa9am3bxyErI2l/MnE7UNU0adYwKQ+dB1Q/S2CJMFYGe+vTFhFSoWv8g85bzJwFOcy1KnidleS+JZ7m1cpEcvBSqFJyMvJuwsZ4Ex/Mu19qenJ7h37y7XLUU8++zTeOTR2xrDiJs3b+LWrVsl1Ghrl5PlYKjO3NkRbWUYAIBJPexs3bKAurqui0CadG5DEOBV6fht+06KkQ0sORlkCZFBkS1jFu/pbk2yjO15rkRTZsDXe7bHkvqTye6QFZePmeE/8sgs2KD1psCQEtLaGvZhY6mqSsD2jHdZPQCtB47HaI/Karbe65q5Mp619hE5K44o8Mi0pBMCHhNDS5Ck8Z5ILhbNBwA2NmDKJs00SjC1ywoBeREXtU2wgZkWQybT20Z7M8ESmR+ZR1Q5R7DJzGfvKZlnk02pkLIYbENtwYsUVKyXmpFhGlpsSdqdC1hVVQnL2YJ6P/dBS4uYs5NQsx8IaKpqosVVqErrqjIOdUkxhjYUPcq8zGJOY9AiZAROLTfZKwoTPBNlxkmp0TLpra9hIT7JaBP0yEq5VvlqFiNYPr13BJ24RbK+csY0MXx4fnYmAsrIOeH09BTPP/88Hn/8cYQQ8Mgjj+D4+JjdcZXvkGyfTKCqWWuWQLE1gu2Jxj8pwSwucA1qQo55HEe4Egqbm1tShuu+FleXhRTkdiwFDFSRGmPEMA7EPGT9GV1lo92SD+Ixxogk0NuBDH1JAYrOzcJypsgyxe+SlrwA6CxrgtgHG41S2c7ugM03WLJUTjg7PSP/GghgxAU7WliAlvckxuLLwBoIyDd0M0JfVRV8CBgkbZqGoZRx4uKRqOZJwDLLHP0e7xVmW2jm8llNxKQ6icDJL6IqtsVYbhRNGDKe3SelGVybFDP33kt4zczgvUfOESlNlOiBJ/1M01CYMpvPXzZe2kPMbvehhSJzPnjEhW+XzNRSzQCMwBaAlLMiC6H4e5VpZgO7LE67OF7MLTIpo7TbMAwYxqGEgkwY2P7Y90xAGDNazUGSZnSl2868l6CeQ84JDx7el5WUcX5xjs3BBq+//hpinHB2doaTkxM899xzJWllSUfQmgWl75IJeG+z0GycXgK7aRpqQ7WcytatedHII0swO5n25dI8TYEZqAjrMtQ0bDm3OPSCc+ZnUhb+s8i3N3rLMuX7YYDTPFNmkwp7Ri6ptLqfMBXvfUkG6/u+CB1ba6Mf0/4pR625w2rVAWC0JMqS9U4p8M4hvPzKy3e8tEJVNej7nnXXymc3NNIWOUubhcBNgQOmOGpSAEB03NnmlVx2i9mrUEBhOrcwYfltLYIpIvmktlnTNCElanwPh33f0wSXpCMD0+SCwoY50zSnNOScsvKax5EhL/Y757hN+zA8ZcDKzFhRIbhutSajaTPHYSio91X3w5h4EpDHNbHwDuefDPV1dHGcY953ITQRzjTOXVhsX6aJh5vY+EygJ5mvTdsgyBwOwlzGici3MUYZLygr7XlBboWN2UGhO9NIjuasM6tFwujJJ59EnCIePHyAnBIuLi5wcvoQ3//B91DXNT74wQ/i4uICDx8+xBR5/FVQyNA5V0BP7llmL4DE/AzbZ0jYQOuX7ATglNA0DeIUC8BmdJWyIkiLeZV1lvBLC8EQBWQbH9ia05JVBGYRHjawE4qGBKUmtzVd5yKAIMUkH5+8AmSZ9tm0vA/SC1Qo89hc2SjSA/ksl4Q2Xw6mMWVpe+z+x//xf8gAidX7gOB1Kqcz7cnbppTQtqqCmyIm+bahChjGHnmKaLsOsMEaIRSTjBPLUD8+xVeHcUBTN4CaRNikTGhk0NxMiZvunMN+t4f3DpXz8HXFIprgsd3tKF33e1QhoOs6abgR69Uah4cHLBcdBkCx9hTVOz7RRUmJiPmgg0M3m7UIiuZj3/eAwLcQaOGYdLbFnaYJ/TAUodA2DXwVcHh4iLOLcwRHa2gaRrRK8DHCzJAQc8But8dmc8DQ1ELw2poY0SZhApbhZlopCfmNAqhgadeWn5/J/FeRaYiZy5UNdKrZQFVRDeec1i5hlKBahpFu374t4HHCg/sPsFqtEGPC9RvX8egjj+Hpp59B3VT4vX/9rzEMPLwVcuOSxkEing9RHccBldYsSZticYIyxKjr1RoX24siIKJCvaGikgvmdy8sN2dgnqeJbpiAXfSthR9IM4dKAtGrYYnq580kHyaG86YU0Qgg9KIRKAIE5YnMAocWddt20vJM7eWezaBklukfExuDOMfFcFKsdOfYLMWsFqMf9z/8P/5ZdgbSKSvbmBULkCPnjLptMMmspWkTkQvBCEFW6awRMmTaJyHMJmWTaTdpvG7VlUQLM0uGcUDbtkiL0t6MjLaqeaqPupOYHxsVwoNMtCx3pWkaakJ9trLsxOKnU8tqxhx3BpqmlfZNGMYROSVUCkOZ2WWMArCPga2Z8x6Q7+eVLJKRS5qucw790ANZFV7SkjbuRseIjSOjAmZmWpgNFnISMpxViWh98mwP3SK8Vdc1NpsNTs9OEVQAkgrYOMd+qXkkiGTi2+ebpmHtgKwViioSeN/3fF91AV3X4fHHeIy2yx7r9RpHR4fo2q4wVQgV/uiP/gNee+01EbfDat2VjDqUzMCESb41c9V5kfC5D40SVrIwj1qp5m7hgxst2NqYD9/UDaJSdY1G7V51XaOuaiqYRfgsKRuOVuXcij2rJZv3amgCjsealDgl2sSU2KxEEat+z/UzPAJwsiLnvBe6nrw3hPZz72vlu6RFeTHrKKZFSjkkeNw/+2f/fTZty1g8Bw0JgHFkk0D6SzOzkEHpm/oQ0DYNdrsdICS6VX01JahCFCAhVVVV0GWnZKCsfICmYcZb1IEN9m9nIaycy8k83DjbRCBmMlxQ37jVanUJp4hThDdcQZdzbmZ2BwRP0ArZqT/grEUnzcWyG/MCzAti+mjJLJRpJBQ1XMRio3gfzitHO0aJ69T3fWF8y1uP6l1nbo+NyZi/MKrWZWkR2PeNiJeCNyk/gb65CrBMS04iMiUhmVDImbMzpnJgh6W+75HynEp6/fp1PPnk47h37x4cHJ595ln8zd/8DfcjZ+z3e4zjiGvXruP8/Kwkotg59j4E9Pt98fOjTvYx4cZxcA8nK0NVL79xGlHrYE2j6ai9dM5hvVojI6Pf91hv1sRABOAOlsW3CG2OIw9yLfte0W2ykm3KKK19utycxvjIrJI0jahVKGRt2mKkEDCrhMLAEnrMjclwXg1RHDGpSb0TzSXNGfB+PnDUnr/f77RfnqD1nX/232fbvOVhhCZR8gK8Scps4mKj+ByQkEgxMtymyiu+NhNgporg38V/IRPnTFTSOcWlJ8WJxfB2ZYV6bJy8j37rmUuf1eKWoBGkc+0XZizvxNdcUlsnvar7X1oLY165Ova7kltiJkdGxhQZYzYzGzKtbT2MkdwC5wgC76qKmskYKctvK8kuCqFNcXqfqe7kL5JYOIasAy0n9c/zAjaxsBwAYjBBrkYSsNc2LZxCRCEE1DWFseXqwwEIDjkD4zCgbVokS3RR3wLvKEhDsHZQ1PbD0OPw8FBjYRosQVTSVs6KKAS2+4opYhiG4rc2GkvdEPRdroH9GNPbWtta2ZXkak0Cpe07s5adC5eqK3UB02QnOfMZBIhn+jLawSJPwoNzqptGESjlHWj/OUQSjA0zibFDxWxWc0eTLLmUM5q6xjhMrBQUoGvWDudGwZpSRnj5y6/cgRhxqTmc+q/BO5WlzwzOz8xmtS2wV2jNS+suF3654EaQXtV2DlCbJmbZRZNikuDLi2bPcvNmqe+VIpvErLY5QTn8FnazRba5BNWA83lzZCCL0ZNM91kC8/lVXdN0UjIPMpApWTiqLI3vFBpboMW21nwO4L1yFhR/tzVqaprOtsEc07xXXMd538KiZZnzRPXHaSyfB1AwA6dIwSB3CHBwjsCdrY8vFo7GrbBtTAne+hx6j0rHUU/jWDLWyDyswyB9MRIwDAO6VYf9blvG7ZWIZGtEt2aAcyT4JFPfxmRrM4yD3A8ygwlQr4M7QxUoKCQ8zV3KWclaEu5QluiqWxUXM6e5c3OlatKg/gbr1boI8fV6jRAC2oZp01WomHKusS5pBkBxkb33RYhdnJ9L8A147727eO+9dwE4nJ+f4+zsDMF77HY77Pd0ge7eu4ez01OM04STkxOcn51jGAZMccL5+Tnee+89wDk8fPAQF9sLODiMAn77fk9UH5hzzm0RMnhUtEka7+WHThOqimZ/Fdj+l0KNRBcWPqeZjzZx0zTOQhnkERKPgMIYI3MHhKKaxF0unDffVJocxWQXaivBUfmAfrdDZY0Kc5ZJRrDKSTgT3wCwyO22Z4YF8gttVpavZL+d85gSW4fb91JU5ZkuW4fgqX0XSoHPjZTutG4WRLLocwDN075v1pBpd2P8SkkeWaa7Wwg/02oAdHAKn2fJQiGol53i6dB6B+d5xHhmaM/ShTMykrRwirMrRdNTGWJ5jk2z4YTSZEUDFAzUSiEQKacgtGiSQGLF2GNUoxWjG3WBCoHWlff0+0lLZFrbCtvLUS3fVqsV38hSSrIel9re6OHq66EKGHrmT4QwH0LCOcx7bwLDL7pC10F1HHVN3hHo2LUd2q7FzZs3ETxLtVddhxAC6qZG160QAutp2rZD23bo2gZdt8J63cmVczg4OEBd12jbDk1Tz+Ag6HqGX/7ir9zJiR09UiYTeOeQpeGzo9RLQlutQCInM2NExPKtPOY8btOc9mOLa5vOGhUDIcQQAMZxYOKHLHz7fpYFkIX02uWuWABVVSvGTw2a+SFkWTIz4edSAOSl0VHCszPzUcqTEbKZ9eYGOEovZuRljBIwU4pwC0Kz8S/XZv4tsePoM3uBoLauhbHVh6CSBnWKLpgJb0RcVRV2+11hAqeClCSTGZq7mZjLMXppU05r3js73jkIfY6ZbcUyeKRT25CATavb/AyToIDkhLLcs1CpKlA9Gpu2Q0qpJP8EZX+GQMLNSBiGXt2LOQ9bV/ttTA9uPSDtb/NOiwxLE/KT0n0hkz0o4SlIGSaZykHNVEKYOzqb9eDMrVwwvFdkCgvaJOOZP26ujL7vPcZpKmE5KkhaUl69BYwoqlChqpjXQsCZ1ts4DqgqAsh1XRXra9Wt0HYtQghYdR28Dc4mUECqRODOmkIkob9e4EApEIFjyq9TqEEmqi2GXTbJy+8ZMahPvYllgFl5tbrtLu+hjEASJH8bEfB7M7FS4pORr9YI+IUZVilTiwhyBTsPzUxeu0wocpMpoU3zZ8XxLe9+eSjLck1iSQueLxMQRjTTNMG5wFOMZf7C6hlAZjfco7Z2Zc5hnNg8ou97ErcKliAE2n7sddNETkyTF4JpeZEAOUaLEBiuEJQbMCeY8NQYqPAFcg+CrAbLt6gb1oh75yjoJVChc/eMvsztiRKo5mObNrcfu4oQE2i82WxklXDcKTEEaHue0uUuU1EAoNGU7Zv3HnVDRrPXo4qlluOz79sYvSzgYdgLi1LymRiZbuLlOZjyMRo2KzAhI8J6+xn2kDAOdDmSTqwyi8lO77GEr74fJFREn94RHRzGAf1+L6njWc8r37lSoUeMVqFHP4XXzMRWThmUImimE8SUQQxjzJ8FQgzDQGR1wbzFD5Z0tW4/SZYEN24GQEzEk0BoDtmCWhTBuumOIw8DsWtQplxKifkMC7Tee5XPShvapnJTmMzjrFGkJWBIwxQrx1yohUZwJrRMM2l9GZOltAdXVkSiqjbViZs2TSmx9XJVF3+Tgkw19QLwbC0Y/uTroyUrSfAMAoywBEFLdIVmut3TifHjor2zE0ax3HPShoSp9na33ZUoEWSlbLfbEnaymDOFzZwZWSuTbimgbPzOOQw98y/snnFkS3DvPYL6DhhmYvc3IeDkEi3Xoa5ZEt00TG7r+x7ewrPa106m+DiOcpG4z0GWhY3bOTWhERBoyT22ntPEPHsYsKrwI90BKkOI6flvzqtr5wrAKNo2gWlXTKmsbUyJ/X1N1242a+QcEWr6v9M0IThmU437Hl6JJ1Vdo6oDgIRoDQRzQgbDcSblTMPaZQOZmQDI2ZVkmSA/id+PmOLITD8POG8m4iwwuFBkNDIRiYrvWUuuRMHA1GdGLrIDj8iqFPPka8FXJbxihM978YgsG3tKcw65TcRla1QzE3yOrMmuvEcdKvbXSxnTQI0Y4OGzB3guCSrvUTn2CRz2OzhFGyY1sTBisDXKmUQWPAGs/X7P3ACFZ0so1NqnifAmncySckTT0kR3zmopiH94aZtxGoHgMaWEcaFl97sdgg8Y+wl1aBAQ0FQNQqhJoN4B3iEra5GuQQJhkYCUHdceAc6xeGsce1aWZWIn4zCW9HEfPFz2SBPDuR6qO4dD7QOQEvIUWUkIgqkezP7zcNjt94hJXaHkloYQsN/t4eTzTxJgZhqPg1JkF6dGmcVFX5puQqPMQK+I1BTnJKqYRjQN/zaQtW0ppFNK6PsBfT+QlrNwHkVtKEDNpZoVhv1p5NcPE2LMqOsGIbA3g+0T7xHhfaZbpqKt8Nv/5e/cmVTFBbUx2m4v2NFjEWesqgq7/V6ZRrM2oA82h0m8OphkA0JEnBZWMGbidz26ln3W7ftJyUF8Bijfii9ExprBPXYq9d4XRN/RRrrEgJCfZ8U7HMOcsglYwgSvnMnFXt+1e2QJHfsxLUOryMBC+ZwAurYlyLbw4aq6XhTnUGtZ6NKsmRgnhMCCIHuGrR+WGk7r5IWI2/iMqO07tHTYm800TNu2Bd9glyIAqvSy73jv0a069PseG/Xp71ZMQrFnrVdrrk2a26eHqqYwdA61mCIJA/Fl7joIouZ5AACZWwsNL4vT+sjRwiE90erUWlB7cC0tIqNnBO/RjwNSyljVLVzF/H/I9PdebaxUks55kAeCMCebU7T+Bo4WGEiZ8I4x+nEYGduvaCFwGsQybN9sHfbKMA1VRVo2flBvg5zZeTgnAuxVXZfj5ugGOEBRoiwhFmPE2dkpuq7FNOlcRO+pAEUj3uovYkb43Oc/d4eEKVPCOQRfqysMB1+FgGkcsepW3FChvio/JpBm5bNCRmFMrBNrvRpKGBPZQgwDs8BMOy1NHyNAM5msNj1ZkY6vi18IKKQGEDiSeU5enJmVmyCzXMBflruRCwZBfIMbN//YmAGl1ZoVYzH2YukI4TUmFYKbMuO3IdSoFn3ivec4h5HdUp0sHki4Z3B8XdeVBBZjhqjYvgO1uQnhaD7nxGQogkEy75Wma9q/UbaYEeh6TWaeFKN2nlmGXC9FdpSkM4wD0XdbR62HhT5tbWwujUKgTia8X/TSJzNa4dDsplVqMGmm7qSkmromiDtNE7L2xlvUBcyxiKLP2nv06iCU5dJVymqD7atMZ9IYrb68EPZY9P8LcqdMyBqwZwKZeMdcJBMCD50tdGQNaYolKkuqH7iXiefokce5hlF0j+IykZmDWsK1bUtLYXHoKXEc+v9OCs/7gPBLv/xLd8rEtXlt08JLmzRNQ7NUEnWcxvIA+7xzDo02IaiRwcwgFAq2Wf6KxcDvS+rq3/Z+pdgpGY/aNKaIHFUteCX/vKqIbqaSYUapWiutks/nhlE7A0mZatSeVrZKDbS8ssJY3nuZjDNC7CRQQsXwZoY6AS02K4sZKp0fnwrYJKEiANI5D19ZgwW5E/LVkxKbskBOEvn8fSeBBoF5kKSXgipXWvRIrHXiiv3biZmT/G8j8qLlZHaTCSybkoI2KW4fJOiWDBnEcFkpwDy1CFZGReRaGsnGZGtcqeoTFu1Qjvs4zf57sc5M4TgK9UYYzaC+9cFKYjU/Y2BL2S3aXn4+94v0T8HEMUT5y1kWabmn5su1ICCYc8IUR0yjkrRUiFQF9rEIoeKBHDmj69YIVUC1bMihLs1mleYFyGx0ZPSaM9fSxpoX/GR06H2Ab5pax2FbPT7zg8d+AhIwDWNBXadpKr7PMDJZwDRA1oOLdNcDjWChZgX0nzOc47+52TqGiVABpikBmccIj8OEFDO3lN0sGIYq1MzKMEhKpsQqO8hvzTkufrgoAArDcdGIttogqopovTGRV4lobWWioBDyYs6YIvyC6fMCIW+aBnXTIgQeJw1QOpu2SGYxJIYCnXfU/JZ+rLCegXPOAFKveoPFpi7rGrxXSzPl/VshlI1rr155Nv5hZFFRjKxEc5756+aqVHJDsho+JH3HOaYjO2lxY8ylxk8pYbffA5Z6HDyCZ7jJeTYfGccBlF/SvDLBs0qVLQ8jC1+BqveYfwLEOCEjwQeHuqkwxrH0Amga7psxNDLQti0qO2/OMcW3UnJP3/dMhtF6ZCm8Rh1793u2E08CeiGQMwSPuqEr4ZjXRIynYqTIy7Uw4e28Z3Na5wFHmpsiIwLjNOpUXuIZxIsmxDQhBCopIBWeMmU1TdPcWwPEUbwnj1t775gmhF/94q/eASiBhkEZXCqrrUKFJB/amNsb0m7lnEJ5Y5xDR87qwGWiVqFi5VtmPjKkdSgcrPMLY8VVVSPYiTUgOOec5QCAi2xJFHY2n/KcCxFK8FAqE+U0DWDEY6YTNatZKHbIAuP51JbS1gvzmXNTuabMwlDzKKq8MA+zAadxLhaiwLH4MdNjsyyNKUkTerZklgznpAXimV/PtVtYSCDRGOiUFig4iYHrNY48TNEvuhJ71WmnPLfzwqJP3TAMxY3IKSsN1ywoWoVpYt6CrTMz+Ja+7oygZ9WvQ67KMA7sEVcxDXUYByQ1y4BpT0szlntgDVWblunBzvGZXHu6FCklVMEjLkKLEJMa46YFpmTztd9GA7amhkGY5nVw5bDZnDO6rsG+3yEJE7P7G394r1CvwoajmogarTjHOVIxci3jqIYdmXovBFrNfoFjLS/viVm5SxqeczJBH4KDZ992tgX2V8JJlwjbB1SemmIcRyATXa18ECrtUFldv50ZJqaNAn644JnHRKXZOgj6niHPRgzTOEtcTkgmco4zaKIuP1Hts4zgvRqB1Na8Q+GMGBnOcMoYM6bgIikEZIS0OOiB6ojpwimxQab93a145nvGjG/EGNWERRu16JcWY8b2YkdudlC5K01D75UsVXILbM4C6UYCsZNOpnFOISKraOzJNFlaahQ45uTv2Y8T9mIprUmmYdu2gObulPLrVHIKgVUA5F+SyMZFWHRSBKSSiT3Krw6aF7Ucv89z6MlY0zTS1F11Zc5O2AetCAGoek6jrsJG2F5WmdHYOIxoa4ajubZkZIg5stzXoFLrrOQxK7pZrVaoGzJ4pa7E+/2+rOVyfauqQrAjvh2VRrkcm5+wSMsBjvMPsviKi+WZ/RkT+Y+QGWnKS+h4x0iGWVFR7saSyW28znxZOPSiCYBWmXMO4de++Kt3gqry7MU0UYN6JesAKpRQhlUVGB+FgWYytnNipV5SYQjNn0AClx/k4FVfzXu3TSvNzgkbEzptNInLNNv8PK6phw8OlXxiM7fsO9E2XP4fTV/+0zYwxkgrRAKOY+DdnYGBwjBokic0Ol7Z/mY82jQFidzG7pV0A2OKnFFVDLuYBHYOGEeirzkzdTmpNTkBMGrgLN8e4Ek1TkLFkHcTnHkBRtqVRSz+ijaHwDuLS5uva+tvWXBVXSHo2OxKtOGsXkAptEnrU1VVSfxqmgZJz7YWac7zO0ENUFIJ80mo6r2maZCVgp3lDlEQzQVGoRRHaWWk8cdpwkrrwuWXyNA6JlkRfInWkgN96RjnQqClmxOF7NeqCTCLJqgd/DAwxh8CATaAc/JK1bYxjMMIINP6E5DZdS1pT88xHnCqGMyy3rIsVifes2fYT05ALN2HqeSqisIwCHtxHvAxCoUOQjul7czH8d5jGOYzxmqhhNRy9NGrukbTtGXRxnEsWiQqUQHlyKgZ/cyJGxTU4CAtYuNGwPab2lLSz8+oeVAUoK4pYFKib+wFoEARCANnzF+IyrBijz6Z6aUWgYDgaIjvoqVVCAT3LnZbTGq97dQVx4RFv98jLTPlSoUix+5cxtDv0XVtiWasVmsR0owPkBh0HJbG7c0cNM2VeTZ93dQwTW3rZ0QHMZshzWZZFG0jgnTyMbPqw6dpKpVgOSaMw0BBxgPjyn4FYwzRSxXYrdZL4+e06EjkWHdeq499pbqCuq5sFOi6FaqqLuO1Gohs5mqMaJsGTnPzjqi1d1xjwOHatWusPxDmQWaRe6YncazEoIKwFFsvAOj3LPLZbXcAgK5jH4Hz83NART1RuQ4npycAIFqek6e8D3SvNAazgqvKImccS7/vsd/tyr/tCiEgiPH3+x7jMKKuWzgX2C9CR22Tryh8e7VSd0L8kxQg5TwFTvi1X/vVOwAPLHSYN7RRU4O+HyjZi/YHVaZjeIqFPBZLXfjRIl7npVUczY5s4T7L7Ze/MkU2LqQtY9JOhx4ogQLIxf8maMOOMMMwKPnDo+06WJfdnIGUDEGnJGQsnwxoiL6Ny8lkzGB5aVWRGE3opZRogjmF85zT6a6KqSoc1TbMic7RLBnNRbnu1BbMeKMgoh89KX4P4lvMoBQDt21b1jHIPE3S4HVNXCSZFtc1qgbcSbNXcmOi8uO9UnAPDg6KyTqMQzGBicSzjqNW+nQITHKKSj0eBlbHVWrFZuM1reSFV5hAvn//fvHfLQTG8BMlbC5uHdFn50iDwXtUdUPrwvxxCXDe204RCiVpK04sQXUKU9N8pntV1zV2u11RAFnIvQO7ClFIaTyyuEj6rpy+s91tUddsUFvVFcaRGMswjEUAUZHUmEaue6vzEceR7pqTe7XdbtEJnG3b1krkOD+5AozzU5C0bYP9njTqZU0EHdJpimGaCKS6hUUAsyqN8WnazaY2mYU/jVIkvRICbEGQKfVSSnM3HmN8O220ML364avBAInfgD7+bUwYPDXIJHORGoG+KTfI6gtIdGYxcKMVMpLZDYUC+56nzLYtkdlsTSkC+5LVdUPBI+FnFpDVLhiTcbxcl9VqVQRYtKYa8hVJmEzYYSTBtN0eGVaRlktRRqkLKE0XOA+newURNkR8NvYoszirYo7uCjfbsJac1WDDYs36nlPsfxwYos2yKmx9grCeSVlrXqDqMBBxrpsGXdcx1XbiOGwsyzl0XUchCWC92eD69evMaRANmcXgJKxXK7ac6vseVVWhbRpq7kg3Akaf2RQOy1vN0uPeKzFGYKwJJB/oJozjiMPDQ9EusQXuB3Mpgrr/5kV0JqlOoddpSG3T0qLJFCZZQsJMc3elxr9gJRYpkltcaiusUYh3gMvo2q40NE0KHSOzfiYn/rZoCPeY4LQ3ZofqTSQ4zNrIOSP8yq/88h2TRJRU0noLgCwEapVsqbCY++AZoUDxyWzAVmZ1Fd/L7JTjgOB5pLGlYjo3o5x8Jplk7AfGOgWwXHpfRUJ1zdruUaFFJJo8gNW/8/MyUGgeagOsAwoBJkYUkurh5/nLz41Mp0z6CVUoIBsfpnPWhJwTSBJK64VxgGvUqYIuyIRzjpZI3dTohwFtxwq1tm5Kp59aKLIR0DAMhdirMo+5Z36zaC7ZtIpPa70hwWEaDMv9Un3FqlshxsiiI3ttvSoWjQFQWW3TqlABSgYyhjbhZJZLXgjkcRyL355UimzIOpULm0ZQ6wtHSEzgCn4OEZqwCiEwn93osFg5FKz8vtKsF0xnDGy07UwjKhqVxcgG2JImFAFRgo9fZE1WimSZ8M6ZfGLPopt8uU7F2nFVBuaC7jMwdzUG6KpxTwjWWgalVx1NCLSSknz6cWQfPkvRJT3OWj+88uVX7gyqrLIyP2N+r0MlpkVjiEnZXJVioMM40OcOAYO6tlqmXhboxy68lMYZ9LWCLAjnrfqLmpbhpFDMXLNC+F26FU1TYxx0/HMmKm5AEIWvobxMiIEsGilzuJ+Sb7DZrDEOvQgjMCkl8ByALPAumE8pwgkqeez3e5mJBuCRuZznEUusZ6CpP00TajUI7cXApgVqtS+rQoX9bkfCFvEvMwuDMsW8ddHRwRFJVonTCcd932NSl1UL1RmmQH+YROC8Q13VJaNvGIZZWKjUlv4yQ432HYYlyZRB9/My9xmb5wlLlTCTQtzSQCjuU8bQ94pRc13HkcJiZhZacD6EUmiFRUZbjCwbNoaKFj6T5neYcwsocJi551VqPqq2w+gai/LmoHJcLLAes+xiZEZl1DxNyNQV+/TRjeF9jWlJExzzOI5Yr9cLi7RF3zN6MI5jofMooLeq6xKJCQqN01Ka81K4J3N/waYmwGqCaRwnhJdefulOXdv59iTYlGJJeDFpBihrr2lRVzwMIsvsdeqKQwPfQBYgpanEyJ2IgT4i0VzvBSblBGfaSMpxGunvWg87mixi2JKaqnBXpuNNATGj+JC23G4vsO/3WK1WaFvGZKHccCcJPQ49vBfoIkIL6kNgEtOI1ivdFACGfU+TyntAFkN2QsFDXTAQLjrgq4B+GBjvh/roy0zMmRmJdr+sWPlkDSosW094hGmd4pNbia2dZ6gabYc5ByEvTNCYZB0oJFepPsOrBDUqp4BZc7pXUGpwbSFfZc+J4A3EMwGVJY37YYBfhIiDzFwTqG3boVu1yAp1AXRdjKmdY7OSGCMaFaEM6lXvF6G8rH2yqsooV4jrwoIXY5ZBh5BU+qyXm9DojAfSExnQkqPMyoiyrKJcpktWglkBlvVo9KjYPOmOQtI5VxKCyncTE5GCD8gx4fDgoDxnnEbAOUQrkZeF4oNn7wxZ6U79FCEL15XsyUw6JNNw8rUW2i20AU1lJm2QcQ3oUuGCjsWalGlmZlPOPOrJXAUqdGZ8pTSnOoL8XqwDJyFB85b3CTI3q6pCJd84S1s7oeVM4FFkQHnJ1rK4UsWV8zwJhn4RtYxTjBmgr5lzRt/vCyCVYiwINTeE96wbnubr1cab0RCiqFXgWKIdPS7fDXJpbMMdFqXHJhxFhEGhr6ZpgAw0bcPQpzGumoya77/f70tn2qCwq0U+8sIEtr+dNOOgo7Irzd2EDU1FrgsTrLhVOWe0HVO67XDHUBPFrxRqg9ZlUr269x6tcCIKMGr65djgmFxEDcdmkty7oO7FXJtKDVDrmnUaybS7GDsvXBfIioqJ1kDCopQ5J7SdiqgyXzcmtcw9m3S16Etvn7V5NU1TfOpQqYjHimEWOBlkJdjrWYlrpBl23ml0dDnkSmcJoZ3Q/kkH01Q1IyHR0oYXeImT5QzjJVmwDpZPICzmpZdfuuOU767xccMd46eNzIlKRS30o5zIgMwSSlyXCQbO8X0jGK/wBgDkLIHi1ITAJJK+l1Vua76c80zaICEp1tzw/G8Hy6zTAkewIWOcEAJxBBQ/0Zd6chNeheh0OSXXBDVISApHWm89CEBJCo8UE1JI7zDyYBFOkS6LMbZttvcLaS8iDLJmUmKiztD3dvpfAUKhU2+nRQNOExLTwo+1+/mFyc/9mBk/xojVekVT15qROvY9dGa5SXhOkUU8Wdaflzbzjoh7CEzgygq31VaOOk3UMBaK1bicAV4m7ESQcZoQE5mxrmoK6Wkk3TjiR6nQnmL7EiCVhIlZeulSlpqHtwQbmeOTCpNMIJuyqiu2qB6VkOQU3w9WV6+sxqh23knWkVkB46LlugnNJGA2aW7xSjhxHEZUNRXTer3GOIxomhqd6mV2292lPgCWLNbLPTdrcPm8aeS6eYWeuf7EkuwKv/Qrv3inrTmgvCjxA7cfXj4bNbIALMtOU3fWqF7fWQ06APpTowZwWZvMYMjMdwI7BMCwrnjuTReUjdU2HOd+t8VqtQYsHm0CxFKFhcpjcdYZFIM3Zh9FmHAMQXJDmW8wTRPalhVrQb6qMU8S0k9BM5vPEONx7jqzzs+ouo0t6gxCQ1idhB1kco6Wn63XR1kKkKAy5rH1NOLz6ugyW1x0B4x4rfmjEf44MMtxVMgPZQ1opXil9CYh6cMwoGs7no0nDQpVek3ThFrPngTkNdZe3TrzWntyuQ2teuNbIk/btuy74Dy22y1WqxWyZStax2VHF40mOqMN3lE4Nouy6iD3xPaUQK+q8STIIGsqLE40Tpl76xx71lWhwn6/R6MM0AxZqLYfcqnMOqjrGqvVilaUEmbM0guBfnlWcw1nxWuRLb2GkY1oSOsJ24tzXGy3yCD42HUdurbFfuyRIjv0mtA2/kopsU+BJzY2DARRnXx+pssLk3nlS6/cmdTtZIrMUzdtVylm6wRIDOMIH3hiqpWHBssGygByvpTEs1qtirkJsDWXaROoweCsAUgQzvmSKBKUwQYQybe4N0NvZMos5JSTY/JR2zToByK2Wab+LNgY5yXYaGNzFBbyldu2QUwkYBIcOxQ5mkYUFhbLVx6hc9T0TCQhw0VZLlUghpJiQi0f3ghmyXT73R5+kU3mxeSmtZfCJxnI56jZ27YtkYa6rrHdbREU861qNpvM5gsq76DtGI5yCus5OHQtu8kkZbalSOarLZwKFAVggJdTjkLf9xinCXVVYZymEhWAhHqoKlmM1PJezSa7jslgw9ADyMxZ0MVIDDGfqlJ5c+kgLD9cRUxm+XivvBM1AUnWEWoRkjWBvPw7L9D23W6H/W6PpmXnHV/849liNGFr7oIJ/tqOKtf9c+acYsEqZqDcrAXnmP+RJbCHaULTtpgic1CatsXD01PEiZEo8pUDoO+lDK8+fJO1ZVt0N+a8uFdVqBC++PIX7ySlaAK819HREeISLQWRc7MGTDNYvzcYii3whhKeoBIZg34Rw2UCBI1xJbEmy4t3gFcDByiV1yZoC8mFpx/qIJ8qyUVQyehUjpLyTNsE0LY6rccSdXSQQVbM2nCLSXHeoAy0cRwLDuBUPWeMB8VQKXgItqWSPWf5Bkw+sssJ1GxbMl5Sua0TYOfkZh0fXwPlqb4rwMap/iEp9j2VrEKZ+MIAyHRA13bwcgms40xVURgEgYZO61n2Vvtnew4JHGMcKyQxYkaaT68ZZGWtFbrMOaNlg0dMMrNN+zkrAlocUdY0jcx8NqQokrVYXIGVa87Mf3OTKLxz+ff8Xpb5bfMxenVKjrI5BrXJtjWK01x8Vi1qO2ytjV4sqcd4Jtt+Z1oWu90OtSIU9hmzDHzw6PseXddhVL1JCDqRyrMQyPCbw4PDIhhtjG6REzCO7K/XNg2CQuMWEakMq8oZ4Rd/+RfvBC1IpWOgB2VvwXHglcIaxtROm2D/NmlnpmWtdtBO/jullExWyRcodJdUFmqtq1YdmRNCQNuWwFnKSYg7tXdVWnHzhnRLyLy2INwk9qOzCEFdM7WV/mklJJ9JIbR2qMWblsBklKCDohJQaItuywziODej6XQpgLrihrdNU7SrrcOkzK1O59qbxoXaZgXncX5+Vk7VdYaUG4CEWdBe1TBR5h2lPTV8kClu7oaZv5aAtepWcAu03Qe6al5YgTGJF8iZUuLhF55ty6aRCTRZFtZmvYbznp1kbGzZujlTu/LexHIgxooxwsEUS4O24bFt3ntsNmuEUGG/36FteU6j7XEVKhweHAJqkU6hx72l4GUmX1bUydbLW/JP6bzjcbHdUnEonbfW4RXmGphpbbRR13U5vRiqtXACSE1ArDoKQYvn05pmQ1TjKVMeVDTMwrPvePXvPzg4wKQy6Fm5zUJ76JnNl0puAPerPEPKKLz8pZfu1IrdVmrJNPSKkS98SCNOIzQj+KTEjcpaKsvsqlUWaaangVymXfLCtHLyF5tyX4a1UiLQ5TwLC1Bq+CnxcwbWayabeM8UUwOUnPN48OA+xnH26Sy0aH6TUweTlLJCmPxeCAFxYr2BCbZKjUYY3ltobzFDVAFHU7PnoBGHE0BmG0KgjKZ927YYhdRO04SupcSvQlVqsTNmY8EYzgvxzjnj+NpxQZX7gZluU5wFipNAGpQS7B3N9yx0ehhnf9QYxPzOS/FppV5PMqeDrDVjoiBBU5lwiWovrugEBSqnYgwX5VqO04i2o5Z3dpQz2LXYq7sMNdkOk4T3OAwFlbd6/WlKJWGHjE8BaThF0d5SPl3HDEFvsfVpoquipDFzF1lbQG09qktSzoqGBcbnDQA1gZsllGoVdG0vtgjq+rvv2QvBmH5S6+6DgwO6aIso1mq1KsKgVWpvFNBYN3OHXydX6+DgQGvmmcauVN5sSiGzcCe88vJLd1JMTCIYmP+dFXYoHxYqaFp63++LKWnmYFUT9TepVS2SRowBskykrHp/u1+W5EyZ6aBNzW6xKSedBCoLQ5lh48AFTaWKil1OVDlAv2zYY9V12BysARC/WCstU0YCmSvQFIKaP+z3e+z3e1QVe5In5ZjT6lCYRe3IgswnEhpLlGNkc4hhHOA8zbCYGQaEc9j30gxqvhhjxMHmANMitbNaFIZ4EYFtXljU5AeZxvv9vqSZGqNCLgiUXWZChvPh900IVgutaPHqeKlfASMS9h0sXCn7nRXOrXTAZauTivf9nqh6zSSefmT40HlqeAcKolHtxKrKcugJYFExkPymcuAG6WgYmPwyKonMqysP0fG5SMxpXW3cDsCqaTENI2rhL5ZjAEeadAopm6av7Ew9z4MtCk3L8quUoBMTy9GHfsDh4SGy0P4psox6UranCQmnikCvykcqO62RlKIJ22EYsOpYLpykkEfVWFSWx6B9qgJzTrKEra+r0lTXOYfw8isv3YnTfEqoIYveij8sPqtBVBVDQLXaHHvvmRZqzJvmgw3HcbwkAYOysgBmw0UVMHiLW8u8ryrWZ9NnpPsR44SqboBMrZ9SRCMwZFJb4pQiUfDigyltc+CRSFEug2QYGUPoOPS3dwFt18I5MkStYg5jACcgyxaUzMiQYxRqPcUJYeHumOtSWfhtpLSHfOx9vy9aPQpvaetG1pKQWJn8jRJujAFijNhsNqhrHpNt44Rp7hBwfHSEu/fuFVQ7SGAbY3uZg7aPjNNTE5s1wHAvxzAtQKlatQgxEtSLiqlbxpmv5uPKd/s91qs1XFAiCuaKu261KmNyjkg9n8Vc9JgS+n6PvECxQxWU8WeHrbJMuh8GrDcbWXo8/AMg1kGGo3sxWp698hmc3N2oMPQkc79ddOuZ4pyXYQI1KZzszLyXO2Y8YVaF/btS1x8DT50yJy+2FxTsan/WNm0RdtGiQ0rdNT8/qbU6jBYtPVg5LF55Hb0wFV+Rz8LLL710p+0o5bM0fJYZP02svc4583RRvb6UeJAEsXTEoKozQ6K93ARbzGQJDQI9vHMAHIJ35RSemIjAxxgxKnxhGsyILSXFkr1ixuFyLf4yg2y9XgMWg18k0FCIzCG+JO0OASJZ4JK5D0kIac65+F0WThqtoYfCYM4BTU2CSQbWZJVlShg6tbdKio+bcJ0mPpOVemS4WqejTJGnwHLenIvNIarqrtaRzm1DU9gsgrZt5/cHtks37R8tQw6uJIx4hT9NIKTI0tIgVDub0IRDHeivJ9GFl8ZxilL0KrhxsnSC+hZUoQJSgvdBArZCVTXoJQxXK4KCTPziwZBZTD/pdJ+uk3sqQC+WFmLU3kyfVcKL9tWDpx/ZuuVMK7TtOhbBSBA7WQKjQroWrgNQtPTQzx2KjOZHAcBOOR5QLowJXRMW9plsxUSi4aZmyG/S8erGL7bnUa6lCSK7BxRWHIcRwbMJh3ee6b2Oc3YZ8OPI1sCtOpoYs5hUNcCq73vs+z2ikkmS+feRSLExXM4ZTdOibVlrbgtr75sEA9glBQ4FXbfNMsJqGoZ6aplaVWAO/36/B+Q7UziRGCxBwZhTe4cs6e6MWC3BQn5RNqZeEDRPhGFIbxZgHL8PQVEHaiIzK9kGSifVRK5PP7CmO+VU3CP7nWSKkrBT6YPnVFsdY8R+38MwAagG3Pw/26skbMWrZHm/ZxgqyTeMMWK94bHQ02jNPxxaMcw0UrOVPc8Zw8iDJpMOt7DQVVqEOL0staqusO/7ksrtFsk6xjSki4bWzqLrkXMMf1V26k3OGORbuyvJPpWOpibNMKvPgUBpVKPMRuHBsDgc055n2ZVZSiDImm2ahq281dUIGmtUZpyZ+qMQcz5nzthr1VfBLSIP3vvC8LYHpCt22bG1sSvGiFbHcGMRKqT1yft6C6PL2qDVNEctspranp+fI2eCryao48TMW681Da+88qU7MapiSprHfmyBzaR38mksvm5+Z6W69aqqilaYRpYOeqvmEmhGKczUSh73AwJsOWEcWXjAjDvQvK9YCRVlPpsQkMeJaZrQtA1NbPV9K2Zpsmw1Lg6bFmTmFAj0cKWIh0xjflCoKroWmjMcy4eDzN5ooBcczyrTMWDsEy+0WSWyUemXlYo/6rrGqluhH3rEiUc9m0bheDPiyJz0qO/tJFxjjFh1Hc7Pz4t2SImWRCXfPsqEt99OwJ8T4u39HJ8PoUJdW6oow23ssmxnGTpERSOckl6SOrvUOquNMXqFQzNPtU2J/ROzcJzWDnlQ9yATQEjcr71CrtOiEYpXp1nAsboTIJ0pPdtoC86hbeeyWaNZc8WmGDHJcnMwMHkOyTkJdeeYnwEA+4EtuGzc5mJYMQ/p6bIFCzGwMaZ3Hm3HuXJNZTkq599wGQBYrQhST6rpNywApgg1LioGV6IExrNd15X2YMdHxyxyAsOoAKRILLPSI/zqr6oe37lyFLZJo81mg3Gc+7YN6rbrlARg/qgDe+5xAUgslZliGQg1EdUYWVGFRakp1BnUOfo5fU8knYCNlWhSO0/qZpNyJlEpYYa9ymjCBDUrcBJebM/FM92RidpvDjZEeFXEMJWWWDStg6oLU6aAytA59MqRTpFgHYnFGiSCLoIYy4gKYBjQmNaYpjcEXnkFTv7hSlGKVbemBaO2XACJGxKIqxW7HWe5DHVDHz8vykxDZW2pUAgzS5NWpSbAs9OrmZrm50ZhMKpg67qOpq2OpOqHAeM0oGnkdiiCU8lqpBAj0zrVLcQYUXmi9HRlKFw4TzYbNaSdgnsGU2nmMhmJ4yODmAuRBfpmRRZGVT6aoqnsiGtjArl9puFN4FDgMwOxqgj8DUplNgzF6Nfos21bOOVgxCkyca1UGdI1m+R+GNY0Cv+ytXJwODw8BNT9igqKvJZkuTkBgcjWVFa5LCr0uXbtGqqKrt16vVYBGPfGelaMwt68TSBnS7KhJG/aBienJ0h57sYTdWTV0A/oB+YKY1FxNKlvWwgeg9Bm02BBHV+w6D2XElH8oOKNICDIGMQtwn5VCDTtdODCdrelH7M4FjpUbEdEIIgNFJ21kJrYEryq2TgxiVA5XwJD3hqRGJimhB5bE6f2VRlWAOMKEVULZDXKV6a2Itc5NQVtGvrXyGy3VKu223mH9YblmU5VWFVVKXToUdcNpbiI1NbWvs8DNjlfSBPkNLtqRrBGTFmu0aiGF2aqJrkBEIMEtQCDzFSbY9PwCGaYpac18rJApnFiqLC4VtRSNibn5rMIowBBr/PgC05g1oxcj1oA3qSWadM0KRRLd8R6J56fnxfBb8BfpaIhQHn+EtBPPPlkyeEfxoEZh4qj18qAtBZbBoJCeFOMtNaGYSg++fG1YwAo3X0gkBUq3jFsyCyJJIuh73u8/c7bVHRODTtlvUVLilu44llr8vDhQ9y9excXFxd488038eDBA3jvsduzvDvLzR2GoeQQ1HVNjU/0vEarDXbqi+YUqoN8zFAxTk3mntFjYxZrIhHVSoldTXgSijGTl7YhgZEQc6bv6UptusJ+0l6QZp3UZsuYihKaYEnORIirBT5AW4SIc1Td9H7H3GuiuGzIMU0RUcdMW6ZeXoRTNEiugRofODgMA/3xKM3hPU8ESqoxyEzhhzO/yhPBJwEzycbL7M5KtgkVK7X6fqBktoSRRIKtdHT0er1GjMyeJJYCpspKk1Awcd+c8BBIU9m8QqjQdSs0TYPT01MEuQU2l65titbyi4wzY8ymYW7DxfZi9omjkozKs/S9aeLhFo7VZVnaMUuzVdLaVeAc1us1ssZvgttyLbbbLbIUR9s0JYQFMAXYLCybfwZbbxdBImGzWq9x8vBhaZG96jpMiq1HdXqOAkwhfMXcyL1KaQlE0zIxCyTJlJ8mamVTnNlwDbmo9vm6rnFweFDoJMoycAKBy/rIOoZwAxOADg5N22Cz3mhf6DoalpASm9qmnLDbbQkev/TSS3dMCvT9HtF8iNWK4EHmBiaZG6P1h1eIhIRF1HXQCSzU4DrpxDvs+34uPgHDdba4Z2dnqOu61AkgM9xiaYaQpsw56YBLlrKW6jkRTxADmeCJJQGJi21aJju+5oVA1y1DPnVDfzWWvnxMQ6104olTAhIjFhN6JeRkuR11zcYL2+2WjSRLeI/r0ysZJS+AI2IgRIANR/De4/TkBE3FWn4KP3VYcRnjyNBkPww0+cZRh4+QIGJkEoutQSU02xDwuiYRYmEmGhEaw1NYsZBpmtRCuq4IGGbG16FkEOfYHNM5h7pS+Cxx78aB4UDneKLrKBPefrKBpvLVnXPY7rZYr9cEKNVVZ7vlaz4wT6AVeMzyXQrmKlTwQa6TBJu5AVGNNuyzoa6QQfO46TpkWUGT1dirF6Mpn7OzsxK2i/LDzbLKOePo6AhBYTT7XpIVaAy6jGp4RTN6tdwy3kpq5xYU2ZoWWME0Eng0XjThsO8ZsdnvdGBqZki439Mib1Rg1HWtslhZ9Re++MUv3gGA/X6nVtXqmLrM3xeD28OSkkDM9AcAWB65cr2dC4CnD+4FFNbK4Esplow6FsoQE+g6Lq73dB0sPmz18zGy6MVxxYneR+IK3pNB/SL9OOr89VCO0eKxtM4DCYnZgMjU7gIYq0CAzKsUFFnRh8xnZqHEdd2gqppLWAQlO+u+s8xup7RVRg0oBCb5j6MA1aomSty2bdE83uuMQE+8AyAzxmSHhNINqGui0QCUBGPA69ydlwTvUAWeQRfVjNKYHQKQxnFE0zKHYr1ecS907lrd1Li4uCCxDQTivGf0gT58wvnZOeqaQGuKWWnSEV3blHZQ00gtlR0bqDBHnwyx3+1weHRUBFJMzLmo1M6aKbtMsfWB7s+kM+BZ8krAGfJ5aQkp01KKwldMMHLOsYc/aIJHMZkxtwlM0+S8jyI86ttnqL0TPgO5saOSaowWY4xYr62L8tyz0csqiYo2tE1bokxR7mLOBixTKJggqYQ/dF0HHzwODw/hnMPR0RGausHR8RGalp2MnXpqQFhVqAJ8LDFKmrGjtHpO7IBiZg43mfHrnAkYJfkaSUBMXZJ6AmJm66akDj11RbTbm188Tdhud/TbJYnHRV73JP+Ncd269F+PakMEofey5hXn5dHak8pOmUXnMQ466mnRQixaUYbaYwH0qZxSe/f7fRmHodN9T4laVzyRtO9JXJTyRN5H+VPDMDADK9ENgtDtMldpICdcJcaIi4uLGdWdmEWWMnsLsCPSjL+YRjENkgXOZVWCZZnNdtlznTT8oMM4Kvnso0zhVnXhtN7mxKikAxmGkUdJGXAYlHIap4iDgwMM44D9bo+uY2MJAyHNQmrapliGzvP47cEyGA8O4NThOFQVVl1HX10JQQ8fPsTFxRYxRey2O1yozbWt7TSOBO2kOaPwGdOU9eKs+ywhnjLNdmdx8Ey68hLQQedDdF2HViFqGD8k9szre+aa2FqySSZdKvPljd6M3+z5tGx0NFc/j8P2abVmym6lLElISHddx7H3exwfH2OSW2HRmocPH+Ls7IzKRvQ2qow5pYjwa7/2a3dSAWYUN5WkSqq8swca4RRpJYOgaRnOSgKUkgCQQd1dYJJQKDTTO5ko4j2758DinUkI7zgB2ZUy2rbtSNhCxbuuQ6/WS0GgH9TPTwOlRpCZGlS1FSo7uYUaehLQCHNbtHjjOOLg4JCx0KyWSwnI8JgmoqTmEtiaAGCar/AA0xSj9aZXfwPz6aEUWX6PG2t+/ziwhr5uZr8xybT2pX88hRFfs1RWXwqYbJ+SNJVZG3l5OIPG6hRKnKIVtLC3Yk7My6Bw432nkovBtbe51DrWGwK09rs9E2dSogCRMPLKx7BnV6Fi6HKa0A8D4/Aysw1badu2dEiu6wb7fl8Q/rqqdbYAzyc0GrJ7VHWNw8NDDDorwtbFmDCEUCJCTiFEp14MbdPiYntBMFF9FCAGhmXnCZvJqrSLwqKMF+qaZwSYdQXxUbbcBvn16/W60KWXMDchsN1ukVLC4eFhWX973/batH/dUOjUav3tPHsX0N3ga97Jn7e89FqN+fb9nDgSVPpXNzRHK5mIBrKNai9lYJr5/3VdI/gKTdPCqb6cTTaomY6OjtG2RPGtSYNJ1Lqp0a46AhE65HG/3yHUNVbKuWezBmok6JncFEvOCGwIocnzPbX41n+GoFJ7MtSUMw+JODs7A2QVDAPNt1aJTlPxydYLxiKgVylK4Uv1nIBInapjgjFndiniBoKNE5KOto4J40TTmJqjw2a9UW9BCknT2lBse7WiljVGTokmvTMzdxE+MgHgZBZntZbOOWO33WGQudqoZVkWc0PCyivddK9jpcqc2LweECNVVY2orLtpJOP0wyBXieZ0jBFZNf+NwMdRjTr7vsekw1mRM9qWJ9asVmuZ+gzldqtVybBs6pq5JEqaqesaDx4+KIlBZDSua1ZJtCH2KSUepOED+n2PKUZ03Qr7vgdgIUoJbPV3gKxUL389eJWl65yJ3XantZ6jZ/v9XunqXKNKEZycwZwGLfeg0F6tYh/v2Xi173sJwxarFTEWEyBM4KHQ8YF5JAcHB4VfACC8/PLL8vHJ6Pt9Twmv7LG+H1BX9M3Nrs4aYAgc7MXFtgyaNfEV+p451jOj8++UMsYpwoeqJEtMOsI4wxEbcEyGofcNwDtk5xhvVtdXZib1cN5CZbMEbJTPziQUhu1CYIIJ20QBXbuCdzTB4xgxDhM8PJwaZXKRqSVDYDnwqBbcWZl9EFocLFVTrgeTjubchBBY5EMgjghwpYIKWhi5rK35qPTLuAcWgzX/nAw9py63QpAhqykpbht0OEeJGgg0DZVXCis13zTRFVotcr6niai3g2ehTemaPCPNtYqphmFAcJxjFZhhWQXG6pkJAWItoULKQOUrJLAAqa1b5Mjxnp2fUShIIIRAS65tG0wTtXXXdbg4v8B6sy5CcZoSqpr+7DgM2hMlWdU1+rGXm1RhvVlht90qQkBhCPB4LheY9wHnME1MG08pq7KS6LkxqIV/maoesFcUDCAyWlcMPaZIC6XfD7h96zYcPIZhRNetECeCribAVh3rFWhZKb8Ds7BedStcbC8AAJvNplgQZiWYe7Fer7G92KJTj4AQArYX7NockyytQcUUkO9gBFVL8lYCKSixzI6ew0K40sLIpH/TNNhsGF4YF+ixPcP8oaQc5xAqdG2HYWRucdu2CD6UOnECaiylrRemeq1DHcaJZ7Gb6RR0iGEUk2xV7UZTmrFeey6ZtZLGzuj7AdvtDqNSNJNCgV4IvAmHEJiZxc5EJBhWiXFdTMKPI1Fds3Soafh+01JDb0pRyby+ZEqaplmFJLbuxvSbzaZsMLX67H6YdnDyNWthMBZ7tvtVqpxLiT5jUu7GONDsL3UakRqkU9h2mpin7mTq2B6NSnixtfWWx28RF6UYTwLCuq5jZqb3uHH9emH6UYRt808xsf24gW1KvW0EOEMuk5dr0HXsTxeVFr3b7TCNEw4PD4tl1HVdWWuuocDoRZLZZrNBVc8IfVKOibll6/UaN2/dxHq9lpWjqkVZB957XL9xHdvtFoPOQnCqX/HeY7VaoW0J7DkJ/ayqSSihxyuBzuin7/uyfkYb/cAowaSiMC+Q20kYJPWmmOKE/x9W/S8EXXe3qwAAAABJRU5ErkJggg==;" vertex="1" parent="1">
                    <mxGeometry x="220" y="158" width="254" height="254" as="geometry"/>
                </mxCell>
                <mxCell id="24" value="" style="rounded=0;whiteSpace=wrap;html=1;fillColor=none;strokeColor=#FF0000;opacity=80;strokeWidth=2;" parent="1" vertex="1">
                    <mxGeometry x="110" y="300" width="10" height="10" as="geometry"/>
                </mxCell>
                <mxCell id="25" value="" style="rounded=0;whiteSpace=wrap;html=1;fillColor=none;strokeColor=#FF0000;opacity=70;strokeWidth=2;" parent="1" vertex="1">
                    <mxGeometry x="130" y="300" width="10" height="10" as="geometry"/>
                </mxCell>
                <mxCell id="26" value="" style="rounded=0;whiteSpace=wrap;html=1;fillColor=none;strokeColor=#FF0000;opacity=70;strokeWidth=2;" parent="1" vertex="1">
                    <mxGeometry x="150" y="300" width="10" height="10" as="geometry"/>
                </mxCell>
                <mxCell id="27" value="" style="rounded=0;whiteSpace=wrap;html=1;fillColor=none;strokeColor=#FF0000;opacity=70;strokeWidth=2;" parent="1" vertex="1">
                    <mxGeometry x="170" y="300" width="10" height="10" as="geometry"/>
                </mxCell>
                <mxCell id="28" value="" style="rounded=0;whiteSpace=wrap;html=1;fillColor=none;strokeColor=#FF0000;opacity=70;strokeWidth=3;" parent="1" vertex="1">
                    <mxGeometry x="260" y="330" width="20" height="20" as="geometry"/>
                </mxCell>
                <mxCell id="30" value="" style="rounded=0;whiteSpace=wrap;html=1;fillColor=none;strokeColor=#FF0000;opacity=70;strokeWidth=2;" parent="1" vertex="1">
                    <mxGeometry x="140" y="280" width="10" height="10" as="geometry"/>
                </mxCell>
                <mxCell id="35" value="" style="rounded=0;whiteSpace=wrap;html=1;fillColor=none;strokeColor=#FF0000;opacity=70;strokeWidth=3;" vertex="1" parent="1">
                    <mxGeometry x="300" y="330" width="20" height="20" as="geometry"/>
                </mxCell>
                <mxCell id="36" value="" style="rounded=0;whiteSpace=wrap;html=1;fillColor=none;strokeColor=#FF0000;opacity=70;strokeWidth=3;" vertex="1" parent="1">
                    <mxGeometry x="340" y="330" width="20" height="20" as="geometry"/>
                </mxCell>
                <mxCell id="37" value="" style="rounded=0;whiteSpace=wrap;html=1;fillColor=none;strokeColor=#FF0000;opacity=70;strokeWidth=3;" vertex="1" parent="1">
                    <mxGeometry x="380" y="330" width="20" height="20" as="geometry"/>
                </mxCell>
                <mxCell id="38" value="" style="rounded=0;whiteSpace=wrap;html=1;fillColor=none;strokeColor=#FF0000;opacity=70;strokeWidth=3;" vertex="1" parent="1">
                    <mxGeometry x="320" y="295" width="20" height="20" as="geometry"/>
                </mxCell>
                <mxCell id="39" value="" style="rounded=0;whiteSpace=wrap;html=1;fillColor=none;strokeColor=#FF0000;opacity=70;strokeWidth=3;" vertex="1" parent="1">
                    <mxGeometry x="337" y="260" width="20" height="20" as="geometry"/>
                </mxCell>
            </root>
        </mxGraphModel>
    </diagram>
</mxfile>